<svg width="14" height="10" viewBox="0 0 14 10" fill="none" xmlns="http://www.w3.org/2000/svg">
<path d="M5.68573 0.744101C5.47485 0.533216 5.13305 0.533216 4.92216 0.744101L1.04997 4.61629C1.03681 4.62945 1.02433 4.64329 1.01252 4.65779C1.00881 4.66218 1.00577 4.6669 1.00206 4.67163C0.994971 4.68108 0.987885 4.69019 0.981137 4.69997C0.976413 4.70706 0.972364 4.71448 0.967978 4.72157C0.963254 4.72933 0.95853 4.73709 0.954143 4.74519C0.949757 4.75328 0.946046 4.76138 0.942334 4.76982C0.938622 4.77758 0.934911 4.785 0.931537 4.79276C0.927825 4.80153 0.925126 4.81031 0.922089 4.81908C0.91939 4.82684 0.916353 4.8346 0.913991 4.84236C0.910954 4.85215 0.90893 4.86193 0.906568 4.87138C0.904881 4.8788 0.902856 4.88589 0.901169 4.89331C0.89847 4.90613 0.896783 4.91895 0.895433 4.93178C0.894758 4.9365 0.894084 4.94089 0.893409 4.94561C0.889697 4.98171 0.889697 5.01816 0.893409 5.05426C0.893746 5.05628 0.894083 5.05831 0.894421 5.06033C0.896108 5.07585 0.89847 5.09137 0.901507 5.10656C0.902519 5.11095 0.903868 5.11533 0.904881 5.11972C0.907917 5.13254 0.910954 5.14536 0.914666 5.15785C0.916015 5.16223 0.917703 5.16662 0.91939 5.17134C0.923439 5.18349 0.927825 5.19597 0.932886 5.20812C0.934573 5.21183 0.936261 5.21521 0.937948 5.21892C0.943684 5.2314 0.94942 5.24389 0.955831 5.25603C0.95718 5.2584 0.958867 5.26076 0.960217 5.26312C0.967303 5.27594 0.975063 5.28876 0.983161 5.30125C0.983836 5.30226 0.984511 5.30327 0.985186 5.30428C1.00374 5.33161 1.025 5.3576 1.04896 5.38155L4.92284 9.25543C5.02811 9.3607 5.16645 9.41368 5.30445 9.41368C5.44246 9.41368 5.5808 9.36104 5.68607 9.25543C5.89696 9.04455 5.89696 8.70274 5.68607 8.49186L2.73368 5.53946H12.5734C12.8717 5.53946 13.1133 5.29787 13.1133 4.9996C13.1133 4.70132 12.8717 4.45973 12.5734 4.45973H2.73368L5.68573 1.50734C5.89662 1.29679 5.89662 0.954987 5.68573 0.744101Z" fill="white"/>
</svg>
