<svg width="23" height="22" viewBox="0 0 23 22" fill="none" xmlns="http://www.w3.org/2000/svg">
<path d="M13.2308 20.8754H9.15385C5.31008 20.8754 3.38821 20.8754 2.1941 19.6813C1 18.4873 1 16.5653 1 12.7216V10.6831C1 6.83938 1 4.91751 2.1941 3.7234C3.38821 2.5293 5.31008 2.5293 9.15385 2.5293H13.2308C17.0745 2.5293 18.9965 2.5293 20.1905 3.7234C21.3846 4.91751 21.3846 6.83938 21.3846 10.6831V12.7216C21.3846 16.5653 21.3846 18.4873 20.1905 19.6813C19.5247 20.3471 18.6328 20.6416 17.3077 20.772" stroke="#2A2D31" stroke-width="2" stroke-linecap="round"/>
<path d="M6.09766 2.52885V1" stroke="#2A2D31" stroke-width="2" stroke-linecap="round"/>
<path d="M16.2891 2.52885V1" stroke="#2A2D31" stroke-width="2" stroke-linecap="round"/>
<path d="M20.875 7.625H15.9062H9.91827M1 7.625H4.94952" stroke="#2A2D31" stroke-width="2" stroke-linecap="round"/>
<path d="M17.308 15.779C17.308 16.3419 16.8517 16.7982 16.2888 16.7982C15.7258 16.7982 15.2695 16.3419 15.2695 15.779C15.2695 15.2161 15.7258 14.7598 16.2888 14.7598C16.8517 14.7598 17.308 15.2161 17.308 15.779Z" fill="#2A2D31"/>
<path d="M17.308 11.7018C17.308 12.2648 16.8517 12.7211 16.2888 12.7211C15.7258 12.7211 15.2695 12.2648 15.2695 11.7018C15.2695 11.1389 15.7258 10.6826 16.2888 10.6826C16.8517 10.6826 17.308 11.1389 17.308 11.7018Z" fill="#2A2D31"/>
<path d="M12.2103 15.779C12.2103 16.3419 11.754 16.7982 11.1911 16.7982C10.6282 16.7982 10.1719 16.3419 10.1719 15.779C10.1719 15.2161 10.6282 14.7598 11.1911 14.7598C11.754 14.7598 12.2103 15.2161 12.2103 15.779Z" fill="#2A2D31"/>
<path d="M12.2103 11.7018C12.2103 12.2648 11.754 12.7211 11.1911 12.7211C10.6282 12.7211 10.1719 12.2648 10.1719 11.7018C10.1719 11.1389 10.6282 10.6826 11.1911 10.6826C11.754 10.6826 12.2103 11.1389 12.2103 11.7018Z" fill="#2A2D31"/>
<path d="M7.11659 15.779C7.11659 16.3419 6.66026 16.7982 6.09736 16.7982C5.53445 16.7982 5.07812 16.3419 5.07812 15.779C5.07812 15.2161 5.53445 14.7598 6.09736 14.7598C6.66026 14.7598 7.11659 15.2161 7.11659 15.779Z" fill="#2A2D31"/>
<path d="M7.11659 11.7018C7.11659 12.2648 6.66026 12.7211 6.09736 12.7211C5.53445 12.7211 5.07812 12.2648 5.07812 11.7018C5.07812 11.1389 5.53445 10.6826 6.09736 10.6826C6.66026 10.6826 7.11659 11.1389 7.11659 11.7018Z" fill="#2A2D31"/>
</svg>
