<svg width="21" height="19" viewBox="0 0 21 19" fill="none" xmlns="http://www.w3.org/2000/svg">
<rect x="10.793" y="0.770508" width="0.770833" height="16.9583" fill="none" fill-opacity="0.77"/>
<g clip-path="url(#clip0_2787_269)">
<mask id="path-2-inside-1_2787_269" fill="none">
<path fill-rule="evenodd" clip-rule="evenodd" d="M9.20736 0.963661H9.29524C11.0751 0.963661 12.4695 0.963662 13.5579 1.11012C14.671 1.25966 15.5498 1.57262 16.2397 2.26174C16.9296 2.95164 17.2418 3.83039 17.3913 4.94424C17.5378 6.03189 17.5378 7.42633 17.5378 9.20618V9.27402C17.5378 10.7455 17.5378 11.9496 17.4576 12.9301C17.3774 13.9167 17.2132 14.7392 16.8448 15.4237C16.6834 15.7249 16.4817 15.9965 16.2397 16.2385C15.5498 16.9284 14.671 17.2406 13.5572 17.3901C12.4695 17.5366 11.0751 17.5366 9.29524 17.5366H9.20736C7.42751 17.5366 6.03307 17.5366 4.94466 17.3901C3.83157 17.2406 2.95282 16.9276 2.26293 16.2385C1.65166 15.6272 1.33561 14.8664 1.16834 13.9214C1.00261 12.9941 0.972552 11.8401 0.966385 10.4079C0.965358 10.0431 0.964844 9.65712 0.964844 9.25012V9.20541C0.964844 7.42556 0.964844 6.03112 1.1113 4.9427C1.26084 3.82962 1.5738 2.95087 2.26293 2.26097C2.95282 1.57108 3.83157 1.25889 4.94543 1.10935C6.03307 0.962891 7.42751 0.962891 9.20736 0.962891M5.09882 2.25481C4.1137 2.38739 3.51939 2.64022 3.08078 3.07883C2.64141 3.5182 2.38934 4.11174 2.25676 5.09764C2.12264 6.09972 2.12109 7.41631 2.12109 9.24935V9.89993L2.8927 9.22468C3.23115 8.92841 3.66956 8.77186 4.11912 8.78675C4.56868 8.80164 4.99577 8.98684 5.31389 9.30485L8.62076 12.6117C8.87738 12.8683 9.21627 13.0261 9.57779 13.0574C9.93931 13.0887 10.3003 12.9915 10.5972 12.7828L10.8269 12.621C11.2552 12.32 11.773 12.1733 12.2956 12.2048C12.8181 12.2363 13.3146 12.4441 13.7036 12.7944L15.8851 14.7577C16.1056 14.2968 16.2358 13.6909 16.3052 12.836C16.3807 11.9072 16.3815 10.7494 16.3815 9.24935C16.3815 7.41631 16.38 6.09972 16.2458 5.09764C16.1133 4.11174 15.8604 3.51743 15.4218 3.07806C14.9824 2.63945 14.3889 2.38739 13.403 2.25481C12.4009 2.12068 11.0843 2.11914 9.2513 2.11914C7.41826 2.11914 6.10091 2.12068 5.09882 2.25481Z"/>
</mask>
<path d="M13.5579 1.11012L13.3579 2.59672L13.3582 2.59676L13.5579 1.11012ZM16.2397 2.26174L17.3003 1.20108L17.2997 1.20049L16.2397 2.26174ZM17.3913 4.94424L15.9046 5.14384L15.9047 5.14442L17.3913 4.94424ZM17.4576 12.9301L15.9626 12.8078L15.9625 12.8086L17.4576 12.9301ZM16.8448 15.4237L15.524 14.7128L15.5226 14.7153L16.8448 15.4237ZM13.5572 17.3901L13.3576 15.9035L13.357 15.9035L13.5572 17.3901ZM4.94466 17.3901L5.14469 15.9035L5.14439 15.9035L4.94466 17.3901ZM2.26293 16.2385L1.20227 17.2992L1.20286 17.2997L2.26293 16.2385ZM1.16834 13.9214L2.64539 13.6599L2.64495 13.6575L1.16834 13.9214ZM0.966385 10.4079L-0.53361 10.4121L-0.533601 10.4144L0.966385 10.4079ZM1.1113 4.9427L2.5979 5.14274L2.59795 5.14243L1.1113 4.9427ZM2.26293 2.26097L1.20227 1.20031L1.20167 1.20091L2.26293 2.26097ZM4.94543 1.10935L5.14502 2.59601L5.1456 2.59593L4.94543 1.10935ZM5.09882 2.25481L4.89983 0.768065L4.89875 0.76821L5.09882 2.25481ZM2.25676 5.09764L0.770143 4.89772L0.770019 4.89865L2.25676 5.09764ZM2.12109 9.89993H0.621094V13.2059L3.10893 11.0287L2.12109 9.89993ZM2.8927 9.22468L3.88053 10.3535L3.88069 10.3533L2.8927 9.22468ZM5.31389 9.30485L6.37455 8.24419L6.37437 8.24402L5.31389 9.30485ZM8.62076 12.6117L7.5601 13.6724L7.56021 13.6725L8.62076 12.6117ZM10.5972 12.7828L11.4596 14.0101L11.4612 14.009L10.5972 12.7828ZM10.8269 12.621L9.96449 11.3937L9.96283 11.3948L10.8269 12.621ZM13.7036 12.7944L12.7 13.9092L12.7002 13.9094L13.7036 12.7944ZM15.8851 14.7577L14.8816 15.8727L16.3728 17.2147L17.2383 15.4049L15.8851 14.7577ZM16.3052 12.836L14.8101 12.7144L14.8101 12.7147L16.3052 12.836ZM16.2458 5.09764L17.7326 4.89865L17.7325 4.89772L16.2458 5.09764ZM15.4218 3.07806L16.4834 2.01833L16.4816 2.01647L15.4218 3.07806ZM13.403 2.25481L13.6029 0.768189L13.602 0.768065L13.403 2.25481ZM9.20736 2.46366H9.29524V-0.536338H9.20736V2.46366ZM9.29524 2.46366C11.1155 2.46366 12.3923 2.46679 13.3579 2.59672L13.758 -0.376482C12.5468 -0.539465 11.0347 -0.536338 9.29524 -0.536338V2.46366ZM13.3582 2.59676C14.3045 2.7239 14.8145 2.95834 15.1796 3.323L17.2997 1.20049C16.285 0.186896 15.0375 -0.204576 13.7577 -0.376523L13.3582 2.59676ZM15.179 3.3224C15.5434 3.6868 15.7774 4.19584 15.9046 5.14384L18.878 4.74465C18.7062 3.46494 18.3157 2.21648 17.3003 1.20108L15.179 3.3224ZM15.9047 5.14442C16.0346 6.10917 16.0378 7.38586 16.0378 9.20618H19.0378C19.0378 7.4668 19.0409 5.95461 18.8779 4.74407L15.9047 5.14442ZM16.0378 9.20618V9.27402H19.0378V9.20618H16.0378ZM16.0378 9.27402C16.0378 10.7678 16.0366 11.902 15.9626 12.8078L18.9526 13.0523C19.0389 11.9971 19.0378 10.7232 19.0378 9.27402H16.0378ZM15.9625 12.8086C15.8884 13.7214 15.7464 14.2995 15.524 14.7128L18.1656 16.1347C18.6801 15.1789 18.8665 14.1121 18.9527 13.0516L15.9625 12.8086ZM15.5226 14.7153C15.4308 14.8866 15.3173 15.0395 15.179 15.1778L17.3003 17.2992C17.6461 16.9534 17.936 16.5632 18.1669 16.1322L15.5226 14.7153ZM15.179 15.1778C14.8146 15.5422 14.3056 15.7762 13.3576 15.9035L13.7568 18.8768C15.0365 18.705 16.2849 18.3145 17.3003 17.2992L15.179 15.1778ZM13.357 15.9035C12.3923 16.0334 11.1156 16.0366 9.29524 16.0366V19.0366C11.0346 19.0366 12.5468 19.0397 13.7574 18.8767L13.357 15.9035ZM9.29524 16.0366H9.20736V19.0366H9.29524V16.0366ZM9.20736 16.0366C7.38712 16.0366 6.11031 16.0335 5.14469 15.9035L4.74462 18.8767C5.95584 19.0397 7.4679 19.0366 9.20736 19.0366V16.0366ZM5.14439 15.9035C4.19808 15.7763 3.68806 15.5419 3.32299 15.1772L1.20286 17.2997C2.21759 18.3133 3.46507 18.7048 4.74493 18.8768L5.14439 15.9035ZM3.32359 15.1778C2.99866 14.8529 2.77901 14.4149 2.64539 13.6599L-0.308698 14.1828C-0.107784 15.3179 0.304653 16.4015 1.20227 17.2992L3.32359 15.1778ZM2.64495 13.6575C2.50543 12.8768 2.4726 11.8489 2.46637 10.4015L-0.533601 10.4144C-0.527499 11.8314 -0.500204 13.1113 -0.30826 14.1853L2.64495 13.6575ZM2.46638 10.4037C2.46536 10.0404 2.46484 9.65587 2.46484 9.25012H-0.535156C-0.535156 9.65837 -0.534641 10.0457 -0.533609 10.4121L2.46638 10.4037ZM2.46484 9.25012V9.20541H-0.535156V9.25012H2.46484ZM2.46484 9.20541C2.46484 7.38517 2.46797 6.10835 2.5979 5.14274L-0.3753 4.74266C-0.538283 5.95389 -0.535156 7.46595 -0.535156 9.20541H2.46484ZM2.59795 5.14243C2.72508 4.19612 2.95953 3.6861 3.32418 3.32104L1.20167 1.20091C0.188079 2.21564 -0.203393 3.46312 -0.375341 4.74297L2.59795 5.14243ZM3.32359 3.32163C3.68799 2.95723 4.19703 2.72328 5.14502 2.59601L4.74583 -0.377313C3.46612 -0.205503 2.21766 0.184922 1.20227 1.20031L3.32359 3.32163ZM5.1456 2.59593C6.11035 2.46602 7.38704 2.46289 9.20736 2.46289V-0.537109C7.46798 -0.537109 5.95579 -0.540241 4.74525 -0.377234L5.1456 2.59593ZM4.89875 0.76821C3.74581 0.923379 2.78309 1.2552 2.02012 2.01817L4.14144 4.13949C4.25568 4.02525 4.48159 3.8514 5.2989 3.7414L4.89875 0.76821ZM2.02012 2.01817C1.2561 2.78219 0.925233 3.74446 0.770143 4.89772L3.74338 5.29756C3.85345 4.47903 4.02671 4.25422 4.14144 4.13949L2.02012 2.01817ZM0.770019 4.89865C0.619475 6.0234 0.621094 7.45863 0.621094 9.24935H3.62109C3.62109 7.37399 3.6258 6.17605 3.7435 5.29664L0.770019 4.89865ZM0.621094 9.24935V9.89993H3.62109V9.24935H0.621094ZM3.10893 11.0287L3.88053 10.3535L1.90486 8.09589L1.13326 8.77114L3.10893 11.0287ZM3.88069 10.3533C3.93279 10.3077 4.00028 10.2836 4.06948 10.2859L4.16876 7.28757C3.33884 7.26009 2.52951 7.54909 1.90471 8.09602L3.88069 10.3533ZM4.06948 10.2859C4.13868 10.2882 4.20443 10.3167 4.2534 10.3657L6.37437 8.24402C5.78712 7.65695 4.99867 7.31505 4.16876 7.28757L4.06948 10.2859ZM4.25323 10.3655L7.5601 13.6724L9.68142 11.5511L6.37455 8.24419L4.25323 10.3655ZM7.56021 13.6725C8.0665 14.1787 8.73513 14.4901 9.4484 14.5518L9.70718 11.563C9.69741 11.5622 9.68825 11.5579 9.68131 11.551L7.56021 13.6725ZM9.4484 14.5518C10.1617 14.6136 10.8739 14.4218 11.4596 14.0101L9.73473 11.5556C9.72671 11.5612 9.71695 11.5638 9.70718 11.563L9.4484 14.5518ZM11.4612 14.009L11.6909 13.8471L9.96283 11.3948L9.73312 11.5567L11.4612 14.009ZM11.6893 13.8483C11.8398 13.7425 12.0217 13.691 12.2053 13.702L12.3859 10.7075C11.5243 10.6555 10.6707 10.8975 9.96449 11.3937L11.6893 13.8483ZM12.2053 13.702C12.3889 13.7131 12.5633 13.7861 12.7 13.9092L14.7072 11.6796C14.0658 11.1021 13.2474 10.7594 12.3859 10.7075L12.2053 13.702ZM12.7002 13.9094L14.8816 15.8727L16.8885 13.6428L14.7071 11.6795L12.7002 13.9094ZM17.2383 15.4049C17.5751 14.7007 17.7253 13.8819 17.8003 12.9574L14.8101 12.7147C14.7464 13.4999 14.636 13.8929 14.5319 14.1105L17.2383 15.4049ZM17.8003 12.9576C17.8819 11.9543 17.8815 10.7267 17.8815 9.24935H14.8815C14.8815 10.7721 14.8796 11.86 14.8101 12.7144L17.8003 12.9576ZM17.8815 9.24935C17.8815 7.45863 17.8831 6.0234 17.7326 4.89865L14.7591 5.29664C14.8768 6.17605 14.8815 7.37399 14.8815 9.24935H17.8815ZM17.7325 4.89772C17.5773 3.74369 17.2455 2.78171 16.4834 2.01833L14.3602 4.13779C14.4754 4.25315 14.6493 4.4798 14.7592 5.29756L17.7325 4.89772ZM16.4816 2.01647C15.7178 1.25407 14.7562 0.923284 13.6029 0.76819L13.2031 3.74142C14.0216 3.8515 14.2471 4.02484 14.3621 4.13965L16.4816 2.01647ZM13.602 0.768065C12.4773 0.617521 11.042 0.619141 9.2513 0.619141V3.61914C11.1267 3.61914 12.3246 3.62384 13.204 3.74155L13.602 0.768065ZM9.2513 0.619141C7.4606 0.619141 6.02459 0.617521 4.89983 0.768065L5.29782 3.74155C6.17722 3.62384 7.37592 3.61914 9.2513 3.61914V0.619141Z" fill="none" fill-opacity="0.77" mask="url(#path-2-inside-1_2787_269)"/>
</g>
<g clip-path="url(#clip1_2787_269)">
<path d="M14.9193 6.16667C14.9193 6.44293 14.8095 6.70789 14.6142 6.90324C14.4188 7.09859 14.1539 7.20833 13.8776 7.20833C13.6013 7.20833 13.3364 7.09859 13.141 6.90324C12.9457 6.70789 12.8359 6.44293 12.8359 6.16667C12.8359 5.8904 12.9457 5.62545 13.141 5.4301C13.3364 5.23475 13.6013 5.125 13.8776 5.125C14.1539 5.125 14.4188 5.23475 14.6142 5.4301C14.8095 5.62545 14.9193 5.8904 14.9193 6.16667Z" stroke="none" stroke-opacity="0.77"/>
<mask id="path-5-inside-2_2787_269" fill="none">
<path fill-rule="evenodd" clip-rule="evenodd" d="M10.7503 0.963661H10.8382C12.6181 0.963661 14.0125 0.963662 15.1009 1.11012C16.214 1.25966 17.0928 1.57262 17.7826 2.26174C18.4725 2.95164 18.7847 3.83039 18.9343 4.94424C19.0807 6.03189 19.0807 7.42633 19.0807 9.20618V9.27402C19.0807 10.7455 19.0807 11.9496 19.0006 12.9301C18.9204 13.9167 18.7562 14.7392 18.3878 15.4237C18.2264 15.7249 18.0247 15.9965 17.7826 16.2385C17.0928 16.9284 16.214 17.2406 15.1001 17.3901C14.0125 17.5366 12.6181 17.5366 10.8382 17.5366H10.7503C8.97048 17.5366 7.57604 17.5366 6.48763 17.3901C5.37454 17.2406 4.49579 16.9276 3.8059 16.2385C3.19463 15.6272 2.87858 14.8664 2.71131 13.9214C2.54558 12.9941 2.51552 11.8401 2.50935 10.4079C2.50833 10.0431 2.50781 9.65712 2.50781 9.25012V9.20541C2.50781 7.42556 2.50781 6.03112 2.65427 4.9427C2.80381 3.82962 3.11677 2.95087 3.8059 2.26097C4.49579 1.57108 5.37454 1.25889 6.4884 1.10935C7.57604 0.962891 8.97048 0.962891 10.7503 0.962891M6.64179 2.25481C5.65667 2.38739 5.06235 2.64022 4.62375 3.07883C4.18438 3.5182 3.93231 4.11174 3.79973 5.09764C3.6656 6.09972 3.66406 7.41631 3.66406 9.24935V9.89993L4.43567 9.22468C4.77412 8.92841 5.21253 8.77186 5.66209 8.78675C6.11165 8.80164 6.53874 8.98684 6.85685 9.30485L10.1637 12.6117C10.4203 12.8683 10.7592 13.0261 11.1208 13.0574C11.4823 13.0887 11.8433 12.9915 12.1401 12.7828L12.3699 12.621C12.7982 12.32 13.316 12.1733 13.8386 12.2048C14.3611 12.2363 14.8575 12.4441 15.2466 12.7944L17.4281 14.7577C17.6485 14.2968 17.7788 13.6909 17.8482 12.836C17.9237 11.9072 17.9245 10.7494 17.9245 9.24935C17.9245 7.41631 17.9229 6.09972 17.7888 5.09764C17.6562 4.11174 17.4034 3.51743 16.9648 3.07806C16.5254 2.63945 15.9319 2.38739 14.946 2.25481C13.9439 2.12068 12.6273 2.11914 10.7943 2.11914C8.96123 2.11914 7.64388 2.12068 6.64179 2.25481Z"/>
</mask>
<path d="M15.1009 1.11012L14.9009 2.59672L14.9012 2.59676L15.1009 1.11012ZM17.7826 2.26174L18.8433 1.20108L18.8427 1.20049L17.7826 2.26174ZM18.9343 4.94424L17.4476 5.14384L17.4477 5.14442L18.9343 4.94424ZM19.0006 12.9301L17.5056 12.8078L17.5055 12.8086L19.0006 12.9301ZM18.3878 15.4237L17.0669 14.7128L17.0656 14.7153L18.3878 15.4237ZM15.1001 17.3901L14.9006 15.9035L14.9 15.9035L15.1001 17.3901ZM6.48763 17.3901L6.68766 15.9035L6.68735 15.9035L6.48763 17.3901ZM3.8059 16.2385L2.74524 17.2992L2.74583 17.2997L3.8059 16.2385ZM2.71131 13.9214L4.18836 13.6599L4.18792 13.6575L2.71131 13.9214ZM2.50935 10.4079L1.00936 10.4121L1.00937 10.4144L2.50935 10.4079ZM2.65427 4.9427L4.14087 5.14274L4.14091 5.14243L2.65427 4.9427ZM3.8059 2.26097L2.74524 1.20031L2.74464 1.20091L3.8059 2.26097ZM6.4884 1.10935L6.68799 2.59601L6.68857 2.59593L6.4884 1.10935ZM6.64179 2.25481L6.4428 0.768065L6.44172 0.76821L6.64179 2.25481ZM3.79973 5.09764L2.31311 4.89772L2.31299 4.89865L3.79973 5.09764ZM3.66406 9.89993H2.16406V13.2059L4.6519 11.0287L3.66406 9.89993ZM4.43567 9.22468L5.4235 10.3535L5.42366 10.3533L4.43567 9.22468ZM6.85685 9.30485L7.91751 8.24419L7.91734 8.24402L6.85685 9.30485ZM10.1637 12.6117L9.10307 13.6724L9.10318 13.6725L10.1637 12.6117ZM12.1401 12.7828L13.0026 14.0101L13.0042 14.009L12.1401 12.7828ZM12.3699 12.621L11.5075 11.3937L11.5058 11.3948L12.3699 12.621ZM15.2466 12.7944L14.243 13.9092L14.2432 13.9094L15.2466 12.7944ZM17.4281 14.7577L16.4246 15.8727L17.9157 17.2147L18.7813 15.4049L17.4281 14.7577ZM17.8482 12.836L16.3531 12.7144L16.3531 12.7147L17.8482 12.836ZM17.7888 5.09764L19.2756 4.89865L19.2754 4.89772L17.7888 5.09764ZM16.9648 3.07806L18.0264 2.01833L18.0245 2.01647L16.9648 3.07806ZM14.946 2.25481L15.1459 0.768189L15.145 0.768065L14.946 2.25481ZM10.7503 2.46366H10.8382V-0.536338H10.7503V2.46366ZM10.8382 2.46366C12.6585 2.46366 13.9353 2.46679 14.9009 2.59672L15.301 -0.376482C14.0897 -0.539465 12.5777 -0.536338 10.8382 -0.536338V2.46366ZM14.9012 2.59676C15.8475 2.7239 16.3575 2.95834 16.7226 3.323L18.8427 1.20049C17.828 0.186896 16.5805 -0.204576 15.3006 -0.376523L14.9012 2.59676ZM16.722 3.32241C17.0864 3.6868 17.3203 4.19584 17.4476 5.14384L20.4209 4.74465C20.2491 3.46494 19.8587 2.21648 18.8433 1.20108L16.722 3.32241ZM17.4477 5.14442C17.5776 6.10917 17.5807 7.38586 17.5807 9.20618H20.5807C20.5807 7.4668 20.5839 5.95461 20.4209 4.74407L17.4477 5.14442ZM17.5807 9.20618V9.27402H20.5807V9.20618H17.5807ZM17.5807 9.27402C17.5807 10.7678 17.5796 11.902 17.5056 12.8078L20.4956 13.0523C20.5818 11.9971 20.5807 10.7232 20.5807 9.27402H17.5807ZM17.5055 12.8086C17.4313 13.7214 17.2894 14.2995 17.0669 14.7128L19.7086 16.1347C20.223 15.1789 20.4095 14.1121 20.4956 13.0516L17.5055 12.8086ZM17.0656 14.7153C16.9738 14.8866 16.8603 15.0395 16.722 15.1778L18.8433 17.2992C19.1891 16.9534 19.479 16.5632 19.7099 16.1322L17.0656 14.7153ZM16.722 15.1778C16.3576 15.5422 15.8485 15.7762 14.9006 15.9035L15.2997 18.8768C16.5795 18.705 17.8279 18.3145 18.8433 17.2992L16.722 15.1778ZM14.9 15.9035C13.9352 16.0334 12.6585 16.0366 10.8382 16.0366V19.0366C12.5776 19.0366 14.0898 19.0397 15.3003 18.8767L14.9 15.9035ZM10.8382 16.0366H10.7503V19.0366H10.8382V16.0366ZM10.7503 16.0366C8.93009 16.0366 7.65328 16.0335 6.68766 15.9035L6.28759 18.8767C7.49881 19.0397 9.01087 19.0366 10.7503 19.0366V16.0366ZM6.68735 15.9035C5.74105 15.7763 5.23102 15.5419 4.86596 15.1772L2.74583 17.2997C3.76056 18.3133 5.00804 18.7048 6.2879 18.8768L6.68735 15.9035ZM4.86656 15.1778C4.54163 14.8529 4.32198 14.4149 4.18835 13.6599L1.23427 14.1828C1.43518 15.3179 1.84762 16.4015 2.74524 17.2992L4.86656 15.1778ZM4.18792 13.6575C4.0484 12.8768 4.01557 11.8489 4.00934 10.4015L1.00937 10.4144C1.01547 11.8314 1.04276 13.1113 1.23471 14.1853L4.18792 13.6575ZM4.00935 10.4037C4.00832 10.0404 4.00781 9.65587 4.00781 9.25012H1.00781C1.00781 9.65837 1.00833 10.0457 1.00936 10.4121L4.00935 10.4037ZM4.00781 9.25012V9.20541H1.00781V9.25012H4.00781ZM4.00781 9.20541C4.00781 7.38517 4.01094 6.10835 4.14087 5.14274L1.16767 4.74266C1.00469 5.95389 1.00781 7.46595 1.00781 9.20541H4.00781ZM4.14091 5.14243C4.26805 4.19612 4.50249 3.6861 4.86715 3.32104L2.74464 1.20091C1.73105 2.21564 1.33958 3.46312 1.16763 4.74297L4.14091 5.14243ZM4.86656 3.32163C5.23096 2.95723 5.74 2.72328 6.68799 2.59601L6.2888 -0.377313C5.00909 -0.205503 3.76063 0.184922 2.74524 1.20031L4.86656 3.32163ZM6.68857 2.59593C7.65332 2.46602 8.93001 2.46289 10.7503 2.46289V-0.537109C9.01095 -0.537109 7.49876 -0.540241 6.28822 -0.377234L6.68857 2.59593ZM6.44172 0.76821C5.28878 0.923379 4.32606 1.2552 3.56309 2.01817L5.68441 4.13949C5.79865 4.02525 6.02455 3.8514 6.84187 3.7414L6.44172 0.76821ZM3.56309 2.01817C2.79907 2.78219 2.4682 3.74446 2.31311 4.89772L5.28635 5.29756C5.39642 4.47903 5.56968 4.25422 5.68441 4.13949L3.56309 2.01817ZM2.31299 4.89865C2.16244 6.0234 2.16406 7.45863 2.16406 9.24935H5.16406C5.16406 7.37399 5.16877 6.17605 5.28647 5.29664L2.31299 4.89865ZM2.16406 9.24935V9.89993H5.16406V9.24935H2.16406ZM4.6519 11.0287L5.4235 10.3535L3.44783 8.09589L2.67623 8.77114L4.6519 11.0287ZM5.42366 10.3533C5.47576 10.3077 5.54325 10.2836 5.61245 10.2859L5.71173 7.28757C4.88181 7.26009 4.07248 7.54909 3.44768 8.09602L5.42366 10.3533ZM5.61245 10.2859C5.68165 10.2882 5.7474 10.3167 5.79637 10.3657L7.91734 8.24402C7.33009 7.65695 6.54164 7.31505 5.71173 7.28757L5.61245 10.2859ZM5.79619 10.3655L9.10307 13.6724L11.2244 11.5511L7.91751 8.24419L5.79619 10.3655ZM9.10318 13.6725C9.60947 14.1787 10.2781 14.4901 10.9914 14.5518L11.2501 11.563C11.2404 11.5622 11.2312 11.5579 11.2243 11.551L9.10318 13.6725ZM10.9914 14.5518C11.7046 14.6136 12.4168 14.4218 13.0026 14.0101L11.2777 11.5556C11.2697 11.5612 11.2599 11.5638 11.2501 11.563L10.9914 14.5518ZM13.0042 14.009L13.2339 13.8471L11.5058 11.3948L11.2761 11.5567L13.0042 14.009ZM13.2323 13.8483C13.3827 13.7425 13.5647 13.691 13.7483 13.702L13.9288 10.7075C13.0673 10.6555 12.2136 10.8975 11.5075 11.3937L13.2323 13.8483ZM13.7483 13.702C13.9319 13.7131 14.1063 13.7861 14.243 13.9092L16.2502 11.6796C15.6088 11.1021 14.7903 10.7594 13.9288 10.7075L13.7483 13.702ZM14.2432 13.9094L16.4246 15.8727L18.4315 13.6428L16.2501 11.6795L14.2432 13.9094ZM18.7813 15.4049C19.1181 14.7007 19.2682 13.8819 19.3433 12.9574L16.3531 12.7147C16.2894 13.4999 16.179 13.8929 16.0749 14.1105L18.7813 15.4049ZM19.3432 12.9576C19.4248 11.9543 19.4245 10.7267 19.4245 9.24935H16.4245C16.4245 10.7721 16.4226 11.86 16.3531 12.7144L19.3432 12.9576ZM19.4245 9.24935C19.4245 7.45863 19.4261 6.0234 19.2756 4.89865L16.3021 5.29664C16.4198 6.17605 16.4245 7.37399 16.4245 9.24935H19.4245ZM19.2754 4.89772C19.1202 3.74369 18.7884 2.78171 18.0264 2.01833L15.9032 4.13779C16.0184 4.25315 16.1922 4.4798 16.3022 5.29756L19.2754 4.89772ZM18.0245 2.01647C17.2608 1.25407 16.2992 0.923284 15.1459 0.76819L14.7461 3.74142C15.5646 3.8515 15.79 4.02484 15.9051 4.13965L18.0245 2.01647ZM15.145 0.768065C14.0202 0.617521 12.585 0.619141 10.7943 0.619141V3.61914C12.6696 3.61914 13.8676 3.62384 14.747 3.74155L15.145 0.768065ZM10.7943 0.619141C9.00357 0.619141 7.56756 0.617521 6.4428 0.768065L6.84079 3.74155C7.72019 3.62384 8.91889 3.61914 10.7943 3.61914V0.619141Z" fill="none" fill-opacity="0.77" mask="url(#path-5-inside-2_2787_269)"/>
</g>
<defs>
<clipPath id="clip0_2787_269">
<rect width="10.0208" height="18.5" fill="none"/>
</clipPath>
<clipPath id="clip1_2787_269">
<rect width="7.70833" height="18.5" fill="none" transform="matrix(-1 0 0 1 20.043 0)"/>
</clipPath>
</defs>
</svg>
