<svg width="15" height="14" viewBox="0 0 15 14" fill="none" xmlns="http://www.w3.org/2000/svg">
<rect x="8.04688" y="0.926758" width="0.552083" height="12.1458" fill="white"/>
<g clip-path="url(#clip0_1388_10991)">
<mask id="path-2-inside-1_1388_10991" fill="white">
<path fill-rule="evenodd" clip-rule="evenodd" d="M6.91124 1.06501H6.97418C8.24894 1.06501 9.24766 1.06501 10.0272 1.1699C10.8244 1.27701 11.4538 1.50115 11.9479 1.99471C12.442 2.48883 12.6656 3.1182 12.7727 3.91596C12.8776 4.69495 12.8776 5.69367 12.8776 6.96843V7.01702C12.8776 8.07094 12.8776 8.9333 12.8202 9.63555C12.7628 10.3422 12.6452 10.9313 12.3813 11.4215C12.2657 11.6372 12.1212 11.8317 11.9479 12.0051C11.4538 12.4992 10.8244 12.7228 10.0266 12.8299C9.24766 12.9348 8.24894 12.9348 6.97418 12.9348H6.91124C5.63648 12.9348 4.63776 12.9348 3.85822 12.8299C3.06101 12.7228 2.43164 12.4987 1.93752 12.0051C1.49972 11.5673 1.27336 11.0224 1.15356 10.3455C1.03486 9.68137 1.01333 8.8549 1.00892 7.82913C1.00818 7.56781 1.00781 7.2914 1.00781 6.9999V6.96788C1.00781 5.69312 1.00781 4.6944 1.11271 3.91486C1.21981 3.11765 1.44396 2.48828 1.93752 1.99416C2.43164 1.50005 3.06101 1.27645 3.85877 1.16935C4.63776 1.06445 5.63648 1.06445 6.91124 1.06445M3.96864 1.98974C3.26307 2.0847 2.83742 2.26579 2.52328 2.57992C2.20859 2.89461 2.02806 3.31971 1.9331 4.02583C1.83704 4.74354 1.83594 5.68649 1.83594 6.99935V7.46531L2.38857 6.98168C2.63098 6.76949 2.94497 6.65737 3.26696 6.66803C3.58894 6.67869 3.89483 6.81134 4.12267 7.0391L6.4911 9.40754C6.6749 9.59129 6.91762 9.70433 7.17654 9.72674C7.43547 9.74916 7.69401 9.67953 7.90665 9.5301L8.07117 9.41416C8.37795 9.19859 8.7488 9.09349 9.12307 9.11606C9.49734 9.13862 9.85288 9.28751 10.1315 9.53838L11.6939 10.9445C11.8518 10.6144 11.9451 10.1805 11.9948 9.56819C12.0489 8.90293 12.0495 8.0737 12.0495 6.99935C12.0495 5.68649 12.0484 4.74354 11.9523 4.02583C11.8574 3.31971 11.6763 2.89406 11.3621 2.57937C11.0474 2.26523 10.6223 2.0847 9.91623 1.98974C9.19852 1.89368 8.25556 1.89258 6.94271 1.89258C5.62985 1.89258 4.68634 1.89368 3.96864 1.98974Z"/>
</mask>
<path d="M10.0272 1.1699L9.82716 2.6565L9.82747 2.65654L10.0272 1.1699ZM11.9479 1.99471L13.0086 0.934053L13.008 0.933461L11.9479 1.99471ZM12.7727 3.91596L11.286 4.11556L11.2861 4.11614L12.7727 3.91596ZM12.8202 9.63555L11.3252 9.51331L11.3251 9.51407L12.8202 9.63555ZM12.3813 11.4215L11.0605 10.7106L11.0591 10.7131L12.3813 11.4215ZM10.0266 12.8299L9.82705 11.3432L9.82647 11.3433L10.0266 12.8299ZM3.85822 12.8299L4.05826 11.3433L4.05795 11.3433L3.85822 12.8299ZM1.93752 12.0051L0.87686 13.0657L0.877454 13.0663L1.93752 12.0051ZM1.15356 10.3455L2.63061 10.0841L2.63017 10.0816L1.15356 10.3455ZM1.00892 7.82913L-0.491079 7.83336L-0.491069 7.83559L1.00892 7.82913ZM1.11271 3.91486L2.59931 4.1149L2.59935 4.11459L1.11271 3.91486ZM1.93752 1.99416L0.87686 0.933501L0.876268 0.934094L1.93752 1.99416ZM3.85877 1.16935L4.05836 2.65601L4.05895 2.65593L3.85877 1.16935ZM3.96864 1.98974L3.76964 0.503003L3.76856 0.503148L3.96864 1.98974ZM1.9331 4.02583L0.446486 3.82591L0.446362 3.82683L1.9331 4.02583ZM1.83594 7.46531H0.335938V10.7713L2.82377 8.5941L1.83594 7.46531ZM2.38857 6.98168L3.37641 8.11048L3.37656 8.11034L2.38857 6.98168ZM4.12267 7.0391L5.18333 5.97844L5.18315 5.97827L4.12267 7.0391ZM6.4911 9.40754L5.43044 10.4682L5.43055 10.4683L6.4911 9.40754ZM7.90665 9.5301L8.76909 10.7574L8.7707 10.7562L7.90665 9.5301ZM8.07117 9.41416L7.20877 8.18686L7.20711 8.18803L8.07117 9.41416ZM10.1315 9.53838L9.12794 10.6532L9.12809 10.6533L10.1315 9.53838ZM11.6939 10.9445L10.6905 12.0595L12.1816 13.4015L13.0471 11.5917L11.6939 10.9445ZM11.9948 9.56819L10.4998 9.4466L10.4997 9.44686L11.9948 9.56819ZM11.9523 4.02583L13.4391 3.82683L13.4389 3.82591L11.9523 4.02583ZM11.3621 2.57937L12.4237 1.51964L12.4219 1.51778L11.3621 2.57937ZM9.91623 1.98974L10.1161 0.503127L10.1152 0.503003L9.91623 1.98974ZM6.91124 2.56501H6.97418V-0.434995H6.91124V2.56501ZM6.97418 2.56501C8.28933 2.56501 9.17042 2.56813 9.82716 2.6565L10.2272 -0.316701C9.32489 -0.438121 8.20854 -0.434995 6.97418 -0.434995V2.56501ZM9.82747 2.65654C10.4579 2.74124 10.7185 2.88687 10.8878 3.05597L13.008 0.933461C12.189 0.115427 11.1909 -0.187232 10.2269 -0.316742L9.82747 2.65654ZM10.8872 3.05537C11.0559 3.22399 11.2012 3.48366 11.286 4.11556L14.2594 3.71637C14.13 2.75275 13.8282 1.75366 13.0086 0.934053L10.8872 3.05537ZM11.2861 4.11614C11.3745 4.77223 11.3776 5.6532 11.3776 6.96843H14.3776C14.3776 5.73414 14.3807 4.61767 14.2593 3.71579L11.2861 4.11614ZM11.3776 6.96843V7.01702H14.3776V6.96843H11.3776ZM11.3776 7.01702C11.3776 8.09325 11.3765 8.88576 11.3252 9.51331L14.3152 9.75778C14.3787 8.98083 14.3776 8.04863 14.3776 7.01702H11.3776ZM11.3251 9.51407C11.2737 10.1469 11.1784 10.4916 11.0605 10.7106L13.7021 12.1325C14.112 11.371 14.2518 10.5376 14.3153 9.75702L11.3251 9.51407ZM11.0591 10.7131C11.0131 10.7989 10.9568 10.8748 10.8872 10.9444L13.0086 13.0657C13.2857 12.7886 13.5183 12.4755 13.7034 12.13L11.0591 10.7131ZM10.8872 10.9444C10.7186 11.113 10.459 11.2584 9.82705 11.3432L10.2262 14.3166C11.1899 14.1872 12.1889 13.8854 13.0086 13.0657L10.8872 10.9444ZM9.82647 11.3433C9.17038 11.4317 8.2894 11.4348 6.97418 11.4348V14.4348C8.20847 14.4348 9.32493 14.4379 10.2268 14.3165L9.82647 11.3433ZM6.97418 11.4348H6.91124V14.4348H6.97418V11.4348ZM6.91124 11.4348C5.59609 11.4348 4.715 11.4317 4.05826 11.3433L3.65818 14.3165C4.56053 14.4379 5.67687 14.4348 6.91124 14.4348V11.4348ZM4.05795 11.3433C3.42751 11.2586 3.16687 11.1129 2.99759 10.9438L0.877454 13.0663C1.6964 13.8844 2.69451 14.187 3.65849 14.3165L4.05795 11.3433ZM2.99818 10.9444C2.84672 10.793 2.71676 10.5709 2.6306 10.0841L-0.323479 10.607C-0.170034 11.4739 0.152716 12.3416 0.876861 13.0657L2.99818 10.9444ZM2.63017 10.0816C2.53768 9.56415 2.51338 8.86364 2.5089 7.82267L-0.491069 7.83559C-0.486718 8.84617 -0.467954 9.79858 -0.323041 10.6094L2.63017 10.0816ZM2.50891 7.8249C2.50818 7.56514 2.50781 7.29015 2.50781 6.9999H-0.492188C-0.492188 7.29265 -0.491818 7.57048 -0.491077 7.83336L2.50891 7.8249ZM2.50781 6.9999V6.96788H-0.492188V6.9999H2.50781ZM2.50781 6.96788C2.50781 5.65273 2.51094 4.77164 2.59931 4.1149L-0.373893 3.71482C-0.495314 4.61717 -0.492188 5.73351 -0.492188 6.96788H2.50781ZM2.59935 4.11459C2.68405 3.48416 2.82968 3.22351 2.99877 3.05423L0.876268 0.934094C0.0582348 1.75304 -0.244425 2.75115 -0.373935 3.71513L2.59935 4.11459ZM2.99818 3.05482C3.1668 2.8862 3.42646 2.74085 4.05836 2.65601L3.65918 -0.317313C2.69556 -0.18794 1.69647 0.113891 0.876861 0.933501L2.99818 3.05482ZM4.05895 2.65593C4.71504 2.56759 5.59601 2.56445 6.91124 2.56445V-0.435547C5.67695 -0.435547 4.56048 -0.438679 3.65859 -0.317234L4.05895 2.65593ZM3.76856 0.503148C2.89518 0.620691 2.10112 0.880759 1.46262 1.51926L3.58394 3.64058C3.59287 3.63166 3.60877 3.61502 3.67083 3.58944C3.74743 3.55786 3.89481 3.5132 4.16871 3.47634L3.76856 0.503148ZM1.46262 1.51926C0.823287 2.1586 0.563952 2.95243 0.446487 3.82591L3.41972 4.22575C3.45665 3.95112 3.50126 3.80381 3.53274 3.7274C3.55813 3.66576 3.57462 3.6499 3.58394 3.64058L1.46262 1.51926ZM0.446362 3.82683C0.333881 4.66721 0.335938 5.72881 0.335938 6.99935H3.33594C3.33594 5.64417 3.3402 4.81986 3.41985 4.22482L0.446362 3.82683ZM0.335938 6.99935V7.46531H3.33594V6.99935H0.335938ZM2.82377 8.5941L3.37641 8.11048L1.40074 5.85289L0.8481 6.33651L2.82377 8.5941ZM3.37656 8.11034C3.33262 8.14881 3.27569 8.16914 3.21732 8.16721L3.31659 5.16885C2.61426 5.1456 1.92934 5.39017 1.40058 5.85302L3.37656 8.11034ZM3.21732 8.16721C3.15894 8.16527 3.10349 8.14123 3.06218 8.09993L5.18315 5.97827C4.68617 5.48145 4.01893 5.1921 3.31659 5.16885L3.21732 8.16721ZM3.06201 8.09976L5.43044 10.4682L7.55176 8.34688L5.18333 5.97844L3.06201 8.09976ZM5.43055 10.4683C5.86402 10.9017 6.43648 11.1683 7.04715 11.2212L7.30593 8.23234C7.39875 8.24037 7.48577 8.28089 7.55166 8.34677L5.43055 10.4683ZM7.04715 11.2212C7.65782 11.274 8.26758 11.1098 8.76909 10.7574L7.0442 8.30283C7.12043 8.24926 7.21311 8.2243 7.30593 8.23234L7.04715 11.2212ZM8.7707 10.7562L8.93523 10.6403L7.20711 8.18803L7.04259 8.30397L8.7707 10.7562ZM8.93356 10.6415C8.9625 10.6211 8.99749 10.6112 9.0328 10.6133L9.21334 7.61878C8.50011 7.57578 7.7934 7.77605 7.20877 8.18686L8.93356 10.6415ZM9.0328 10.6133C9.06811 10.6155 9.10165 10.6295 9.12794 10.6532L11.1351 8.42358C10.6041 7.94551 9.92657 7.66178 9.21334 7.61878L9.0328 10.6133ZM9.12809 10.6533L10.6905 12.0595L12.6974 9.82959L11.135 8.42344L9.12809 10.6533ZM13.0471 11.5917C13.3214 11.0183 13.4346 10.3714 13.4899 9.68953L10.4997 9.44686C10.4557 9.98947 10.3823 10.2105 10.3407 10.2974L13.0471 11.5917ZM13.4899 9.68978C13.55 8.95009 13.5495 8.051 13.5495 6.99935H10.5495C10.5495 8.09641 10.5478 8.85578 10.4998 9.4466L13.4899 9.68978ZM13.5495 6.99935C13.5495 5.72881 13.5515 4.66721 13.4391 3.82683L10.4656 4.22482C10.5452 4.81986 10.5495 5.64418 10.5495 6.99935H13.5495ZM13.4389 3.82591C13.3214 2.95166 13.0613 2.15834 12.4237 1.51964L10.3005 3.6391C10.31 3.64859 10.3269 3.66493 10.3525 3.72719C10.3841 3.80399 10.4288 3.95156 10.4657 4.22575L13.4389 3.82591ZM12.4219 1.51778C11.7828 0.879851 10.9897 0.620596 10.1161 0.503127L9.71631 3.47636C9.9909 3.51329 10.1384 3.55791 10.215 3.58945C10.2769 3.61494 10.293 3.63157 10.3024 3.64096L12.4219 1.51778ZM10.1152 0.503003C9.27484 0.390521 8.21324 0.392578 6.94271 0.392578V3.39258C8.29788 3.39258 9.1222 3.39684 9.71723 3.47649L10.1152 0.503003ZM6.94271 0.392578C5.6722 0.392578 4.61003 0.390521 3.76964 0.503003L4.16763 3.47649C4.76266 3.39684 5.58751 3.39258 6.94271 3.39258V0.392578Z" fill="white" mask="url(#path-2-inside-1_1388_10991)"/>
</g>
<g clip-path="url(#clip1_1388_10991)">
<path d="M10.8568 4.79167C10.8568 4.9519 10.7931 5.10557 10.6798 5.21888C10.5665 5.33218 10.4128 5.39583 10.2526 5.39583C10.0924 5.39583 9.9387 5.33218 9.82539 5.21888C9.71209 5.10557 9.64844 4.9519 9.64844 4.79167C9.64844 4.63143 9.71209 4.47776 9.82539 4.36446C9.9387 4.25115 10.0924 4.1875 10.2526 4.1875C10.4128 4.1875 10.5665 4.25115 10.6798 4.36446C10.7931 4.47776 10.8568 4.63143 10.8568 4.79167Z" stroke="white"/>
<mask id="path-5-inside-2_1388_10991" fill="white">
<path fill-rule="evenodd" clip-rule="evenodd" d="M8.0128 1.06501H8.07574C9.3505 1.06501 10.3492 1.06501 11.1288 1.1699C11.926 1.27701 12.5553 1.50115 13.0495 1.99471C13.5436 2.48883 13.7672 3.1182 13.8743 3.91596C13.9792 4.69495 13.9792 5.69367 13.9792 6.96843V7.01702C13.9792 8.07094 13.9792 8.9333 13.9218 9.63555C13.8643 10.3422 13.7467 10.9313 13.4828 11.4215C13.3673 11.6372 13.2228 11.8317 13.0495 12.0051C12.5553 12.4992 11.926 12.7228 11.1282 12.8299C10.3492 12.9348 9.3505 12.9348 8.07574 12.9348H8.0128C6.73804 12.9348 5.73932 12.9348 4.95978 12.8299C4.16257 12.7228 3.5332 12.4987 3.03908 12.0051C2.60128 11.5673 2.37493 11.0224 2.25513 10.3455C2.13643 9.68137 2.1149 8.8549 2.11048 7.82913C2.10974 7.56781 2.10938 7.2914 2.10938 6.9999V6.96788C2.10938 5.69312 2.10938 4.6944 2.21427 3.91486C2.32138 3.11765 2.54552 2.48828 3.03908 1.99416C3.5332 1.50005 4.16257 1.27645 4.96033 1.16935C5.73932 1.06445 6.73804 1.06445 8.0128 1.06445M5.0702 1.98974C4.36464 2.0847 3.93898 2.26579 3.62484 2.57992C3.31016 2.89461 3.12963 3.31971 3.03467 4.02583C2.9386 4.74354 2.9375 5.68649 2.9375 6.99935V7.46531L3.49014 6.98168C3.73254 6.76949 4.04654 6.65737 4.36852 6.66803C4.6905 6.67869 4.99639 6.81134 5.22423 7.0391L7.59267 9.40754C7.77646 9.59129 8.01918 9.70433 8.27811 9.72674C8.53703 9.74916 8.79557 9.67953 9.00821 9.5301L9.17273 9.41416C9.47951 9.19859 9.85036 9.09349 10.2246 9.11606C10.5989 9.13862 10.9544 9.28751 11.2331 9.53838L12.7955 10.9445C12.9534 10.6144 13.0467 10.1805 13.0964 9.56819C13.1505 8.90293 13.151 8.0737 13.151 6.99935C13.151 5.68649 13.1499 4.74354 13.0539 4.02583C12.9589 3.31971 12.7778 2.89406 12.4637 2.57937C12.149 2.26523 11.7239 2.0847 11.0178 1.98974C10.3001 1.89368 9.35713 1.89258 8.04427 1.89258C6.73142 1.89258 5.78791 1.89368 5.0702 1.98974Z"/>
</mask>
<path d="M11.1288 1.1699L10.9287 2.6565L10.929 2.65654L11.1288 1.1699ZM13.0495 1.99471L14.1101 0.934053L14.1095 0.933461L13.0495 1.99471ZM13.8743 3.91596L12.3876 4.11556L12.3877 4.11614L13.8743 3.91596ZM13.9218 9.63555L12.4267 9.51331L12.4267 9.51407L13.9218 9.63555ZM13.4828 11.4215L12.162 10.7106L12.1607 10.7131L13.4828 11.4215ZM11.1282 12.8299L10.9286 11.3432L10.928 11.3433L11.1282 12.8299ZM4.95978 12.8299L5.15982 11.3433L5.15951 11.3433L4.95978 12.8299ZM3.03908 12.0051L1.97842 13.0657L1.97902 13.0663L3.03908 12.0051ZM2.25513 10.3455L3.73217 10.0841L3.73173 10.0816L2.25513 10.3455ZM2.11048 7.82913L0.610483 7.83336L0.610493 7.83559L2.11048 7.82913ZM2.21427 3.91486L3.70087 4.1149L3.70091 4.11459L2.21427 3.91486ZM3.03908 1.99416L1.97842 0.933501L1.97783 0.934094L3.03908 1.99416ZM4.96033 1.16935L5.15993 2.65601L5.16051 2.65593L4.96033 1.16935ZM5.0702 1.98974L4.8712 0.503003L4.87012 0.503148L5.0702 1.98974ZM3.03467 4.02583L1.54805 3.82591L1.54792 3.82683L3.03467 4.02583ZM2.9375 7.46531H1.4375V10.7713L3.92534 8.5941L2.9375 7.46531ZM3.49014 6.98168L4.47797 8.11048L4.47813 8.11034L3.49014 6.98168ZM5.22423 7.0391L6.28489 5.97844L6.28472 5.97827L5.22423 7.0391ZM7.59267 9.40754L6.53201 10.4682L6.53211 10.4683L7.59267 9.40754ZM9.00821 9.5301L9.87066 10.7574L9.87227 10.7562L9.00821 9.5301ZM9.17273 9.41416L8.31033 8.18686L8.30867 8.18803L9.17273 9.41416ZM11.2331 9.53838L10.2295 10.6532L10.2297 10.6533L11.2331 9.53838ZM12.7955 10.9445L11.7921 12.0595L13.2832 13.4015L14.1487 11.5917L12.7955 10.9445ZM13.0964 9.56819L11.6013 9.4466L11.6013 9.44686L13.0964 9.56819ZM13.0539 4.02583L14.5406 3.82683L14.5405 3.82591L13.0539 4.02583ZM12.4637 2.57937L13.5253 1.51964L13.5234 1.51778L12.4637 2.57937ZM11.0178 1.98974L11.2177 0.503127L11.2168 0.503003L11.0178 1.98974ZM8.0128 2.56501H8.07574V-0.434995H8.0128V2.56501ZM8.07574 2.56501C9.39089 2.56501 10.272 2.56813 10.9287 2.6565L11.3288 -0.316701C10.4265 -0.438121 9.31011 -0.434995 8.07574 -0.434995V2.56501ZM10.929 2.65654C11.5595 2.74124 11.8201 2.88687 11.9894 3.05597L14.1095 0.933461C13.2906 0.115427 12.2925 -0.187232 11.3285 -0.316742L10.929 2.65654ZM11.9888 3.05537C12.1574 3.22399 12.3028 3.48366 12.3876 4.11556L15.3609 3.71637C15.2316 2.75275 14.9297 1.75366 14.1101 0.934053L11.9888 3.05537ZM12.3877 4.11614C12.476 4.77223 12.4792 5.6532 12.4792 6.96843H15.4792C15.4792 5.73414 15.4823 4.61767 15.3609 3.71579L12.3877 4.11614ZM12.4792 6.96843V7.01702H15.4792V6.96843H12.4792ZM12.4792 7.01702C12.4792 8.09325 12.478 8.88576 12.4267 9.51331L15.4168 9.75778C15.4803 8.98083 15.4792 8.04863 15.4792 7.01702H12.4792ZM12.4267 9.51407C12.3753 10.1469 12.2799 10.4916 12.162 10.7106L14.8036 12.1325C15.2136 11.371 15.3534 10.5376 15.4168 9.75702L12.4267 9.51407ZM12.1607 10.7131C12.1147 10.7989 12.0584 10.8748 11.9888 10.9444L14.1101 13.0657C14.3872 12.7886 14.6199 12.4755 14.805 12.13L12.1607 10.7131ZM11.9888 10.9444C11.8202 11.113 11.5605 11.2584 10.9286 11.3432L11.3278 14.3166C12.2914 14.1872 13.2905 13.8854 14.1101 13.0657L11.9888 10.9444ZM10.928 11.3433C10.2719 11.4317 9.39097 11.4348 8.07574 11.4348V14.4348C9.31003 14.4348 10.4265 14.4379 11.3284 14.3165L10.928 11.3433ZM8.07574 11.4348H8.0128V14.4348H8.07574V11.4348ZM8.0128 11.4348C6.69765 11.4348 5.81656 11.4317 5.15982 11.3433L4.75974 14.3165C5.66209 14.4379 6.77843 14.4348 8.0128 14.4348V11.4348ZM5.15951 11.3433C4.52908 11.2586 4.26843 11.1129 4.09915 10.9438L1.97902 13.0663C2.79796 13.8844 3.79607 14.187 4.76005 14.3165L5.15951 11.3433ZM4.09974 10.9444C3.94828 10.793 3.81833 10.5709 3.73217 10.0841L0.778083 10.607C0.931528 11.4739 1.25428 12.3416 1.97842 13.0657L4.09974 10.9444ZM3.73173 10.0816C3.63925 9.56415 3.61495 8.86364 3.61047 7.82267L0.610493 7.83559C0.614844 8.84617 0.633608 9.79858 0.778522 10.6094L3.73173 10.0816ZM3.61047 7.8249C3.60974 7.56514 3.60938 7.29015 3.60938 6.9999H0.609375C0.609375 7.29265 0.609745 7.57048 0.610485 7.83336L3.61047 7.8249ZM3.60938 6.9999V6.96788H0.609375V6.9999H3.60938ZM3.60938 6.96788C3.60938 5.65273 3.6125 4.77164 3.70087 4.1149L0.727669 3.71482C0.606249 4.61717 0.609375 5.73351 0.609375 6.96788H3.60938ZM3.70091 4.11459C3.78561 3.48416 3.93124 3.22351 4.10034 3.05423L1.97783 0.934094C1.1598 1.75304 0.857138 2.75115 0.727628 3.71513L3.70091 4.11459ZM4.09974 3.05482C4.26836 2.8862 4.52803 2.74085 5.15993 2.65601L4.76074 -0.317313C3.79712 -0.18794 2.79803 0.113891 1.97842 0.933501L4.09974 3.05482ZM5.16051 2.65593C5.8166 2.56759 6.69757 2.56445 8.0128 2.56445V-0.435547C6.77851 -0.435547 5.66205 -0.438679 4.76016 -0.317234L5.16051 2.65593ZM4.87012 0.503148C3.99675 0.620691 3.20269 0.880759 2.56418 1.51926L4.6855 3.64058C4.69443 3.63166 4.71033 3.61502 4.7724 3.58944C4.84899 3.55786 4.99637 3.5132 5.27027 3.47634L4.87012 0.503148ZM2.56418 1.51926C1.92485 2.15859 1.66551 2.95243 1.54805 3.82591L4.52128 4.22575C4.55822 3.95112 4.60282 3.80381 4.6343 3.7274C4.65969 3.66576 4.67619 3.6499 4.6855 3.64058L2.56418 1.51926ZM1.54792 3.82683C1.43544 4.66721 1.4375 5.72881 1.4375 6.99935H4.4375C4.4375 5.64417 4.44177 4.81986 4.52141 4.22482L1.54792 3.82683ZM1.4375 6.99935V7.46531H4.4375V6.99935H1.4375ZM3.92534 8.5941L4.47797 8.11048L2.5023 5.85289L1.94966 6.33651L3.92534 8.5941ZM4.47813 8.11034C4.43418 8.14881 4.37725 8.16914 4.31888 8.16721L4.41816 5.16885C3.71582 5.1456 3.0309 5.39017 2.50214 5.85302L4.47813 8.11034ZM4.31888 8.16721C4.26051 8.16527 4.20505 8.14123 4.16374 8.09993L6.28472 5.97827C5.78774 5.48145 5.12049 5.1921 4.41816 5.16885L4.31888 8.16721ZM4.16357 8.09976L6.53201 10.4682L8.65333 8.34688L6.28489 5.97844L4.16357 8.09976ZM6.53211 10.4683C6.96559 10.9017 7.53804 11.1683 8.14872 11.2212L8.4075 8.23234C8.50032 8.24037 8.58733 8.28089 8.65322 8.34677L6.53211 10.4683ZM8.14872 11.2212C8.75939 11.274 9.36914 11.1098 9.87066 10.7574L8.14576 8.30283C8.22199 8.24926 8.31468 8.2243 8.4075 8.23234L8.14872 11.2212ZM9.87227 10.7562L10.0368 10.6403L8.30867 8.18803L8.14415 8.30397L9.87227 10.7562ZM10.0351 10.6415C10.0641 10.6211 10.0991 10.6112 10.1344 10.6133L10.3149 7.61878C9.60168 7.57578 8.89496 7.77605 8.31033 8.18686L10.0351 10.6415ZM10.1344 10.6133C10.1697 10.6155 10.2032 10.6295 10.2295 10.6532L12.2367 8.42358C11.7057 7.94551 11.0281 7.66178 10.3149 7.61878L10.1344 10.6133ZM10.2297 10.6533L11.7921 12.0595L13.7989 9.82959L12.2366 8.42344L10.2297 10.6533ZM14.1487 11.5917C14.423 11.0183 14.5361 10.3714 14.5915 9.68953L11.6013 9.44686C11.5573 9.98947 11.4838 10.2105 11.4423 10.2974L14.1487 11.5917ZM14.5914 9.68978C14.6516 8.95009 14.651 8.051 14.651 6.99935H11.651C11.651 8.09641 11.6494 8.85578 11.6013 9.4466L14.5914 9.68978ZM14.651 6.99935C14.651 5.72881 14.6531 4.66721 14.5406 3.82683L11.5671 4.22482C11.6468 4.81986 11.651 5.64418 11.651 6.99935H14.651ZM14.5405 3.82591C14.4229 2.95166 14.1629 2.15834 13.5253 1.51964L11.4021 3.6391C11.4116 3.64859 11.4284 3.66493 11.4541 3.72719C11.4857 3.80399 11.5304 3.95156 11.5673 4.22575L14.5405 3.82591ZM13.5234 1.51778C12.8844 0.879851 12.0912 0.620596 11.2177 0.503127L10.8179 3.47636C11.0925 3.51329 11.24 3.55791 11.3166 3.58945C11.3785 3.61494 11.3946 3.63157 11.404 3.64096L13.5234 1.51778ZM11.2168 0.503003C10.3764 0.390521 9.31481 0.392578 8.04427 0.392578V3.39258C9.39945 3.39258 10.2238 3.39684 10.8188 3.47649L11.2168 0.503003ZM8.04427 0.392578C6.77376 0.392578 5.71159 0.390521 4.8712 0.503003L5.26919 3.47649C5.86422 3.39684 6.68907 3.39258 8.04427 3.39258V0.392578Z" fill="white" mask="url(#path-5-inside-2_1388_10991)"/>
</g>
<defs>
<clipPath id="clip0_1388_10991">
<rect width="7.17708" height="13.25" fill="white" transform="translate(0.320312 0.375)"/>
</clipPath>
<clipPath id="clip1_1388_10991">
<rect width="5.52083" height="13.25" fill="white" transform="matrix(-1 0 0 1 14.6719 0.375)"/>
</clipPath>
</defs>
</svg>
