<svg width="100%" height="100%" viewBox="0 0 375 557" fill="none" xmlns="http://www.w3.org/2000/svg">
<g clip-path="url(#clip0_833_410)">
<g clip-path="url(#clip1_833_410)">
<path d="M185.781 199.59C185.781 199.59 187.564 209.102 185.386 226.74C183.208 244.378 186.176 265.973 186.176 265.973L163.176 273.299C163.166 273.299 178.834 205.145 185.781 199.59Z" fill="#FFCB9D" stroke="#263238" stroke-miterlimit="10"/>
<path d="M171.108 185.331C171.108 185.331 169.72 177.013 172.293 171.265C174.876 165.518 180.618 156.997 183.201 158.778C185.783 160.559 183.403 166.702 183.403 166.702L172.1 186.91L171.108 185.331Z" fill="#7CFFD9" stroke="#263238" stroke-miterlimit="10"/>
<path d="M148.302 247.15C148.302 247.15 153.062 232.882 157.62 222.58C162.178 212.279 171.1 185.523 172.69 179.583C174.28 173.643 178.24 164.323 181.218 163.534C184.195 162.744 188.551 166.509 189.745 177.003C190.931 187.507 186.575 200.783 185.188 205.934C183.8 211.085 176.458 233.671 176.063 235.058C175.668 236.444 171.505 256.258 170.117 262.208C168.73 268.148 167.94 270.728 167.94 270.728L140.574 281.425L148.302 247.15Z" fill="#FFCB9D" stroke="#263238" stroke-miterlimit="10"/>
<path d="M226.435 254.478C226.435 254.478 220.884 243.974 214.737 239.613C208.589 235.252 206.209 237.235 206.604 241.201C206.999 245.168 208.194 248.528 208.194 248.528L227.822 259.224L226.435 254.478Z" fill="#7CFFD9" stroke="#263238" stroke-miterlimit="10"/>
<path d="M87.4219 560.811C87.4219 560.811 124.703 482.548 130.455 464.12C136.208 445.693 138.78 441.726 141.16 431.627C143.54 421.518 145.718 417.754 148.098 411.419C150.478 405.074 143.733 398.739 137.981 383.874C132.228 369.009 116.368 329.189 115.973 321.458C115.577 313.727 123.903 302.828 128.865 288.762C133.828 274.696 137.19 255.874 143.743 248.932C150.285 242.001 177.458 230.11 183.798 227.925C190.148 225.749 196.489 225.547 206.606 225.547C216.724 225.547 213.149 227.925 213.149 227.925C213.149 227.925 214.334 233.673 209.179 238.621C204.024 243.579 183.403 247.344 180.619 249.318C177.844 251.301 163.168 260.611 160.191 264.375C157.213 268.14 154.438 273.29 154.438 273.29L186.564 268.737C186.564 268.737 188.944 284.988 192.509 294.895C196.074 304.802 212.542 308.566 214.517 309.163C216.502 309.76 219.075 302.818 217.495 291.93C215.905 281.031 207.184 272.511 204.804 262.998C202.424 253.486 205.199 243.782 208.37 242.395C211.54 241.009 215.115 243.387 219.48 246.949C223.845 250.511 228.797 257.848 231.775 261.217C234.752 264.587 235.745 267.36 241.093 283.611C246.44 299.863 251.008 313.13 248.628 329.776C246.248 346.422 242.682 371.781 236.93 380.1C231.177 388.418 228.2 392.982 228.2 392.982C228.2 392.982 220.665 420.526 219.672 428.642C218.68 436.768 199.64 520.972 197.462 536.039C195.284 551.097 195.284 553.273 195.284 553.273" fill="#FFCB9D"/>
<path d="M87.4219 560.811C87.4219 560.811 124.703 482.548 130.455 464.12C136.208 445.693 138.78 441.726 141.16 431.627C143.54 421.518 145.718 417.754 148.098 411.419C150.478 405.074 143.733 398.739 137.981 383.874C132.228 369.009 116.368 329.189 115.973 321.458C115.577 313.727 123.903 302.828 128.865 288.762C133.828 274.696 137.19 255.874 143.743 248.932C150.285 242.001 177.458 230.11 183.798 227.925C190.148 225.749 196.489 225.547 206.606 225.547C216.724 225.547 213.149 227.925 213.149 227.925C213.149 227.925 214.334 233.673 209.179 238.621C204.024 243.579 183.403 247.344 180.619 249.318C177.844 251.301 163.168 260.611 160.191 264.375C157.213 268.14 154.438 273.29 154.438 273.29L186.564 268.737C186.564 268.737 188.944 284.988 192.509 294.895C196.074 304.802 212.542 308.566 214.517 309.163C216.502 309.76 219.075 302.818 217.495 291.93C215.905 281.031 207.184 272.511 204.804 262.998C202.424 253.486 205.199 243.782 208.37 242.395C211.54 241.009 215.115 243.387 219.48 246.949C223.845 250.511 228.797 257.848 231.775 261.217C234.752 264.587 235.745 267.36 241.093 283.611C246.44 299.863 251.008 313.13 248.628 329.776C246.248 346.422 242.682 371.781 236.93 380.1C231.177 388.418 228.2 392.982 228.2 392.982C228.2 392.982 220.665 420.526 219.672 428.642C218.68 436.768 199.64 520.972 197.462 536.039C195.284 551.097 195.284 553.273 195.284 553.273" stroke="#263238" stroke-miterlimit="10"/>
<path d="M182.836 355.288C182.836 355.288 200.961 372.753 201.616 383.747C202.262 394.742 197.733 398.622 197.733 398.622" stroke="#263238" stroke-miterlimit="10"/>
<path d="M144.724 311.54C153.646 305.195 154.244 295.289 154.244 295.289C154.244 295.289 163.957 287.558 167.136 285.584C170.307 283.601 188.354 280.828 194.502 276.669C200.649 272.509 203.03 265.77 203.03 265.77C203.03 265.77 202.239 263.19 199.464 262.4C196.689 261.611 178.246 262.4 173.881 263.787C169.516 265.173 152.066 270.324 145.919 272.904C139.771 275.484 137.391 281.03 133.421 287.172C129.451 293.315 122.908 305.003 121.328 309.364" fill="#FFCB9D"/>
<path d="M144.724 311.54C153.646 305.195 154.244 295.289 154.244 295.289C154.244 295.289 163.957 287.558 167.136 285.584C170.307 283.601 188.354 280.828 194.502 276.669C200.649 272.509 203.03 265.77 203.03 265.77C203.03 265.77 202.239 263.19 199.464 262.4C196.689 261.611 178.246 262.4 173.881 263.787C169.516 265.173 152.066 270.324 145.919 272.904C139.771 275.484 137.391 281.03 133.421 287.172C129.451 293.315 122.908 305.003 121.328 309.364" stroke="#263238" stroke-miterlimit="10"/>
<path d="M225.52 283.514C227.851 283.283 230.54 282.667 233.565 281.425" stroke="#263238" stroke-miterlimit="10"/>
<path d="M214.73 281.425C214.73 281.425 217.506 283.466 222.69 283.62" stroke="#263238" stroke-miterlimit="10"/>
<path d="M216.715 310.549C216.715 310.549 228.413 314.708 233.77 317.481C239.128 320.254 239.918 322.834 239.918 322.834" stroke="#263238" stroke-miterlimit="10"/>
<path d="M146.066 332.731C143.436 334.618 140.661 336.014 137.789 336.708" stroke="#263238" stroke-miterlimit="10"/>
<path d="M171.106 290.148C171.106 290.148 169.516 297.283 164.361 308.576C160.979 315.989 155.544 324.596 148.953 330.421" stroke="#263238" stroke-miterlimit="10"/>
<path d="M191.528 302.827C191.528 302.827 183.395 313.928 183 323.036" stroke="#263238" stroke-miterlimit="10"/>
<path d="M192.723 226.345C192.723 226.345 188.753 228.925 191.538 230.312C194.313 231.698 211.57 228.925 215.926 227.337C220.291 225.748 219.896 224.756 213.343 223.967C206.801 223.178 197.878 222.773 192.723 226.345Z" fill="#7CFFD9" stroke="#263238" stroke-miterlimit="10"/>
<path d="M193.714 260.822C193.714 260.822 182.209 263.594 183.201 265.375C184.194 267.157 189.744 267.956 195.892 267.956C202.039 267.956 210.172 266.175 210.172 266.175C210.172 266.175 211.559 262.805 210.769 262.208C209.969 261.611 204.419 258.838 193.714 260.822Z" fill="#7CFFD9" stroke="#263238" stroke-miterlimit="10"/>
<path d="M132.836 316.691C132.836 316.691 137.991 316.893 142.549 312.927" stroke="#263238" stroke-miterlimit="10"/>
<path d="M157.079 572.075C157.079 572.075 154.767 564.103 150.642 554.591C146.528 545.079 145.237 535.567 148.58 516.793C151.924 498.019 163.766 466.132 165.819 458.17C167.881 450.198 165.318 416.357 164.98 405.227C164.634 394.098 163.439 381.948 164.123 375.266C164.807 368.594 169.095 366.024 169.095 366.024C169.095 366.024 170.974 361.999 177.921 366.37C177.921 366.37 172.776 350.687 176.379 344.775C179.983 338.864 183.587 338.864 186.42 340.404C189.253 341.945 190.534 344.265 190.534 344.265C190.534 344.265 185.9 331.152 191.565 327.551C197.231 323.951 202.117 325.241 208.293 333.212C214.47 341.184 224.51 364.579 229.135 375.642C233.77 386.694 238.145 405.988 238.145 405.988C238.145 405.988 237.114 385.934 234.281 372.561C231.448 359.188 226.562 347.875 226.813 341.444C227.073 335.013 232.729 330.902 236.333 332.442C239.937 333.983 244.572 338.874 247.655 345.555C250.748 352.237 259.237 376.922 261.299 389.014C263.361 401.097 264.643 432.474 263.872 449.438C263.101 466.411 252.29 486.726 245.853 496.498C239.416 506.27 228.865 515.272 227.834 536.096C226.803 556.921 235.302 570.814 235.302 570.814" fill="#FFCB9D"/>
<path d="M157.079 572.075C157.079 572.075 154.767 564.103 150.642 554.591C146.528 545.079 145.237 535.567 148.58 516.793C151.924 498.019 163.766 466.132 165.819 458.17C167.881 450.198 165.318 416.357 164.98 405.227C164.634 394.098 163.439 381.948 164.123 375.266C164.807 368.594 169.095 366.024 169.095 366.024C169.095 366.024 170.974 361.999 177.921 366.37C177.921 366.37 172.776 350.687 176.379 344.775C179.983 338.864 183.587 338.864 186.42 340.404C189.253 341.945 190.534 344.265 190.534 344.265C190.534 344.265 185.9 331.152 191.565 327.551C197.231 323.951 202.117 325.241 208.293 333.212C214.47 341.184 224.51 364.579 229.135 375.642C233.77 386.694 238.145 405.988 238.145 405.988C238.145 405.988 237.114 385.934 234.281 372.561C231.448 359.188 226.562 347.875 226.813 341.444C227.073 335.013 232.729 330.902 236.333 332.442C239.937 333.983 244.572 338.874 247.655 345.555C250.748 352.237 259.237 376.922 261.299 389.014C263.361 401.097 264.643 432.474 263.872 449.438C263.101 466.411 252.29 486.726 245.853 496.498C239.416 506.27 228.865 515.272 227.834 536.096C226.803 556.921 235.302 570.814 235.302 570.814" stroke="#263238" stroke-miterlimit="10"/>
<path d="M238.145 405.959C238.145 405.959 241.488 429.104 241.748 438.106" stroke="#263238" stroke-miterlimit="10"/>
<path d="M190.535 344.246C190.535 344.246 196.201 350.417 205.721 382.304C215.241 414.191 218.074 449.159 218.074 449.159" fill="#FFCB9D"/>
<path d="M190.535 344.246C190.535 344.246 196.201 350.417 205.721 382.304C215.241 414.191 218.074 449.159 218.074 449.159" stroke="#263238" stroke-miterlimit="10"/>
<path d="M191.875 445.239C192.607 451.998 193.108 455.839 193.108 455.839L191.875 445.239Z" fill="white"/>
<path d="M191.875 445.239C192.607 451.998 193.108 455.839 193.108 455.839" stroke="#263238" stroke-miterlimit="10"/>
<path d="M177.93 366.36C177.93 366.36 182.044 368.161 183.596 379.993C184.993 390.67 189.319 422.73 190.909 436.238" fill="#FFCB9D"/>
<path d="M177.93 366.36C177.93 366.36 182.044 368.161 183.596 379.993C184.993 390.67 189.319 422.73 190.909 436.238" stroke="#263238" stroke-miterlimit="10"/>
<path d="M246.902 465.872C246.902 465.872 247.412 470.243 241.496 478.215" stroke="#263238" stroke-miterlimit="10"/>
<path d="M220.646 476.415C220.646 476.415 219.355 484.897 211.637 489.528" stroke="#263238" stroke-miterlimit="10"/>
<path d="M192.084 482.846C192.084 482.846 188.74 487.727 185.137 489.277" stroke="#263238" stroke-miterlimit="10"/>
<path d="M166.879 359.004C166.879 359.004 168.074 373.215 168.247 377.836C168.421 382.457 172.188 383.487 175.272 382.12C178.355 380.753 179.213 377.499 177.844 372.358C176.476 367.217 174.25 359.351 173.046 357.81C171.851 356.26 167.563 357.627 166.879 359.004Z" fill="#7CFFD9" stroke="#263238" stroke-miterlimit="10"/>
<path d="M183.665 333.492C183.665 333.492 181.613 331.604 179.04 331.604C176.467 331.604 174.926 334.512 175.099 335.369C175.273 336.226 178.356 347.355 180.929 350.946C183.502 354.538 185.381 356.251 187.096 355.914C188.811 355.568 193.089 355.057 193.089 353.69C193.089 352.323 190.526 342.907 183.665 333.492Z" fill="#7CFFD9" stroke="#263238" stroke-miterlimit="10"/>
<path d="M189.84 322.709C189.84 322.709 190.697 329.217 192.413 332.635C194.128 336.062 196.18 340.51 199.784 341.021C203.378 341.531 208.177 339.134 208.35 337.94C208.524 336.746 199.784 321.852 197.038 319.792C194.292 317.741 189.84 319.455 189.84 322.709Z" fill="#7CFFD9" stroke="#263238" stroke-miterlimit="10"/>
<path d="M244.322 344.958C244.322 344.958 241.749 333.655 238.155 329.034C234.561 324.413 231.478 323.729 229.242 326.637C227.016 329.544 230.1 335.022 231.131 337.94C232.162 340.847 232.673 344.958 235.072 346.325C237.471 347.702 242.78 348.896 244.322 344.958Z" fill="#7CFFD9" stroke="#263238" stroke-miterlimit="10"/>
<path d="M119.241 236.763C124.864 235.407 128.322 229.753 126.965 224.134C125.608 218.516 119.95 215.06 114.326 216.416C108.703 217.772 105.245 223.426 106.602 229.044C107.959 234.663 113.618 238.118 119.241 236.763Z" fill="#7CFFD9"/>
<path d="M191.939 157.932C197.724 157.932 202.413 153.246 202.413 147.466C202.413 141.686 197.724 137.001 191.939 137.001C186.154 137.001 181.465 141.686 181.465 147.466C181.465 153.246 186.154 157.932 191.939 157.932Z" fill="#7CFFD9"/>
<path d="M251.007 274.828C254.763 273.945 257.091 270.188 256.208 266.435C255.324 262.683 251.563 260.357 247.808 261.239C244.052 262.122 241.724 265.88 242.608 269.632C243.491 273.385 247.252 275.711 251.007 274.828Z" fill="#7CFFD9"/>
<path d="M271.577 374.111C275.332 373.223 277.654 369.462 276.765 365.71C275.875 361.959 272.111 359.638 268.357 360.527C264.602 361.415 262.28 365.177 263.169 368.928C264.058 372.679 267.823 375 271.577 374.111Z" fill="#7CFFD9"/>
<path d="M105.209 292.362C107.828 289.532 107.654 285.116 104.821 282.499C101.988 279.882 97.568 280.056 94.9491 282.886C92.3301 285.717 92.5037 290.133 95.3368 292.75C98.1699 295.367 102.59 295.193 105.209 292.362Z" fill="#7CFFD9"/>
<path d="M250.47 407.182C254.328 407.182 257.456 404.057 257.456 400.202C257.456 396.347 254.328 393.222 250.47 393.222C246.612 393.222 243.484 396.347 243.484 400.202C243.484 404.057 246.612 407.182 250.47 407.182Z" fill="#7CFFD9"/>
<path d="M201.787 170.486C205.59 169.871 208.173 166.288 207.557 162.483C206.94 158.677 203.357 156.091 199.554 156.706C195.751 157.322 193.168 160.905 193.784 164.71C194.401 168.516 197.984 171.102 201.787 170.486Z" fill="#7CFFD9"/>
<path d="M117.987 408.17C121.742 407.281 124.064 403.52 123.175 399.769C122.286 396.018 118.521 393.697 114.767 394.585C111.012 395.474 108.69 399.235 109.579 402.987C110.468 406.738 114.233 409.059 117.987 408.17Z" fill="#92E3A9"/>
<path d="M262.359 267.205C268.596 267.205 273.653 262.153 273.653 255.921C273.653 249.69 268.596 244.638 262.359 244.638C256.122 244.638 251.066 249.69 251.066 255.921C251.066 262.153 256.122 267.205 262.359 267.205Z" fill="#7CFFD9"/>
<path d="M217.359 389.082C223.596 389.082 228.653 384.03 228.653 377.798C228.653 371.566 223.596 366.515 217.359 366.515C211.122 366.515 206.066 371.566 206.066 377.798C206.066 384.03 211.122 389.082 217.359 389.082Z" fill="#7CFFD9"/>
<path d="M41 294.001L45.7148 308.512H60.9722L48.6287 317.48L53.3435 331.99L41 323.022L28.6565 331.99L33.3713 317.48L21.0278 308.512H36.2852L41 294.001Z" fill="#FFD048"/>
</g>
<circle cx="-71" cy="-33.999" r="172.5" stroke="white" stroke-opacity="0.4" stroke-width="3"/>
<circle cx="-21" cy="-3.99902" r="172.5" stroke="white" stroke-opacity="0.4" stroke-width="3"/>
<circle cx="-1" cy="26.001" r="172.5" stroke="white" stroke-opacity="0.4" stroke-width="3"/>
<path opacity="0.1" d="M397.617 149.902L218.141 -29.5434C249.011 -60.5 295.188 -74.485 340.574 -62.2304C408.15 -43.9844 448.381 25.5224 430.435 93.0155C424.49 115.375 412.907 134.707 397.617 149.902Z" fill="url(#paint0_linear_833_410)" stroke="url(#paint1_linear_833_410)"/>
<path opacity="0.1" d="M291.299 74.3224L111.945 -103.832" stroke="white"/>
<path opacity="0.1" fill-rule="evenodd" clip-rule="evenodd" d="M467.242 220.222C436.251 251.547 389.713 265.742 343.975 253.392C276.133 235.074 235.742 165.294 253.759 97.5324C259.773 74.9135 271.535 55.3789 287.061 40.071L467.242 220.222Z" fill="url(#paint2_linear_833_410)"/>
<path d="M302 98.001L306.715 112.512L321.972 112.512L309.629 121.48L314.343 135.99L302 127.022L289.657 135.99L294.371 121.48L282.028 112.512H297.285L302 98.001Z" fill="#FFD048"/>
</g>
<defs>
<linearGradient id="paint0_linear_833_410" x1="217.727" y1="-29.6367" x2="398.367" y2="149.62" gradientUnits="userSpaceOnUse">
<stop stop-color="white" stop-opacity="0.9"/>
<stop offset="1" stop-color="white" stop-opacity="0.1"/>
</linearGradient>
<linearGradient id="paint1_linear_833_410" x1="217.727" y1="-29.6367" x2="398.367" y2="149.62" gradientUnits="userSpaceOnUse">
<stop stop-color="white" stop-opacity="0.9"/>
<stop offset="1" stop-color="white" stop-opacity="0.5"/>
</linearGradient>
<linearGradient id="paint2_linear_833_410" x1="283.554" y1="42.9591" x2="464.193" y2="222.216" gradientUnits="userSpaceOnUse">
<stop stop-color="white" stop-opacity="0.1"/>
<stop offset="1" stop-color="white" stop-opacity="0.9"/>
</linearGradient>
<clipPath id="clip0_833_410">
<rect width="375" height="557" fill="white"/>
</clipPath>
<clipPath id="clip1_833_410">
<rect width="428" height="420" fill="white" transform="translate(-26 137.001)"/>
</clipPath>
</defs>
</svg>