<svg width="100%" height="100%" viewBox="-20 0 420 621" fill="none" xmlns="http://www.w3.org/2000/svg">
<path d="M0 0H375V558C375 592.794 346.794 621 312 621H63C28.2061 621 0 592.794 0 558V0Z" fill="none"/>
<path d="M328.5 516.125L331.278 524.676H340.269L332.995 529.961L335.774 538.512L328.5 533.227L321.226 538.512L324.005 529.961L316.731 524.676H325.722L328.5 516.125Z" fill="#FFD048"/>
<path d="M75.5 211.625L77.4918 222.37L85.4189 214.848L80.7147 224.711L91.5491 223.285L81.9457 228.5L91.5491 233.715L80.7147 232.289L85.4189 242.152L77.4918 234.63L75.5 245.375L73.5082 234.63L65.5811 242.152L70.2853 232.289L59.4509 233.715L69.0543 228.5L59.4509 223.285L70.2853 224.711L65.5811 214.848L73.5082 222.37L75.5 211.625Z" fill="#FFD048"/>
<path opacity="0.2" d="M308.24 172.036C320.453 184.04 314.39 204.531 319.248 220.882C328.291 251.383 371.1 258.807 386.603 286.68C394.785 301.386 393.671 320.166 385.649 334.886C377.655 349.615 363.462 360.428 347.774 366.551C337.398 370.6 324.457 374.71 322.304 385.558C321.554 389.424 322.434 393.402 322.686 397.355C323.845 415.017 311.555 431.493 295.85 439.8C280.145 448.108 261.681 449.573 243.863 448.969C228.2 448.439 212.617 446.465 197.312 443.081C188.903 441.203 180.364 438.891 171.777 439.594C163.19 440.298 155.129 444.023 146.612 445.44C126.274 448.842 106.259 439.028 88.0002 429.398C64.4902 417.031 41.0148 404.466 18.8406 389.865C10.5195 384.384 2.17612 378.416 -3.10539 370.028C-8.3869 361.64 -9.94807 350.208 -4.43448 342.049C0.207953 335.165 8.59209 332.025 15.8959 328.022C23.1998 324.019 30.5087 317.407 29.9746 309.131C29.3461 299.384 18.797 293.865 12.3508 286.446C5.49114 278.533 3.12434 267.527 3.85438 257.144C4.58443 246.761 8.14587 236.794 11.9462 227.114C15.3011 218.519 19.0277 209.806 25.4636 203.179C37.7494 190.513 57.5963 188.06 75.0721 191.193C89.224 193.749 96.231 195.47 107.984 184.339C122.245 170.819 134.027 154.507 150.18 143.255C166.333 132.003 189.221 126.824 205.691 137.85C216.052 144.777 221.919 156.747 231.641 164.516C242.728 173.392 253.731 174.468 266.075 169.773C279.099 164.759 296.805 160.796 308.24 172.036Z" fill="#F6F6F6"/>
<path d="M39.5234 431.984V450.373H43.7693C43.7693 450.373 43.366 446.713 43.7693 444.541C44.1726 442.37 48.7851 436.781 48.6458 431.984H39.5234Z" fill="#9B4B03"/>
<path d="M73.4922 431.984V450.373H77.738C77.738 450.373 77.3347 446.713 77.738 444.541C78.1413 442.37 82.7538 436.781 82.6145 431.984H73.4922Z" fill="#9B4B03"/>
<path d="M106.727 431.984V450.373H102.481C102.481 450.373 102.884 446.713 102.481 444.541C102.078 442.37 97.4653 436.781 97.6047 431.984H106.727Z" fill="#9B4B03"/>
<path d="M136.125 431.984V450.373H131.88C131.88 450.373 132.283 446.713 131.88 444.541C131.476 442.37 126.864 436.781 127.003 431.984H136.125Z" fill="#9B4B03"/>
<path d="M138.357 341.21H36.6328V432.579H138.357V341.21Z" fill="#FFCB9D"/>
<path d="M110.953 341.21L111.708 432.579H138.357V341.21H110.953Z" fill="#FFDDBF"/>
<path d="M106.519 347.928H41.2109V371.179H106.519V347.928Z" fill="#9B4B03"/>
<path d="M106.519 375.814H41.2109V399.066H106.519V375.814Z" fill="#9B4B03"/>
<path d="M106.519 403.701H41.2109V426.952H106.519V403.701Z" fill="#9B4B03"/>
<path d="M66.2456 314.951L63.4297 341.099H99.523L102.515 314.951H66.2456Z" fill="#E0E0E0"/>
<path d="M67.7348 316.836L64.9922 339.713H97.5656L100.198 316.836H67.7348Z" fill="white"/>
<path d="M73.21 320.68L71.5234 335.863H92.078L93.134 320.68H73.21Z" fill="#9D9D9D"/>
<path d="M101.225 326.218L108.682 341.21L99.5234 341.1L101.225 326.218Z" fill="#EBEBEB"/>
<path d="M76.2499 360.771C76.2499 362.091 75.1793 363.162 73.8593 363.162C72.5394 363.162 71.4688 362.091 71.4688 360.771C71.4688 359.451 72.5394 358.38 73.8593 358.38C75.1793 358.38 76.2499 359.451 76.2499 360.771Z" fill="#E0E0E0"/>
<path d="M76.2499 388.929C76.2499 390.249 75.1793 391.32 73.8593 391.32C72.5394 391.32 71.4688 390.249 71.4688 388.929C71.4688 387.609 72.5394 386.538 73.8593 386.538C75.1793 386.545 76.2499 387.609 76.2499 388.929Z" fill="#E0E0E0"/>
<path d="M76.2499 417.094C76.2499 418.415 75.1793 419.485 73.8593 419.485C72.5394 419.485 71.4688 418.415 71.4688 417.094C71.4688 415.774 72.5394 414.703 73.8593 414.703C75.1793 414.703 76.2499 415.774 76.2499 417.094Z" fill="#E0E0E0"/>
<path d="M106.409 192.681L48.7344 192.116L50.3476 267.304L108.015 267.517L106.409 192.681Z" fill="#FF7100"/>
<path d="M102.691 196.033L52.2031 194.72L53.6624 262.911L104.136 263.527L102.691 196.033Z" fill="#FAFAFA"/>
<path d="M94.0755 206.221L60.5781 205.663L61.5974 253.324L95.0655 252.605L94.0755 206.221Z" fill="#FFCBA2"/>
<path d="M61.5974 253.324L94.5448 228.122L60.5781 205.663L61.5974 253.324Z" fill="#FF7100"/>
<path d="M297.918 401.479C297.706 402.124 305.252 430.817 305.252 430.817L310.429 429.739L303.308 401.479H297.918Z" fill="#199A8E"/>
<path d="M338.034 397.378L327.68 430.817H333.722L343.644 399.747L338.034 397.378Z" fill="#FF7100"/>
<path d="M347.529 392.2L335.664 430.818H341.706L353.139 394.569L347.529 392.2Z" fill="#FF0000"/>
<path d="M301.586 428.44L307.628 449.366H338.039L343.648 428.44H301.586Z" fill="#FFBE00"/>
<path d="M317.278 428.441C317.271 428.441 317.249 428.367 317.212 428.228C317.168 428.067 317.117 427.854 317.051 427.59C316.912 427.003 316.714 426.174 316.464 425.118C315.966 422.94 315.255 419.83 314.375 415.979C312.637 408.212 310.231 397.481 307.547 385.503L307.731 385.65C306.88 385.65 305.964 385.65 305.047 385.65C304.145 385.65 303.243 385.65 302.407 385.65L302.59 385.415C305.289 397.408 307.709 408.146 309.454 415.913C310.305 419.771 310.994 422.896 311.478 425.074C311.705 426.138 311.881 426.966 312.006 427.561C312.057 427.832 312.101 428.045 312.138 428.206C312.167 428.353 312.175 428.426 312.167 428.426C312.16 428.426 312.138 428.353 312.101 428.213C312.057 428.052 312.006 427.839 311.94 427.575C311.801 426.988 311.595 426.16 311.346 425.103C310.84 422.925 310.107 419.815 309.212 415.964C307.43 408.197 304.974 397.466 302.231 385.489L302.18 385.254H302.422C303.258 385.254 304.16 385.254 305.062 385.254C305.978 385.254 306.895 385.254 307.745 385.254H307.899L307.929 385.401C310.569 397.393 312.93 408.131 314.639 415.898C315.467 419.756 316.142 422.881 316.611 425.059C316.831 426.123 317.007 426.952 317.124 427.546C317.176 427.817 317.22 428.03 317.249 428.191C317.271 428.367 317.278 428.441 317.278 428.441Z" fill="#199A8E"/>
<path d="M346.988 450.247C346.988 450.35 277.368 450.438 191.505 450.438C105.605 450.438 36 450.35 36 450.247C36 450.145 105.605 450.057 191.505 450.057C277.368 450.057 346.988 450.137 346.988 450.247Z" fill="#263238"/>
<path d="M326.967 250.046C326.967 250.046 326.799 249.965 326.447 249.885C326.095 249.804 325.545 249.753 324.855 249.907C324.166 250.061 323.352 250.435 322.546 251.095C321.724 251.748 320.962 252.701 320.199 253.831C318.696 256.134 317.515 259.317 316.136 263.028C314.78 266.747 313.262 271.045 312.001 275.96L311.993 275.974L311.986 275.982C311.766 276.378 311.487 276.737 311.128 277.038C310.776 277.324 310.292 277.559 309.793 277.463C309.302 277.383 308.906 277.06 308.569 276.752C308.224 276.436 307.901 276.099 307.579 275.754C306.933 275.072 306.288 274.375 305.547 273.774C304.814 273.194 303.934 272.63 302.981 272.725C302.05 272.842 301.162 273.473 300.627 274.295C300.092 275.138 299.864 276.172 299.813 277.206C299.688 279.304 300.297 281.424 300.664 283.617C301.074 285.81 301.492 288.055 301.918 290.358C302.13 291.509 302.35 292.668 302.563 293.842C302.673 294.428 302.783 295.023 302.893 295.609C303.025 296.174 303.098 296.908 302.68 297.487C302.475 297.795 302.035 297.912 301.705 297.817C301.368 297.736 301.089 297.546 300.84 297.362C300.348 296.996 299.85 296.622 299.351 296.247C298.354 295.507 297.334 294.788 296.242 294.157C295.157 293.534 294.005 292.961 292.766 292.712C292.15 292.587 291.512 292.565 290.918 292.727C290.324 292.881 289.789 293.24 289.415 293.739C288.652 294.744 288.447 296.101 288.425 297.406C288.403 298.727 288.571 300.054 288.806 301.382C289.297 304.037 290.097 306.67 291.043 309.289C291.263 309.949 291.585 310.572 291.681 311.328C291.725 311.694 291.681 312.134 291.409 312.457C291.343 312.538 291.277 312.611 291.197 312.67C291.101 312.736 291.079 312.787 290.911 312.839C290.617 312.905 290.441 312.78 290.273 312.699C289.62 312.318 289.114 311.826 288.579 311.35C288.058 310.866 287.53 310.381 287.01 309.89C285.961 308.922 284.883 307.961 283.673 307.206C283.072 306.831 282.426 306.501 281.752 306.333C281.077 306.142 280.351 306.201 279.794 306.575C279.229 306.956 278.855 307.587 278.687 308.276C278.503 308.966 278.43 309.692 278.423 310.425C278.415 311.885 278.62 313.359 278.972 314.804C279.64 317.709 280.798 320.518 282.155 323.232C283.512 325.953 285.14 328.579 286.9 331.117C287.735 332.422 288.784 333.581 289.759 334.806C290.749 336.016 291.739 337.234 292.737 338.459L292.773 338.503L292.597 338.437C294.159 338.209 295.714 337.982 297.261 337.762C298.801 337.513 300.37 337.381 301.859 336.97C304.873 336.28 307.843 335.422 310.681 334.322C313.511 333.222 316.261 331.924 318.71 330.222C319.942 329.386 321.094 328.44 322.069 327.347C322.56 326.804 322.986 326.217 323.323 325.579C323.66 324.956 323.807 324.237 323.645 323.577C323.477 322.924 322.986 322.388 322.362 322.073C321.746 321.743 321.05 321.552 320.346 321.428C318.938 321.171 317.5 321.163 316.07 321.171C315.352 321.178 314.64 321.186 313.929 321.193C313.211 321.178 312.507 321.208 311.766 321.053C311.59 321.002 311.37 320.973 311.201 320.731C311.106 320.577 311.128 320.525 311.106 320.415C311.091 320.32 311.084 320.217 311.091 320.115C311.113 319.697 311.37 319.337 311.649 319.095C312.228 318.604 312.895 318.354 313.497 318.017C315.953 316.711 318.322 315.303 320.47 313.667C321.541 312.846 322.56 311.973 323.425 310.983C324.283 310.007 325.046 308.863 325.156 307.602C325.215 306.978 325.053 306.355 324.716 305.841C324.379 305.32 323.895 304.91 323.352 304.587C322.267 303.942 321.028 303.589 319.803 303.325C318.571 303.061 317.332 302.907 316.1 302.783C315.476 302.724 314.86 302.665 314.252 302.607C313.944 302.57 313.607 302.526 313.306 302.357C312.998 302.203 312.756 301.807 312.815 301.448C312.903 300.744 313.445 300.252 313.929 299.922C314.413 299.555 314.89 299.196 315.366 298.829C316.32 298.11 317.258 297.392 318.19 296.688C320.052 295.272 321.871 293.893 323.645 292.543C325.398 291.164 327.268 290.006 328.581 288.37C329.241 287.57 329.769 286.654 329.937 285.671C330.091 284.703 329.857 283.639 329.248 282.928C328.94 282.568 328.5 282.355 328.045 282.209C327.591 282.055 327.114 282.011 326.637 281.974C325.684 281.93 324.731 282.003 323.799 282.077C323.33 282.113 322.868 282.143 322.399 282.15C321.944 282.15 321.431 282.121 321.013 281.849C320.58 281.585 320.382 281.087 320.316 280.639C320.258 280.177 320.294 279.722 320.397 279.282V279.268L320.404 279.253C322.773 274.779 324.533 270.583 326.029 266.923C327.503 263.256 328.764 260.109 329.219 257.403C329.424 256.06 329.519 254.843 329.365 253.809C329.226 252.775 328.903 251.946 328.515 251.359C328.126 250.772 327.686 250.427 327.378 250.251C327.07 250.068 326.887 250.017 326.887 250.017C326.887 250.017 327.07 250.053 327.393 250.229C327.708 250.398 328.163 250.735 328.566 251.33C328.977 251.916 329.307 252.76 329.461 253.801C329.629 254.843 329.541 256.075 329.343 257.432C328.903 260.161 327.657 263.322 326.197 266.997C324.716 270.671 322.971 274.867 320.61 279.37L320.617 279.341C320.522 279.744 320.492 280.184 320.551 280.602C320.617 281.013 320.793 281.431 321.152 281.651C321.504 281.879 321.952 281.915 322.406 281.908C322.861 281.901 323.323 281.864 323.785 281.827C324.716 281.754 325.677 281.673 326.652 281.717C327.143 281.754 327.642 281.798 328.126 281.959C328.603 282.106 329.094 282.341 329.446 282.744C330.135 283.551 330.363 284.659 330.209 285.707C330.033 286.764 329.483 287.717 328.801 288.546C327.444 290.233 325.559 291.407 323.821 292.785C322.047 294.135 320.236 295.521 318.373 296.937C317.442 297.648 316.503 298.36 315.557 299.086C315.08 299.445 314.604 299.812 314.127 300.179C313.878 300.37 313.651 300.531 313.475 300.751C313.306 300.971 313.159 301.228 313.137 301.484C313.108 301.741 313.24 301.954 313.467 302.086C313.702 302.218 313.988 302.262 314.296 302.299C314.904 302.357 315.52 302.416 316.144 302.475C317.383 302.592 318.637 302.753 319.891 303.017C321.138 303.289 322.399 303.641 323.543 304.316C324.107 304.653 324.643 305.093 325.017 305.673C325.398 306.245 325.574 306.956 325.508 307.646C325.383 309.039 324.577 310.22 323.697 311.225C322.802 312.244 321.776 313.132 320.69 313.961C318.52 315.611 316.144 317.034 313.673 318.347C313.064 318.692 312.389 318.948 311.898 319.381C311.656 319.594 311.473 319.858 311.458 320.151C311.451 320.225 311.458 320.298 311.465 320.379C311.473 320.437 311.495 320.577 311.517 320.562C311.539 320.613 311.707 320.687 311.861 320.716C312.507 320.855 313.233 320.841 313.937 320.848C314.648 320.841 315.359 320.833 316.078 320.826C317.508 320.819 318.967 320.826 320.419 321.083C321.145 321.215 321.871 321.413 322.546 321.765C323.22 322.102 323.821 322.718 324.019 323.503C324.21 324.273 324.027 325.095 323.667 325.762C323.315 326.437 322.868 327.053 322.362 327.611C321.358 328.733 320.192 329.701 318.938 330.545C316.459 332.268 313.687 333.581 310.835 334.689C307.975 335.796 304.998 336.654 301.962 337.351C300.451 337.762 298.889 337.901 297.342 338.151C295.795 338.378 294.233 338.605 292.671 338.833L292.561 338.848L292.495 338.767L292.458 338.723C291.461 337.498 290.463 336.28 289.473 335.07C288.498 333.845 287.45 332.686 286.606 331.366C284.824 328.806 283.204 326.173 281.832 323.43C280.468 320.687 279.295 317.863 278.62 314.914C278.269 313.447 278.049 311.951 278.063 310.44C278.071 309.692 278.144 308.937 278.342 308.196C278.525 307.462 278.943 306.729 279.603 306.289C280.27 305.841 281.136 305.79 281.862 305.995C282.602 306.186 283.27 306.531 283.893 306.919C285.14 307.704 286.225 308.68 287.281 309.648C287.809 310.132 288.329 310.623 288.85 311.108C289.378 311.577 289.899 312.076 290.471 312.406C290.603 312.487 290.779 312.545 290.83 312.516C290.837 312.538 290.947 312.45 290.991 312.413C291.05 312.362 291.109 312.31 291.153 312.252C291.343 312.024 291.387 311.709 291.351 311.386C291.277 310.741 290.955 310.095 290.727 309.428C289.781 306.795 288.982 304.147 288.483 301.462C288.241 300.12 288.073 298.771 288.095 297.421C288.124 296.086 288.322 294.67 289.158 293.556C289.569 293.005 290.177 292.595 290.845 292.426C291.512 292.25 292.201 292.279 292.847 292.411C294.145 292.683 295.318 293.262 296.425 293.9C297.525 294.546 298.559 295.272 299.564 296.02C300.062 296.394 300.554 296.761 301.045 297.135C301.287 297.318 301.536 297.472 301.8 297.538C302.057 297.597 302.306 297.531 302.453 297.326C302.607 297.128 302.68 296.834 302.702 296.556C302.724 296.277 302.666 295.998 302.607 295.69C302.497 295.096 302.387 294.509 302.277 293.922C302.057 292.749 301.844 291.59 301.632 290.438C301.206 288.143 300.796 285.898 300.392 283.705C300.033 281.519 299.424 279.378 299.549 277.221C299.6 276.158 299.835 275.079 300.414 274.177C301.008 273.297 301.918 272.63 302.974 272.49C303.502 272.424 304.022 272.578 304.477 272.791C304.946 272.996 305.342 273.304 305.731 273.605C306.486 274.229 307.139 274.933 307.784 275.615C308.107 275.952 308.422 276.29 308.752 276.605C309.089 276.913 309.441 277.192 309.852 277.258C310.263 277.339 310.673 277.148 311.003 276.884C311.326 276.612 311.597 276.26 311.803 275.901L311.795 275.93C313.079 271.001 314.611 266.711 315.99 262.992C317.383 259.288 318.593 256.097 320.118 253.787C320.896 252.65 321.673 251.696 322.509 251.044C323.337 250.391 324.166 250.009 324.87 249.87C325.574 249.723 326.131 249.782 326.483 249.877C326.806 249.951 326.967 250.046 326.967 250.046Z" fill="#FF7100"/>
<path d="M323.122 260.029C323.129 260.029 323.1 260.109 323.048 260.271C322.982 260.447 322.902 260.674 322.799 260.96C322.557 261.584 322.22 262.471 321.794 263.601C320.907 265.911 319.631 269.212 318.062 273.29C314.938 281.498 310.634 292.808 305.882 305.299C301.145 317.812 296.811 329.115 293.591 337.271C291.986 341.349 290.673 344.642 289.749 346.916C289.287 348.031 288.928 348.904 288.678 349.527C288.561 349.806 288.466 350.033 288.392 350.202C288.326 350.356 288.29 350.429 288.282 350.429C288.275 350.429 288.304 350.349 288.356 350.187C288.422 350.011 288.502 349.784 288.605 349.498C288.847 348.874 289.184 347.987 289.61 346.865C290.497 344.554 291.773 341.254 293.342 337.175C296.466 328.968 300.771 317.658 305.522 305.167C310.26 292.661 314.593 281.351 317.805 273.195C319.411 269.116 320.724 265.823 321.648 263.549C322.11 262.435 322.469 261.554 322.718 260.938C322.836 260.66 322.931 260.432 323.004 260.263C323.078 260.102 323.114 260.021 323.122 260.029Z" fill="#FF7100"/>
<path d="M323.514 285.34C323.536 285.392 322.832 285.795 321.681 286.433C320.427 287.13 318.887 287.988 317.186 288.934C315.433 289.91 313.834 290.783 312.654 291.369C311.473 291.964 310.718 292.272 310.696 292.22C310.674 292.169 311.385 291.78 312.529 291.127C313.783 290.416 315.316 289.55 317.002 288.597C318.755 287.621 320.368 286.771 321.556 286.191C322.744 285.612 323.492 285.289 323.514 285.34Z" fill="#FF7100"/>
<path d="M310.103 291.773C310.008 291.817 308.263 288.495 306.21 284.336C304.156 280.185 302.565 276.781 302.66 276.73C302.756 276.686 304.501 280.009 306.554 284.167C308.607 288.326 310.199 291.729 310.103 291.773Z" fill="#FF7100"/>
<path d="M303.689 311.313C303.652 311.349 303.029 310.792 302.076 309.846C301.122 308.892 299.846 307.535 298.519 305.966C297.192 304.396 296.062 302.914 295.285 301.814C294.508 300.714 294.061 300.01 294.105 299.98C294.149 299.951 294.669 300.597 295.505 301.653C296.341 302.709 297.492 304.154 298.82 305.716C300.14 307.279 301.379 308.657 302.281 309.655C303.168 310.652 303.725 311.269 303.689 311.313Z" fill="#FF7100"/>
<path d="M317.108 308.159C317.123 308.211 316.382 308.423 315.172 308.724C313.962 309.025 312.298 309.421 310.45 309.824C308.602 310.235 306.923 310.587 305.698 310.822C304.473 311.057 303.718 311.174 303.703 311.123C303.689 311.071 304.429 310.859 305.639 310.558C306.842 310.257 308.514 309.861 310.369 309.45C312.217 309.04 313.896 308.688 315.121 308.453C316.338 308.225 317.094 308.108 317.108 308.159Z" fill="#FF7100"/>
<path d="M313.633 326.129C313.64 326.18 312.687 326.43 311.139 326.796C309.592 327.163 307.443 327.633 305.068 328.139C302.692 328.645 300.536 329.077 298.974 329.371C297.412 329.664 296.437 329.826 296.422 329.774C296.415 329.723 297.368 329.474 298.915 329.107C300.462 328.74 302.611 328.271 304.987 327.765C307.363 327.266 309.519 326.826 311.081 326.532C312.65 326.232 313.618 326.078 313.633 326.129Z" fill="#FF7100"/>
<path d="M296.811 329.562C296.789 329.577 296.599 329.4 296.261 329.063C295.924 328.726 295.448 328.22 294.876 327.596C293.724 326.335 292.177 324.56 290.549 322.521C288.921 320.489 287.52 318.582 286.545 317.188C286.054 316.491 285.673 315.912 285.416 315.509C285.159 315.105 285.027 314.878 285.049 314.863C285.071 314.848 285.247 315.046 285.541 315.428C285.885 315.875 286.289 316.411 286.765 317.034C287.799 318.391 289.222 320.261 290.85 322.293C292.47 324.325 293.988 326.122 295.081 327.427C296.173 328.718 296.848 329.525 296.811 329.562Z" fill="#FF7100"/>
<path d="M289.474 378.697C276.744 368.436 274.896 350.876 276.495 335.32C276.759 332.723 276.663 329.958 278.057 327.757C279.45 325.557 282.449 324.193 284.701 325.454C286.57 326.496 287.26 328.806 288.213 330.735C289.482 333.31 291.484 335.503 293.918 336.985C295.517 337.96 297.533 338.627 299.227 337.835C301.559 336.75 302.036 333.669 302.197 331.073C302.498 326.246 302.799 321.42 303.099 316.594C303.26 314.005 303.436 311.357 304.404 308.959C305.38 306.56 307.316 304.396 309.824 303.876C312.331 303.355 315.279 304.983 315.624 307.55C315.771 308.621 315.477 309.699 315.477 310.778C315.477 311.856 315.895 313.081 316.893 313.447C317.905 313.821 318.99 313.161 319.819 312.457C322.671 310.029 324.71 306.78 326.638 303.553C328.56 300.318 330.444 297.003 333.062 294.318C335.68 291.634 339.192 289.602 342.91 289.646C346.636 289.69 350.427 292.25 351.109 295.954C351.798 299.665 349.415 303.223 346.892 306.017C343.152 310.161 338.826 313.763 334.074 316.66C333.216 317.181 332.292 317.746 331.911 318.684C331.229 320.371 332.747 322.198 334.411 322.88C336.296 323.657 338.4 323.599 340.402 323.973C342.404 324.347 344.531 325.388 345.162 327.347C346.042 330.068 343.636 332.686 341.334 334.351C336.729 337.689 331.551 340.219 326.103 341.803C324.152 342.368 322.106 342.845 320.479 344.077C318.851 345.309 317.765 347.576 318.565 349.461C319.371 351.353 321.71 352.094 323.727 351.867C325.744 351.632 327.606 350.671 329.557 350.084C333.209 348.984 337.785 349.549 339.852 352.776C341.209 354.903 341.15 357.72 340.226 360.082C339.302 362.436 337.623 364.409 335.863 366.213C329.704 372.514 322.033 377.399 313.585 379.695C305.167 382.005 297.467 382.254 289.474 378.697Z" fill="#359A19"/>
<g opacity="0.1">
<path d="M289.474 378.697C276.744 368.436 274.896 350.876 276.495 335.32C276.759 332.723 276.663 329.958 278.057 327.757C279.45 325.557 282.449 324.193 284.701 325.454C286.57 326.496 287.26 328.806 288.213 330.735C289.482 333.31 291.484 335.503 293.918 336.985C295.517 337.96 297.533 338.627 299.227 337.835C301.559 336.75 302.036 333.669 302.197 331.073C302.498 326.246 302.799 321.42 303.099 316.594C303.26 314.005 303.436 311.357 304.404 308.959C305.38 306.56 307.316 304.396 309.824 303.876C312.331 303.355 315.279 304.983 315.624 307.55C315.771 308.621 315.477 309.699 315.477 310.778C315.477 311.856 315.895 313.081 316.893 313.447C317.905 313.821 318.99 313.161 319.819 312.457C322.671 310.029 324.71 306.78 326.638 303.553C328.56 300.318 330.444 297.003 333.062 294.318C335.68 291.634 339.192 289.602 342.91 289.646C346.636 289.69 350.427 292.25 351.109 295.954C351.798 299.665 349.415 303.223 346.892 306.017C343.152 310.161 338.826 313.763 334.074 316.66C333.216 317.181 332.292 317.746 331.911 318.684C331.229 320.371 332.747 322.198 334.411 322.88C336.296 323.657 338.4 323.599 340.402 323.973C342.404 324.347 344.531 325.388 345.162 327.347C346.042 330.068 343.636 332.686 341.334 334.351C336.729 337.689 331.551 340.219 326.103 341.803C324.152 342.368 322.106 342.845 320.479 344.077C318.851 345.309 317.765 347.576 318.565 349.461C319.371 351.353 321.71 352.094 323.727 351.867C325.744 351.632 327.606 350.671 329.557 350.084C333.209 348.984 337.785 349.549 339.852 352.776C341.209 354.903 341.15 357.72 340.226 360.082C339.302 362.436 337.623 364.409 335.863 366.213C329.704 372.514 322.033 377.399 313.585 379.695C305.167 382.005 297.467 382.254 289.474 378.697Z" fill="black"/>
</g>
<path d="M288.477 390.242C289.467 384.103 291.322 376.9 294.167 369.199C297.005 361.49 300.811 353.29 305.086 344.855C306.164 342.75 307.227 340.667 308.276 338.62C309.324 336.574 310.373 334.55 311.51 332.628C313.776 328.777 316.254 325.249 318.703 321.978C321.153 318.699 323.602 315.677 325.912 312.868C328.229 310.066 330.436 307.492 332.548 305.233C336.757 300.7 340.585 297.451 343.299 295.323C344.655 294.26 345.733 293.46 346.474 292.94C346.826 292.69 347.104 292.492 347.317 292.346C347.508 292.214 347.61 292.148 347.61 292.155C347.618 292.162 347.522 292.236 347.339 292.382C347.134 292.536 346.87 292.749 346.525 293.013C345.806 293.563 344.743 294.385 343.409 295.47C340.732 297.634 336.955 300.913 332.79 305.467C330.7 307.734 328.515 310.316 326.212 313.125C323.917 315.941 321.49 318.971 319.048 322.242C316.614 325.513 314.157 329.034 311.906 332.87C310.769 334.777 309.742 336.794 308.686 338.84C307.638 340.887 306.575 342.97 305.497 345.075C301.221 353.502 297.416 361.673 294.563 369.353C291.703 377.025 289.819 384.191 288.792 390.301" fill="#263238"/>
<path d="M311.655 332.62C311.625 332.62 311.559 332.224 311.479 331.498C311.391 330.772 311.303 329.723 311.207 328.417C311.017 325.813 310.877 322.212 310.745 318.236C310.606 314.261 310.415 310.667 310.188 308.078C310.078 306.78 309.975 305.731 309.902 305.012C309.829 304.286 309.799 303.882 309.836 303.875C309.865 303.868 309.953 304.264 310.085 304.983C310.217 305.701 310.371 306.743 310.525 308.041C310.841 310.638 311.083 314.239 311.222 318.214C311.347 322.139 311.464 325.681 311.552 328.395C311.596 329.62 311.64 330.654 311.669 331.476C311.684 332.209 311.684 332.613 311.655 332.62Z" fill="#263238"/>
<path d="M345.359 328.682C345.359 328.711 344.882 328.74 344.017 328.748C343.159 328.762 341.912 328.784 340.379 328.858C337.307 328.975 333.076 329.291 328.412 329.841C323.755 330.398 319.561 331.088 316.54 331.667C315.029 331.946 313.812 332.21 312.968 332.386C312.125 332.562 311.656 332.65 311.649 332.613C311.641 332.584 312.096 332.437 312.924 332.202C313.753 331.975 314.963 331.66 316.474 331.337C319.488 330.669 323.682 329.921 328.361 329.364C333.032 328.814 337.285 328.55 340.372 328.52C341.912 328.491 343.159 328.528 344.024 328.564C344.882 328.608 345.359 328.645 345.359 328.682Z" fill="#263238"/>
<path d="M294.622 368.612C294.608 368.619 294.542 368.472 294.424 368.194C294.292 367.856 294.131 367.445 293.94 366.954C293.522 365.876 292.958 364.291 292.29 362.333C290.948 358.409 289.262 352.93 287.48 346.864C285.698 340.791 284.07 335.305 282.809 331.359C282.193 329.437 281.679 327.86 281.306 326.686C281.144 326.18 281.012 325.755 280.902 325.41C280.814 325.117 280.778 324.963 280.792 324.955C280.807 324.948 280.873 325.095 280.99 325.381C281.122 325.718 281.284 326.129 281.474 326.62C281.892 327.699 282.457 329.283 283.124 331.241C284.466 335.165 286.153 340.644 287.935 346.717C289.717 352.791 291.344 358.27 292.606 362.216C293.222 364.13 293.735 365.714 294.109 366.881C294.27 367.387 294.402 367.812 294.512 368.157C294.6 368.45 294.637 368.604 294.622 368.612Z" fill="#263238"/>
<path d="M339.826 357.39C339.826 357.405 339.672 357.456 339.371 357.544C339.019 357.64 338.587 357.75 338.059 357.889C336.849 358.19 335.206 358.6 333.219 359.099C329.134 360.119 323.503 361.6 317.284 363.243C311.066 364.886 305.419 366.309 301.305 367.248C299.252 367.717 297.588 368.084 296.429 368.312C295.894 368.414 295.454 368.495 295.094 368.568C294.786 368.62 294.625 368.642 294.625 368.627C294.625 368.612 294.779 368.561 295.08 368.473C295.432 368.385 295.864 368.268 296.392 368.128C297.602 367.828 299.238 367.417 301.232 366.918C305.317 365.898 310.948 364.417 317.167 362.774C323.385 361.131 329.032 359.708 333.138 358.769C335.191 358.3 336.856 357.933 338.015 357.706C338.55 357.603 338.99 357.522 339.349 357.449C339.657 357.398 339.819 357.376 339.826 357.39Z" fill="#263238"/>
<path d="M292.436 176.222H114.602V419.955H292.436V176.222Z" fill="#455A64"/>
<path d="M285.41 405.461H252.47H129.414V186.072H285.41V378.169V405.461Z" fill="#E0E0E0"/>
<path d="M282.94 401.391H250.3H128.352V183.168H282.94V374.245V401.391Z" fill="#EBEBEB"/>
<path d="M266.329 384.404L248.525 398.912H125.469V183.726H281.465V372.14L266.329 384.404Z" fill="#FAFAFA"/>
<path d="M266.333 384.403C266.333 384.403 266.648 384.132 267.286 383.611C267.924 383.09 268.878 382.313 270.139 381.279C272.676 379.218 276.445 376.145 281.432 372.088L281.41 372.132C281.388 341.18 281.351 272.41 281.3 183.718L281.476 183.894C235.021 183.901 182.392 183.909 126.844 183.916C126.382 183.916 125.927 183.916 125.48 183.916L125.67 183.725C125.656 264.627 125.641 339.258 125.634 398.911L125.48 398.757C181.651 398.794 224.806 398.831 248.536 398.845L248.492 398.86C254.432 394.041 258.89 390.425 261.86 388.012C263.349 386.809 264.463 385.907 265.211 385.306C265.959 384.704 266.333 384.403 266.333 384.403C266.333 384.403 265.966 384.711 265.233 385.32C264.493 385.929 263.378 386.839 261.904 388.056C258.934 390.484 254.49 394.115 248.572 398.956L248.558 398.97H248.536C224.806 398.985 181.651 399.022 125.48 399.058H125.326V398.904C125.318 339.251 125.304 264.62 125.289 183.718V183.527H125.48C125.927 183.527 126.382 183.527 126.844 183.527C182.392 183.535 235.021 183.542 281.476 183.549H281.652V183.725C281.601 272.417 281.557 341.187 281.542 372.14V372.169L281.52 372.184C276.526 376.218 272.735 379.276 270.19 381.33C268.922 382.35 267.961 383.12 267.316 383.641C266.663 384.154 266.333 384.403 266.333 384.403Z" fill="#263238"/>
<path d="M235.443 190.576H171.602V179.508C171.602 173.53 176.449 168.682 182.425 168.682H225.067C230.801 168.682 235.443 173.332 235.443 179.06V190.576Z" fill="url(#paint0_linear_5_2)"/>
<path d="M187.238 168.682L184.906 156.873H221.667L219.621 168.682H187.238Z" fill="#1ABFAF"/>
<path d="M168.071 244.295H141.789V218.008H168.071V244.295ZM142.522 243.562H167.337V218.741H142.522V243.562Z" fill="none" fill-opacity="0.9"/>
<path d="M168.071 284.805H141.789V258.518H168.071V284.805ZM142.522 284.072H167.337V259.251H142.522V284.072Z" fill="#33A096"/>
<path d="M147.008 272.204L150.498 268.456L156.313 273.106L169.623 260.183L172.813 263.938L156.057 280.478L147.008 272.204Z" fill="#33A096"/>
<path d="M253.931 266.353C253.931 266.455 240.288 266.544 223.468 266.544C206.637 266.544 193 266.455 193 266.353C193 266.25 206.637 266.162 223.468 266.162C240.288 266.162 253.931 266.25 253.931 266.353Z" fill="#263238"/>
<path d="M253.931 271.817C253.931 271.919 240.288 272.007 223.468 272.007C206.637 272.007 193 271.919 193 271.817C193 271.714 206.637 271.626 223.468 271.626C240.288 271.626 253.931 271.714 253.931 271.817Z" fill="#263238"/>
<path d="M253.931 277.282C253.931 277.384 237.153 277.472 216.469 277.472C195.771 277.472 179 277.384 179 277.282C179 277.179 195.771 277.091 216.469 277.091C237.153 277.091 253.931 277.172 253.931 277.282Z" fill="#263238"/>
<path d="M253.931 282.739C253.931 282.841 237.153 282.929 216.469 282.929C195.771 282.929 179 282.841 179 282.739C179 282.636 195.771 282.548 216.469 282.548C237.153 282.548 253.931 282.636 253.931 282.739Z" fill="#263238"/>
<path fill-rule="evenodd" clip-rule="evenodd" d="M179 265H188V274H179V265ZM182.214 270.143L183.5 271.429L186.714 268.214V272.714H180.286V272.071L182.214 270.143ZM182.536 268.857C183.068 268.857 183.5 268.425 183.5 267.893C183.5 267.36 183.068 266.929 182.536 266.929C182.003 266.929 181.571 267.36 181.571 267.893C181.571 268.425 182.003 268.857 182.536 268.857Z" fill="#199A8E"/>
<path d="M168.071 324.009H141.789V297.722H168.071V324.009ZM142.522 323.276H167.337V298.455H142.522V323.276Z" fill="#33A096"/>
<path d="M147.008 311.408L150.498 307.66L156.313 312.31L169.623 299.387L172.813 303.142L156.057 319.675L147.008 311.408Z" fill="#33A096"/>
<path d="M253.931 305.353C253.931 305.455 240.288 305.544 223.468 305.544C206.637 305.544 193 305.455 193 305.353C193 305.25 206.637 305.162 223.468 305.162C240.288 305.162 253.931 305.25 253.931 305.353Z" fill="#263238"/>
<path d="M253.931 310.817C253.931 310.919 240.288 311.007 223.468 311.007C206.637 311.007 193 310.919 193 310.817C193 310.714 206.637 310.626 223.468 310.626C240.288 310.626 253.931 310.714 253.931 310.817Z" fill="#263238"/>
<path d="M253.931 316.282C253.931 316.384 237.153 316.472 216.469 316.472C195.771 316.472 179 316.384 179 316.282C179 316.179 195.771 316.091 216.469 316.091C237.153 316.091 253.931 316.172 253.931 316.282Z" fill="#263238"/>
<path d="M253.931 321.739C253.931 321.841 237.153 321.929 216.469 321.929C195.771 321.929 179 321.841 179 321.739C179 321.636 195.771 321.548 216.469 321.548C237.153 321.548 253.931 321.636 253.931 321.739Z" fill="#263238"/>
<path fill-rule="evenodd" clip-rule="evenodd" d="M179 304H188V313H179V304ZM182.214 309.143L183.5 310.429L186.714 307.214V311.714H180.286V311.071L182.214 309.143ZM182.536 307.857C183.068 307.857 183.5 307.425 183.5 306.893C183.5 306.36 183.068 305.929 182.536 305.929C182.003 305.929 181.571 306.36 181.571 306.893C181.571 307.425 182.003 307.857 182.536 307.857Z" fill="#199A8E"/>
<path d="M168.071 361.857H141.789V335.569H168.071V361.857ZM142.522 361.124H167.337V336.303H142.522V361.124Z" fill="#33A096"/>
<path d="M147.008 349.256L150.498 345.508L156.313 350.165L169.623 337.234L172.813 340.997L156.057 357.53L147.008 349.256Z" fill="#33A096"/>
<path d="M253.931 343.353C253.931 343.455 240.288 343.544 223.468 343.544C206.637 343.544 193 343.455 193 343.353C193 343.25 206.637 343.162 223.468 343.162C240.288 343.162 253.931 343.25 253.931 343.353Z" fill="#263238"/>
<path d="M253.931 348.817C253.931 348.919 240.288 349.007 223.468 349.007C206.637 349.007 193 348.919 193 348.817C193 348.714 206.637 348.626 223.468 348.626C240.288 348.626 253.931 348.714 253.931 348.817Z" fill="#263238"/>
<path d="M253.931 354.282C253.931 354.384 237.153 354.472 216.469 354.472C195.771 354.472 179 354.384 179 354.282C179 354.179 195.771 354.091 216.469 354.091C237.153 354.091 253.931 354.172 253.931 354.282Z" fill="#263238"/>
<path d="M253.931 359.739C253.931 359.841 237.153 359.929 216.469 359.929C195.771 359.929 179 359.841 179 359.739C179 359.636 195.771 359.548 216.469 359.548C237.153 359.548 253.931 359.636 253.931 359.739Z" fill="#263238"/>
<path fill-rule="evenodd" clip-rule="evenodd" d="M179 342H188V351H179V342ZM182.214 347.143L183.5 348.429L186.714 345.214V349.714H180.286V349.071L182.214 347.143ZM182.536 345.857C183.068 345.857 183.5 345.425 183.5 344.893C183.5 344.36 183.068 343.929 182.536 343.929C182.003 343.929 181.571 344.36 181.571 344.893C181.571 345.425 182.003 345.857 182.536 345.857Z" fill="#199A8E"/>
<path d="M253.413 363.279L236.312 398.706H248.522L253.413 363.279Z" fill="#E0E0E0"/>
<path d="M248.523 398.912L253.415 363.478L281.464 372.14L248.523 398.912Z" fill="#FAFAFA"/>
<path d="M248.523 398.911C249.213 398.347 252.241 395.853 257.954 391.144C263.813 386.347 271.989 379.65 281.339 371.993L281.405 372.316C277.929 371.245 274.299 370.123 270.574 368.978C264.502 367.101 258.68 365.296 253.356 363.653L253.591 363.507C252.124 373.797 250.87 382.614 249.975 388.878C249.095 394.973 248.641 398.112 248.523 398.911C248.523 398.919 248.523 398.86 248.538 398.757C248.553 398.633 248.575 398.471 248.597 398.266C248.655 397.804 248.743 397.166 248.846 396.337C249.073 394.613 249.396 392.141 249.807 389.032C250.65 382.716 251.838 373.834 253.224 363.463L253.253 363.25L253.459 363.316C258.782 364.959 264.605 366.749 270.677 368.619C274.394 369.771 278.024 370.893 281.5 371.964L281.838 372.066L281.566 372.286C272.107 379.922 263.828 386.596 257.895 391.386C254.969 393.74 252.615 395.625 250.98 396.938C250.188 397.569 249.572 398.068 249.139 398.42C248.941 398.574 248.787 398.699 248.67 398.794C248.575 398.875 248.523 398.911 248.523 398.911Z" fill="#263238"/>
<g opacity="0.3">
<path d="M219.118 156.873L217.094 168.682H219.616L221.662 156.873H218.443" fill="black"/>
</g>
<path d="M260.931 224.353C260.931 224.455 247.288 224.544 230.468 224.544C213.637 224.544 200 224.455 200 224.353C200 224.25 213.637 224.162 230.468 224.162C247.288 224.162 260.931 224.25 260.931 224.353Z" fill="#263238"/>
<path d="M260.931 229.817C260.931 229.919 247.288 230.007 230.468 230.007C213.637 230.007 200 229.919 200 229.817C200 229.714 213.637 229.626 230.468 229.626C247.288 229.626 260.931 229.714 260.931 229.817Z" fill="#263238"/>
<path d="M260.931 235.282C260.931 235.384 244.153 235.472 223.469 235.472C202.771 235.472 186 235.384 186 235.282C186 235.179 202.771 235.091 223.469 235.091C244.153 235.091 260.931 235.172 260.931 235.282Z" fill="#263238"/>
<path d="M260.931 240.739C260.931 240.841 244.153 240.929 223.469 240.929C202.771 240.929 186 240.841 186 240.739C186 240.636 202.771 240.548 223.469 240.548C244.153 240.548 260.931 240.636 260.931 240.739Z" fill="#263238"/>
<path fill-rule="evenodd" clip-rule="evenodd" d="M186 223H195V232H186V223ZM189.214 228.143L190.5 229.429L193.714 226.214V230.714H187.286V230.071L189.214 228.143ZM189.536 226.857C190.068 226.857 190.5 226.425 190.5 225.893C190.5 225.36 190.068 224.929 189.536 224.929C189.003 224.929 188.571 225.36 188.571 225.893C188.571 226.425 189.003 226.857 189.536 226.857Z" fill="#199A8E"/>
<path d="M111.449 281.424C115.182 281.71 118.401 278.834 118.547 275.094C118.687 271.5 118.804 267.869 118.804 267.869C118.804 267.869 124.245 267.356 124.641 261.972C125.037 256.588 124.854 244.149 124.854 244.149C118.782 241.09 111.522 241.552 105.891 245.366L106.228 264.326V274.522C106.257 277.954 108.039 281.16 111.449 281.424Z" fill="#FFBE9D"/>
<path d="M119.272 255.4C118.341 254.248 116.83 253.793 115.591 254.593C114.352 255.4 113.875 257.189 114.55 258.51C115.026 259.441 116.112 260.277 117.19 260.505C118.209 260.717 118.927 261.7 118.81 262.734C118.656 264.084 117.937 265.368 116.918 266.483C115.342 268.221 113.017 269.16 110.685 269.438C108.39 269.71 105.765 269.233 104.43 267.348C103.462 265.976 103.389 264.179 103.352 262.5C103.271 258.532 103.191 254.556 103.103 250.588C103.073 249.158 103.044 247.706 103.374 246.312C103.704 244.918 104.43 243.562 105.625 242.777C106.938 241.911 108.595 241.838 110.084 241.361C111.946 240.76 113.53 239.52 115.276 238.625C117.021 237.73 119.162 237.202 120.915 238.075C122.169 238.706 123.012 239.96 124.237 240.657C125.975 241.647 128.35 241.42 129.194 243.98C129.487 244.867 129.465 245.835 129.164 246.715C127.984 250.199 123.672 251.608 120.563 250.097C120.504 250.684 121.083 252.004 120.46 253.867C120.269 254.476 120.203 255.385 119.272 255.4Z" fill="#263238"/>
<path d="M104.409 244.317C105.171 242.579 105.949 240.796 106.139 238.904C106.33 237.012 105.853 234.951 104.445 233.674C103.492 232.809 102.179 232.383 100.896 232.42C98.4322 232.494 96.1589 234.342 95.4843 236.711C94.8096 239.08 95.7409 241.794 97.6622 243.334C99.5834 244.875 102.37 245.205 104.636 244.244" fill="#263238"/>
<path d="M105.467 242.351C105.569 242.351 105.481 243.312 104.675 244.09C103.875 244.882 102.915 244.948 102.915 244.845C102.885 244.735 103.707 244.522 104.403 243.818C105.129 243.129 105.364 242.322 105.467 242.351Z" fill="#E8505B"/>
<path d="M103.703 243.664C103.725 243.694 103.227 244.178 102.244 244.735C101.753 244.999 101.093 245.27 100.315 245.278C99.5601 245.292 98.6215 245.043 98.0642 244.273C97.5142 243.51 97.4922 242.571 97.6682 241.838C97.8515 241.082 98.2329 240.503 98.5775 240.055C99.2888 239.175 99.8241 238.743 99.8535 238.772C99.9048 238.816 99.4282 239.322 98.7975 240.217C98.4969 240.664 98.1595 241.236 98.0202 241.919C97.8809 242.593 97.9249 243.422 98.3795 244.053C98.8342 244.691 99.6335 244.933 100.315 244.933C101.012 244.94 101.628 244.72 102.119 244.5C103.102 244.024 103.667 243.613 103.703 243.664Z" fill="#263238"/>
<path d="M94.548 249.752C94.5773 249.745 94.658 249.958 94.812 250.346C94.966 250.728 95.1713 251.307 95.6039 251.879C96.0219 252.429 96.7992 253.024 97.7159 252.848C98.6178 252.679 99.4171 251.843 99.7471 250.801C100.099 249.752 100.121 248.659 100.297 247.669C100.458 246.686 100.788 245.784 101.324 245.205C101.844 244.618 102.468 244.361 102.893 244.31C103.326 244.251 103.56 244.354 103.553 244.369C103.553 244.405 103.318 244.361 102.922 244.457C102.534 244.552 101.984 244.823 101.529 245.381C101.067 245.931 100.781 246.767 100.642 247.728C100.488 248.689 100.48 249.796 100.106 250.926C99.7545 252.048 98.8525 253.009 97.7745 253.192C97.2392 253.288 96.7112 253.148 96.3153 252.906C95.9119 252.664 95.6113 252.349 95.384 252.033C94.944 251.388 94.7826 250.787 94.6653 250.383C94.5627 249.987 94.5187 249.76 94.548 249.752Z" fill="#263238"/>
<path d="M91.8986 295C91.8986 295 89.156 315.112 91.8986 317.664C94.6412 320.217 97.2884 319.366 97.2884 319.366L102.517 314.994L103.543 295H91.8986Z" fill="#FFBE9D"/>
<path d="M148.688 238.545L152.178 234.797L157.993 239.447L171.303 226.523L174.493 230.279L157.737 246.811L148.688 238.545Z" fill="#33A096"/>
<path d="M165.086 239.564L160.026 242.814C159.799 240.811 158.274 238.831 158.347 239.836C158.428 240.841 158.354 246.056 158.354 246.056L149.327 265.045C148.103 268.053 145.617 269.945 143.762 270.392L135.336 272.901L138.628 284.042L150.332 280.162C153.368 279.157 155.751 276.766 156.748 273.722L164.815 249.136C164.815 249.136 165.775 246.342 166.12 244.288C166.479 242.227 165.086 239.564 165.086 239.564Z" fill="#FFBE9D"/>
<path d="M123.638 447.262L123.514 441.629L112.969 441.798L113.064 450.034L113.717 450.064C116.628 450.181 128.537 450.445 130.473 449.822C132.629 449.14 123.638 447.262 123.638 447.262Z" fill="#E8505B"/>
<g opacity="0.5">
<path d="M116.888 449.895C116.727 449.015 116.221 448.208 115.51 447.665C114.799 447.123 113.919 446.851 113.031 446.939L113.075 449.888L116.888 449.895Z" fill="white"/>
</g>
<g opacity="0.4">
<path d="M128.029 448.333C128.029 448.333 131.182 449.191 130.801 449.712C130.419 450.233 118.371 450.423 113.055 450.035L113.069 449.8L127.119 449.705C127.119 449.712 127.42 448.37 128.029 448.333Z" fill="white"/>
</g>
<path d="M112.906 449.8C112.906 449.807 112.972 449.807 113.09 449.814C113.244 449.822 113.42 449.829 113.61 449.837C114.131 449.851 114.769 449.866 115.531 449.888C117.152 449.925 119.389 449.939 121.86 449.903C124.331 449.866 126.568 449.785 128.188 449.704C128.944 449.66 129.582 449.624 130.102 449.594C130.293 449.58 130.469 449.565 130.623 449.558C130.74 449.55 130.806 449.543 130.806 449.536C130.806 449.528 130.74 449.528 130.623 449.536C130.469 449.543 130.293 449.543 130.102 449.55C129.582 449.572 128.944 449.594 128.188 449.616C126.568 449.675 124.331 449.741 121.86 449.778C119.389 449.814 117.152 449.814 115.531 449.8C114.776 449.792 114.131 449.792 113.61 449.785C113.42 449.785 113.244 449.785 113.09 449.785C112.965 449.792 112.906 449.8 112.906 449.8Z" fill="#263238"/>
<path d="M127.121 449.873C127.157 449.88 127.179 449.418 127.465 448.949C127.737 448.479 128.133 448.237 128.111 448.208C128.103 448.178 127.656 448.384 127.355 448.89C127.055 449.389 127.091 449.88 127.121 449.873Z" fill="#263238"/>
<path d="M123.982 448.34C124.011 448.362 124.158 448.172 124.305 447.93C124.451 447.688 124.554 447.475 124.524 447.453C124.495 447.431 124.349 447.614 124.202 447.864C124.048 448.113 123.953 448.326 123.982 448.34Z" fill="#263238"/>
<path d="M123.12 447.9C123.142 447.929 123.31 447.812 123.486 447.643C123.662 447.474 123.794 447.32 123.765 447.298C123.743 447.269 123.574 447.386 123.398 447.555C123.222 447.724 123.098 447.878 123.12 447.9Z" fill="#263238"/>
<path d="M122.562 446.917C122.562 446.953 122.812 446.983 123.112 446.975C123.42 446.975 123.662 446.946 123.662 446.909C123.662 446.873 123.413 446.843 123.112 446.851C122.812 446.851 122.562 446.88 122.562 446.917Z" fill="#263238"/>
<path d="M122.368 446.213C122.353 446.242 122.624 446.36 122.984 446.382C123.343 446.404 123.622 446.323 123.614 446.286C123.607 446.25 123.328 446.272 122.991 446.25C122.654 446.235 122.382 446.184 122.368 446.213Z" fill="#263238"/>
<path d="M124.32 447.416C124.32 447.431 124.577 447.46 124.995 447.402C125.2 447.372 125.45 447.321 125.714 447.233C125.846 447.181 125.985 447.145 126.124 447.057C126.19 447.013 126.264 446.947 126.286 446.844C126.315 446.741 126.256 446.631 126.176 446.573C125.523 446.25 124.878 446.624 124.643 446.961C124.511 447.137 124.452 447.299 124.43 447.416C124.408 447.534 124.408 447.6 124.416 447.6C124.438 447.607 124.46 447.335 124.716 447.02C124.841 446.866 125.039 446.712 125.288 446.631C125.523 446.558 125.868 446.529 126.095 446.675C126.205 446.756 126.161 446.881 126.044 446.954C125.934 447.027 125.787 447.071 125.662 447.123C125.406 447.218 125.171 447.277 124.966 447.313C124.577 447.387 124.32 447.394 124.32 447.416Z" fill="#263238"/>
<path d="M124.5 447.445C124.507 447.453 124.61 447.277 124.573 446.976C124.551 446.829 124.5 446.653 124.383 446.485C124.258 446.338 124.104 446.133 123.811 446.147C123.657 446.169 123.583 446.353 123.605 446.463C123.62 446.58 123.671 446.683 123.723 446.763C123.825 446.932 123.943 447.064 124.053 447.167C124.265 447.372 124.434 447.445 124.441 447.438C124.456 447.423 124.302 447.321 124.111 447.108C124.016 447.005 123.913 446.866 123.818 446.705C123.723 446.565 123.657 446.309 123.825 446.272C123.994 446.25 124.17 446.419 124.273 446.551C124.383 446.697 124.441 446.851 124.471 446.991C124.537 447.262 124.478 447.438 124.5 447.445Z" fill="#263238"/>
<path d="M113.078 446.91C113.078 446.932 113.379 446.873 113.855 446.924C114.325 446.968 114.985 447.152 115.564 447.599C116.143 448.047 116.488 448.641 116.649 449.088C116.818 449.536 116.84 449.844 116.862 449.836C116.869 449.836 116.869 449.763 116.862 449.624C116.847 449.484 116.811 449.294 116.737 449.059C116.591 448.589 116.246 447.966 115.645 447.504C115.043 447.042 114.354 446.866 113.863 446.844C113.621 446.829 113.415 446.844 113.283 446.866C113.151 446.88 113.078 446.902 113.078 446.91Z" fill="#263238"/>
<path d="M114.098 442.502C114.061 442.502 114.039 443.47 114.039 444.673C114.039 445.869 114.076 446.844 114.112 446.844C114.149 446.844 114.171 445.876 114.171 444.673C114.164 443.477 114.134 442.502 114.098 442.502Z" fill="#263238"/>
<path d="M118.195 448.846C118.188 448.883 118.877 448.978 119.735 448.978C120.593 448.971 121.283 448.861 121.275 448.831C121.268 448.795 120.586 448.846 119.735 448.853C118.885 448.853 118.195 448.809 118.195 448.846Z" fill="#263238"/>
<path d="M116.129 448.875C116.107 448.905 116.187 449.022 116.261 449.176C116.334 449.33 116.371 449.469 116.407 449.469C116.444 449.469 116.459 449.301 116.371 449.125C116.29 448.941 116.151 448.853 116.129 448.875Z" fill="#263238"/>
<path d="M115.325 447.922C115.303 447.944 115.369 448.054 115.479 448.164C115.589 448.274 115.699 448.34 115.721 448.318C115.743 448.296 115.677 448.186 115.567 448.076C115.464 447.959 115.354 447.893 115.325 447.922Z" fill="#263238"/>
<path d="M114.203 447.489C114.211 447.526 114.35 447.519 114.504 447.577C114.658 447.629 114.775 447.709 114.797 447.687C114.827 447.665 114.731 447.519 114.541 447.46C114.357 447.394 114.196 447.46 114.203 447.489Z" fill="#263238"/>
<path d="M113.416 447.299C113.401 447.336 113.467 447.387 113.555 447.416C113.643 447.446 113.724 447.446 113.739 447.416C113.753 447.38 113.687 447.328 113.599 447.299C113.511 447.262 113.423 447.262 113.416 447.299Z" fill="#263238"/>
<path d="M86.4122 445.465L89.9908 441.116L81.8877 434.36L76.5859 440.668L77.0626 441.116C79.1965 443.103 88.0475 451.069 89.9248 451.861C92.0074 452.748 86.4122 445.465 86.4122 445.465Z" fill="#E8505B"/>
<g opacity="0.5">
<path d="M79.5767 443.052C80.024 442.282 80.1707 441.336 79.98 440.463C79.7894 439.59 79.3054 438.813 78.5794 438.292L76.6875 440.558L79.5767 443.052Z" fill="white"/>
</g>
<g opacity="0.4">
<path d="M89.0448 449.14C89.0448 449.14 90.8781 451.846 90.2474 451.993C89.6168 452.14 80.3625 444.424 76.5859 440.661L76.7473 440.492L87.4609 449.587C87.4609 449.587 88.5608 448.773 89.0448 449.14Z" fill="white"/>
</g>
<path d="M76.625 440.39C76.625 440.39 76.669 440.441 76.7497 440.522C76.867 440.632 76.9917 440.749 77.131 440.881C77.5196 441.233 77.9889 441.666 78.5536 442.172C79.7635 443.257 81.4428 444.724 83.3421 446.316C85.2413 447.9 86.9866 449.301 88.2699 450.291C88.8712 450.754 89.3772 451.142 89.7952 451.458C89.9492 451.575 90.0885 451.678 90.2132 451.766C90.3085 451.839 90.3598 451.868 90.3671 451.868C90.3671 451.868 90.3231 451.824 90.2278 451.744C90.1032 451.648 89.9712 451.538 89.8245 451.414C89.4139 451.091 88.9152 450.688 88.3286 450.218C87.0673 449.206 85.322 447.798 83.4301 446.213C81.5308 444.629 79.8369 443.169 78.6196 442.106C78.0476 441.607 77.5636 441.189 77.175 440.844C77.0283 440.72 76.8963 440.61 76.779 440.507C76.6763 440.419 76.6323 440.382 76.625 440.39Z" fill="#263238"/>
<path d="M87.3536 449.712C87.3829 449.741 87.6982 449.411 88.2115 449.235C88.7248 449.059 89.1795 449.132 89.1868 449.088C89.2015 449.059 88.7249 448.92 88.1749 449.11C87.6176 449.301 87.3242 449.697 87.3536 449.712Z" fill="#263238"/>
<path d="M85.9689 446.507C85.9763 446.544 86.2109 446.5 86.4822 446.412C86.7536 446.324 86.9662 446.228 86.9589 446.192C86.9516 446.155 86.7169 446.199 86.4456 446.287C86.1743 446.375 85.9616 446.47 85.9689 446.507Z" fill="#263238"/>
<path d="M85.6094 445.612C85.6094 445.649 85.8074 445.671 86.0567 445.656C86.2987 445.649 86.4967 445.612 86.4967 445.575C86.4967 445.539 86.2987 445.517 86.0494 445.524C85.8074 445.539 85.6094 445.575 85.6094 445.612Z" fill="#263238"/>
<path d="M85.8301 444.504C85.8081 444.533 85.9767 444.709 86.2114 444.907C86.446 445.105 86.6514 445.245 86.6734 445.215C86.6954 445.186 86.5267 445.01 86.292 444.812C86.0574 444.614 85.8521 444.475 85.8301 444.504Z" fill="#263238"/>
<path d="M86.1368 443.844C86.1075 443.859 86.2395 444.123 86.4962 444.372C86.7528 444.622 87.0241 444.746 87.0388 444.717C87.0608 444.688 86.8335 444.519 86.5842 444.284C86.3422 444.05 86.1735 443.822 86.1368 443.844Z" fill="#263238"/>
<path d="M86.8412 446.03C86.8338 446.037 87.0098 446.228 87.3618 446.462C87.5378 446.58 87.7578 446.697 88.0145 446.8C88.1465 446.851 88.2711 446.91 88.4398 446.932C88.5204 446.939 88.6158 446.939 88.7038 446.881C88.7918 446.822 88.8211 446.697 88.7991 446.609C88.5131 445.934 87.7871 445.802 87.3838 445.905C87.1712 445.949 87.0172 446.037 86.9218 446.11C86.8265 446.184 86.7825 446.235 86.7898 446.242C86.8045 446.264 86.9952 446.066 87.3985 445.993C87.5965 445.956 87.8385 445.971 88.0805 446.074C88.3078 446.169 88.5864 446.374 88.6671 446.631C88.6964 446.763 88.5864 446.829 88.4471 446.807C88.3151 446.793 88.1758 446.734 88.0511 446.69C87.7945 446.595 87.5745 446.484 87.3985 446.382C87.0538 446.176 86.8558 446.015 86.8412 446.03Z" fill="#263238"/>
<path d="M86.9449 446.169C86.9449 446.184 87.1355 446.111 87.3042 445.861C87.3849 445.737 87.4582 445.568 87.4802 445.363C87.4875 445.172 87.5022 444.915 87.2675 444.739C87.1355 444.651 86.9595 444.739 86.9082 444.849C86.8422 444.952 86.8202 445.062 86.8056 445.157C86.7762 445.355 86.7762 445.531 86.7909 445.678C86.8202 445.971 86.9009 446.14 86.9155 446.14C86.9375 446.133 86.8862 445.957 86.8862 445.678C86.8862 445.539 86.8935 445.37 86.9302 445.186C86.9522 445.018 87.0695 444.776 87.2162 444.864C87.3555 444.959 87.3849 445.201 87.3775 445.37C87.3629 445.553 87.3115 445.707 87.2455 445.832C87.0989 446.052 86.9375 446.147 86.9449 446.169Z" fill="#263238"/>
<path d="M78.6412 438.307C78.6265 438.329 78.8905 438.475 79.2205 438.828C79.5505 439.172 79.9318 439.737 80.0785 440.456C80.2251 441.175 80.1005 441.842 79.9318 442.29C79.7632 442.737 79.5798 442.986 79.6018 442.994C79.6092 443.001 79.6605 442.942 79.7412 442.832C79.8218 442.722 79.9245 442.546 80.0198 442.319C80.2105 441.871 80.3571 441.175 80.2031 440.426C80.0492 439.678 79.6385 439.099 79.2865 438.762C79.1105 438.593 78.9492 438.475 78.8319 438.402C78.7145 438.329 78.6412 438.299 78.6412 438.307Z" fill="#263238"/>
<path d="M82.2926 435.636C82.2632 435.614 81.6106 436.333 80.8333 437.243C80.056 438.152 79.4473 438.908 79.4693 438.93C79.4987 438.952 80.1513 438.233 80.9286 437.323C81.7059 436.414 82.3146 435.658 82.2926 435.636Z" fill="#263238"/>
<path d="M81.2508 443.111C81.2288 443.133 81.6834 443.661 82.3361 444.219C82.9887 444.776 83.5827 445.143 83.5973 445.113C83.6193 445.084 83.062 444.673 82.4167 444.123C81.7714 443.573 81.2801 443.089 81.2508 443.111Z" fill="#263238"/>
<path d="M79.6676 441.783C79.631 441.783 79.6163 441.93 79.5723 442.099C79.5283 442.267 79.4623 442.399 79.4916 442.421C79.521 442.443 79.6383 442.326 79.6896 442.135C79.7483 441.945 79.7043 441.783 79.6676 441.783Z" fill="#263238"/>
<path d="M79.6907 440.543C79.6541 440.543 79.6394 440.675 79.6541 440.829C79.6687 440.983 79.7054 441.108 79.7421 441.108C79.7787 441.108 79.7934 440.976 79.7787 440.822C79.7641 440.661 79.7274 440.536 79.6907 440.543Z" fill="#263238"/>
<path d="M79.1186 439.487C79.1039 439.517 79.2066 439.612 79.2946 439.751C79.3826 439.891 79.4119 440.03 79.4486 440.03C79.4852 440.03 79.5072 439.861 79.4046 439.685C79.3019 439.509 79.1333 439.458 79.1186 439.487Z" fill="#263238"/>
<path d="M78.6422 438.82C78.6128 438.835 78.6202 438.915 78.6715 438.996C78.7228 439.077 78.7815 439.128 78.8108 439.113C78.8401 439.099 78.8328 439.018 78.7815 438.937C78.7302 438.857 78.6788 438.805 78.6422 438.82Z" fill="#263238"/>
<path d="M108.363 327.603C108.363 327.603 104.851 342.463 105.848 345.404C106.838 348.346 113.277 350.047 113.277 350.047L113.057 390.748L77.4766 434.741L90.6174 445.494C90.6174 445.494 129.138 401.42 132.533 393.439C135.928 385.459 130.37 326.95 130.37 326.95L108.363 327.603Z" fill="#263238"/>
<path d="M126.539 321.545L128.277 445.157L110.172 445.252L101.093 344.576C99.1721 342.742 96.4736 339.603 96.8476 332.598L97.2875 324.464L126.539 321.545Z" fill="#263238"/>
<path d="M107.454 397.628C107.447 397.62 107.483 397.562 107.557 397.444C107.652 397.305 107.762 397.136 107.901 396.938C108.231 396.469 108.686 395.831 109.243 395.031C110.446 393.366 112.125 391.034 114.156 388.232L114.127 388.327C113.731 384.037 113.254 378.836 112.741 373.225C112.081 365.876 111.553 359.209 111.238 354.382C111.077 351.969 110.974 350.018 110.915 348.661C110.893 348.016 110.879 347.495 110.864 347.106C110.857 346.747 110.857 346.563 110.871 346.563C110.886 346.563 110.908 346.747 110.937 347.106C110.967 347.495 111.011 348.016 111.062 348.661C111.172 350.055 111.319 351.991 111.509 354.368C111.891 359.187 112.463 365.839 113.122 373.196C113.614 378.829 114.12 384.022 114.442 388.335V388.386L114.406 388.43C112.338 391.203 110.615 393.506 109.39 395.149C108.796 395.926 108.327 396.542 107.975 397.004C107.821 397.195 107.696 397.356 107.593 397.481C107.505 397.576 107.461 397.635 107.454 397.628Z" fill="#455A64"/>
<path d="M113.014 346.564C112.999 346.666 110.843 346.402 108.218 345.852C105.6 345.302 103.517 344.679 103.539 344.576C103.569 344.473 105.68 344.928 108.291 345.478C110.909 346.028 113.028 346.454 113.014 346.564Z" fill="#455A64"/>
<path d="M125.406 388.767C125.355 388.885 123.324 387.696 120.515 387.491C117.707 387.249 115.514 388.1 115.485 387.975C115.47 387.938 115.991 387.667 116.893 387.425C117.795 387.176 119.1 387 120.537 387.11C121.974 387.227 123.236 387.608 124.086 387.997C124.959 388.379 125.428 388.731 125.406 388.767Z" fill="#455A64"/>
<path d="M131.791 394.496C131.872 394.562 126.782 401.398 120.417 409.759C114.052 418.128 108.824 424.861 108.743 424.795C108.662 424.729 113.752 417.893 120.117 409.524C126.482 401.163 131.71 394.43 131.791 394.496Z" fill="#455A64"/>
<path d="M129.346 330.728C129.382 330.736 129.133 331.374 128.327 332.071C127.549 332.76 126.119 333.464 124.469 333.303C122.819 333.12 121.565 332.137 120.949 331.293C120.311 330.442 120.201 329.768 120.231 329.768C120.297 329.738 120.495 330.362 121.155 331.125C121.793 331.88 122.988 332.753 124.506 332.922C126.024 333.076 127.373 332.467 128.158 331.865C128.957 331.257 129.287 330.692 129.346 330.728Z" fill="#455A64"/>
<path d="M104.605 267.128C101.657 264.326 99.8607 260.351 99.6994 256.295C99.5381 252.231 101.027 248.131 103.747 245.109" fill="#263238"/>
<path d="M94.432 278.659C94.432 278.659 90.5015 283.104 89.6875 300.099C89.6875 300.099 100.885 302.226 101.09 301.61C101.296 301.001 94.432 278.659 94.432 278.659Z" fill="#E8505B"/>
<g opacity="0.3">
<path d="M94.432 278.659C94.432 278.659 90.5015 283.104 89.6875 300.099C89.6875 300.099 100.885 302.226 101.09 301.61C101.296 301.001 94.432 278.659 94.432 278.659Z" fill="black"/>
</g>
<path d="M96.2503 328.161H130.635L130.078 322.792C130.078 322.792 126.147 302.35 126.177 302.086L126.793 300.788C128.413 297.377 128.472 293.431 126.947 289.969L143.783 284.211L139.662 270.319C132.021 271.61 120.471 273.048 120.471 273.048L118.755 273.195C118.755 273.195 106.832 273.818 106.583 273.847C101.596 274.449 95.7957 274.83 93.6764 280.17C92.5398 283.023 93.6178 287.307 95.473 291.729L99.8802 305.299C101.64 312.758 98.8316 312.399 97.2916 319.909C97.0496 321.024 96.2283 327.119 96.2503 328.161Z" fill="#E8505B"/>
<g opacity="0.3">
<path d="M96.2503 328.161H130.635L130.078 322.792C130.078 322.792 126.147 302.35 126.177 302.086L126.793 300.788C128.413 297.377 128.472 293.431 126.947 289.969L143.783 284.211L139.662 270.319C132.021 271.61 120.471 273.048 120.471 273.048L118.755 273.195C118.755 273.195 106.832 273.818 106.583 273.847C101.596 274.449 95.7957 274.83 93.6764 280.17C92.5398 283.023 93.6178 287.307 95.473 291.729L99.8802 305.299C101.64 312.758 98.8316 312.399 97.2916 319.909C97.0496 321.024 96.2283 327.119 96.2503 328.161Z" fill="black"/>
</g>
<path d="M143.619 284.424C143.626 284.446 143.362 284.564 142.871 284.74C142.38 284.916 141.669 285.165 140.789 285.458C139.029 286.052 136.587 286.845 133.888 287.703C131.19 288.568 128.777 289.426 127.061 290.131C126.203 290.475 125.521 290.783 125.037 290.989C124.561 291.201 124.297 291.311 124.282 291.282C124.267 291.26 124.517 291.106 124.971 290.849C125.433 290.6 126.1 290.255 126.951 289.874C128.645 289.096 131.065 288.194 133.764 287.329C136.469 286.463 138.919 285.715 140.701 285.187C141.595 284.923 142.314 284.718 142.82 284.578C143.333 284.468 143.612 284.402 143.619 284.424Z" fill="#263238"/>
<path d="M141.625 277.031C141.625 277.133 131.461 277.221 118.922 277.221C106.382 277.221 96.2188 277.133 96.2188 277.031C96.2188 276.928 106.382 276.84 118.922 276.84C131.461 276.84 141.625 276.921 141.625 277.031Z" fill="#FAFAFA"/>
<path d="M142.673 283.785C142.673 283.888 131.358 283.976 117.41 283.976C103.456 283.976 92.1406 283.888 92.1406 283.785C92.1406 283.683 103.448 283.595 117.41 283.595C131.358 283.595 142.673 283.675 142.673 283.785Z" fill="#FAFAFA"/>
<path d="M94.9592 291.473C94.9592 291.576 94.0132 291.664 92.8546 291.664C91.6886 291.664 90.75 291.576 90.75 291.473C90.75 291.37 91.696 291.282 92.8546 291.282C94.0132 291.282 94.9592 291.363 94.9592 291.473Z" fill="#FAFAFA"/>
<path d="M128.004 291.7C128.004 291.803 120.605 291.891 111.482 291.891C102.353 291.891 94.9609 291.803 94.9609 291.7C94.9609 291.598 102.36 291.51 111.482 291.51C120.605 291.51 128.004 291.598 128.004 291.7Z" fill="#FAFAFA"/>
<path d="M127.28 299.621C127.28 299.724 120.636 299.812 112.452 299.812C104.261 299.812 97.625 299.724 97.625 299.621C97.625 299.519 104.261 299.431 112.452 299.431C120.636 299.431 127.28 299.519 127.28 299.621Z" fill="#FAFAFA"/>
<path d="M127.063 306.956C127.063 307.059 121.042 307.147 113.621 307.147C106.193 307.147 100.18 307.059 100.18 306.956C100.18 306.854 106.2 306.766 113.621 306.766C121.042 306.766 127.063 306.854 127.063 306.956Z" fill="#FAFAFA"/>
<path d="M128.237 312.898C128.237 313 121.798 313.088 113.857 313.088C105.915 313.088 99.4766 313 99.4766 312.898C99.4766 312.795 105.915 312.707 113.857 312.707C121.798 312.707 128.237 312.795 128.237 312.898Z" fill="#FAFAFA"/>
<path d="M130.103 320.467C130.103 320.57 122.777 320.658 113.743 320.658C104.709 320.658 97.3828 320.57 97.3828 320.467C97.3828 320.364 104.709 320.276 113.743 320.276C122.777 320.276 130.103 320.364 130.103 320.467Z" fill="#FAFAFA"/>
<path d="M99.6671 304.646C99.6451 304.653 99.5351 304.411 99.3665 303.971C99.1685 303.45 98.9265 302.819 98.6405 302.093C98.0318 300.509 97.1812 298.323 96.3012 295.881C95.4139 293.446 94.6806 291.209 94.2187 289.566C93.9913 288.744 93.8153 288.077 93.72 287.614C93.6173 287.152 93.5733 286.888 93.6027 286.881C93.6613 286.866 93.9547 287.871 94.4826 289.485C95.0106 291.098 95.7806 293.314 96.6679 295.749C97.5552 298.184 98.3618 300.384 98.9045 301.998C99.1758 302.805 99.3811 303.457 99.5131 303.92C99.6304 304.382 99.6891 304.638 99.6671 304.646Z" fill="#263238"/>
<defs>
<linearGradient id="paint0_linear_5_2" x1="203.522" y1="190.576" x2="203.522" y2="168.682" gradientUnits="userSpaceOnUse">
<stop stop-color="#0D534D"/>
<stop offset="1" stop-color="#199A8E"/>
</linearGradient>
</defs>
</svg>
