<svg width="15" height="15" viewBox="0 0 15 15" fill="none" xmlns="http://www.w3.org/2000/svg">
<path fill-rule="evenodd" clip-rule="evenodd" d="M7.5 15C3.96446 15 2.1967 15 1.09835 13.9016C-8.9407e-08 12.8033 0 11.0355 0 7.5C0 3.96446 -8.9407e-08 2.1967 1.09835 1.09835C2.1967 -8.9407e-08 3.96446 0 7.5 0C11.0355 0 12.8033 -8.9407e-08 13.9016 1.09835C15 2.1967 15 3.96446 15 7.5C15 11.0355 15 12.8033 13.9016 13.9016C12.8033 15 11.0355 15 7.5 15ZM10.5227 5.22725C10.7424 5.44692 10.7424 5.80308 10.5227 6.02273L6.77273 9.77273C6.55305 9.9924 6.19695 9.9924 5.97725 9.77273L4.47725 8.27273C4.25759 8.05305 4.25759 7.69695 4.47725 7.47727C4.69692 7.2576 5.05308 7.2576 5.27275 7.47727L6.375 8.57947L9.72727 5.22725C9.94695 5.00759 10.3031 5.00759 10.5227 5.22725Z" fill="#B0B0B0"/>
</svg>
