<svg width="54" height="77" viewBox="0 0 54 77" fill="none" xmlns="http://www.w3.org/2000/svg">
<path d="M2.08775 24.9072C1.67383 29.8344 2.73029 34.7736 5.12352 39.1004C7.51676 43.4272 11.1393 46.9471 15.533 49.215C19.9267 51.483 24.8943 52.3971 29.8075 51.8419C34.7208 51.2866 39.3591 49.2868 43.1358 46.0955C46.9125 42.9041 49.6581 38.6645 51.0253 33.9127C52.3925 29.161 52.3199 24.1105 50.8168 19.4C49.3137 14.6895 46.4474 10.5305 42.5806 7.44892C38.7138 4.36737 34.02 2.50167 29.0928 2.08775" stroke="#199A8E" stroke-width="2.5" stroke-linecap="round"/>
<path opacity="0.1" d="M27 2C20.3696 2 14.0107 4.63392 9.32233 9.32233C4.63392 14.0107 2 20.3696 2 27C2 33.6304 4.63392 39.9893 9.32233 44.6777C14.0107 49.3661 20.3696 52 27 52" stroke="#9AA0A6" stroke-width="2.5" stroke-linecap="round"/>
<circle cx="27" cy="27" r="20" fill="#199A8E"/>
<path d="M25 22L29.8586 26.8586C29.9367 26.9367 29.9367 27.0633 29.8586 27.1414L25 32" stroke="#F1F3F4" stroke-width="1.5" stroke-linecap="round"/>
<circle cx="10" cy="74" r="3" fill="#E5E5E5"/>
<rect x="17" y="71" width="32" height="6" rx="3" fill="#BEC2C7"/>
</svg>
