<svg width="100%" height="100%" viewBox="0 0 375 578" fill="none" xmlns="http://www.w3.org/2000/svg">
<g clip-path="url(#clip0_833_413)">
<path opacity="0.1" d="M397.617 149.902L218.141 -29.5434C249.011 -60.5 295.188 -74.485 340.574 -62.2304C408.15 -43.9844 448.381 25.5224 430.435 93.0155C424.49 115.375 412.907 134.707 397.617 149.902Z" fill="url(#paint0_linear_833_413)" stroke="url(#paint1_linear_833_413)"/>
<path opacity="0.1" d="M291.299 74.3224L111.945 -103.832" stroke="white"/>
<path opacity="0.1" fill-rule="evenodd" clip-rule="evenodd" d="M467.242 220.222C436.251 251.547 389.713 265.742 343.975 253.392C276.133 235.074 235.742 165.294 253.759 97.5324C259.773 74.9135 271.535 55.3789 287.061 40.071L467.242 220.222Z" fill="url(#paint2_linear_833_413)"/>
<circle cx="-84" cy="-65.999" r="172.5" stroke="white" stroke-opacity="0.4" stroke-width="3"/>
<circle cx="-34" cy="-35.999" r="172.5" stroke="white" stroke-opacity="0.4" stroke-width="3"/>
<circle cx="-14" cy="-5.99902" r="172.5" stroke="white" stroke-opacity="0.4" stroke-width="3"/>
<path d="M88.5 238.625L90.4918 249.37L98.4189 241.848L93.7147 251.711L104.549 250.285L94.9457 255.5L104.549 260.715L93.7147 259.289L98.4189 269.152L90.4918 261.63L88.5 272.375L86.5082 261.63L78.5811 269.152L83.2853 259.289L72.4509 260.715L82.0543 255.5L72.4509 250.285L83.2853 251.711L78.5811 241.848L86.5082 249.37L88.5 238.625Z" fill="#FFD048"/>
<path d="M265 56L268.368 66.3647H279.266L270.449 72.7705L273.817 83.1353L265 76.7295L256.183 83.1353L259.551 72.7705L250.734 66.3647H261.632L265 56Z" fill="#FFD048"/>
<path d="M228 528L231.368 538.365H242.266L233.449 544.771L236.817 555.135L228 548.729L219.183 555.135L222.551 544.771L213.734 538.365H224.632L228 528Z" fill="#FFD048"/>
<path d="M253.5 320.625L256.615 330.212H266.696L258.54 336.138L261.656 345.725L253.5 339.8L245.344 345.725L248.46 336.138L240.304 330.212H250.385L253.5 320.625Z" fill="#FFD048"/>
<g clip-path="url(#clip1_833_413)">
<path d="M145.182 196.662C143.997 196.792 142.812 196.89 141.606 196.945C141.258 196.956 43.8688 196.999 43.8688 196.999C43.8035 196.999 43.7274 196.999 43.6622 196.989C43.1404 196.945 42.6294 196.901 42.0967 196.847C40.7594 196.705 40.7594 194.906 42.0967 194.776C42.6076 194.721 43.1295 194.678 43.6622 194.634C43.7383 194.623 43.8035 194.623 43.8796 194.623C43.8796 194.623 141.258 194.656 141.595 194.678C142.802 194.732 143.987 194.83 145.182 194.961C146.28 195.07 146.27 196.542 145.182 196.662Z" fill="#C6C6C6"/>
<path d="M67.8963 178.109C65.7328 176.593 63.7433 174.609 61.1667 174.053C59.2424 173.639 57.242 174.097 55.2742 174.119C51.3821 174.162 47.5118 172.429 44.9569 169.497C42.4021 166.564 41.1953 162.477 41.7606 158.629C42.663 152.535 47.6314 147.183 46.8595 141.078C46.3594 137.078 43.4892 133.862 41.2497 130.515C37.662 125.141 35.4985 118.077 38.2382 112.223C41.217 105.89 48.7512 103.154 53.176 97.7253C56.2853 93.91 57.7203 88.9173 60.9166 85.1783C64.0803 81.4829 68.679 79.3464 73.3213 77.9292C79.4747 76.0543 86.1064 75.2585 92.3468 76.8282C99.6309 78.6487 105.969 83.7067 109.72 90.2255C113.471 96.7442 114.656 104.636 113.362 112.038C112.677 115.952 111.34 120.018 112.568 123.789C113.818 127.648 117.406 130.166 120.342 132.957C123.07 135.54 125.419 138.658 126.473 142.266C127.539 145.875 127.158 150.028 124.886 153.026C123.549 154.791 121.646 156.067 120.265 157.811C116.069 163.087 117.689 170.903 115.297 177.215C112.427 184.802 103.034 189.173 95.4018 186.48C92.0315 185.292 89.1723 182.992 85.9977 181.335C80.0291 178.218 73.3756 181.957 67.8963 178.109Z" fill="#F6F6F6"/>
<path d="M72.5701 113.674C72.5701 113.674 72.2766 115.004 71.7765 116.988C70.9068 120.443 69.3956 125.883 67.7105 129.633C67.1451 130.886 66.5689 131.954 65.971 132.696C62.8399 136.664 50.2831 127.572 48.6741 126.395C48.5654 126.308 48.4349 126.275 48.3044 126.275C47.4129 126.264 43.8905 126.079 43.934 123.615C43.9992 120.934 45.8474 117.554 49.8808 121.37C52.3705 123.713 61.1657 126.635 61.1657 126.635L64.025 108.071C64.1772 107.057 65.4057 106.632 66.1449 107.34C67.7213 108.823 70.1457 111.166 72.5701 113.674Z" fill="#F5A784"/>
<path d="M71.779 116.976C70.9093 120.431 69.3981 125.871 67.713 129.621C67.6695 124.269 67.5391 116.9 67.5391 116.9C69.072 116.158 70.507 116.344 71.779 116.976Z" fill="#E0855C"/>
<path d="M81.7898 146.299C79.4523 147.956 76.8649 149.548 74.2883 151.117C73.0598 151.87 71.8856 152.622 70.7658 153.352C65.1778 157.08 61.3074 160.416 61.3074 160.416C62.6012 161.975 63.9601 165.572 65.1886 169.66C67.6456 177.857 69.6134 188.093 69.6134 188.093C67.3847 190.132 65.5039 189.238 65.5039 189.238C63.7536 185.837 59.9919 178.653 56.8283 171.993C53.8712 165.768 51.4468 160.013 51.6751 158.181C51.9034 156.383 56.7196 151.063 61.7205 145.983C67.2434 140.369 72.9837 135.028 72.9837 135.028C72.9837 135.028 76.3213 131.332 80.1699 129.054C82.8226 127.484 85.7362 126.59 87.954 128.051C88.889 128.672 89.7153 129.719 90.3349 131.31C90.4111 131.507 90.4872 131.703 90.5415 131.899C92.2919 137.36 87.8888 142.004 81.7898 146.299Z" fill="#F5A784"/>
<path d="M126.809 168.407C120.699 168.701 114.339 169.388 109.207 169.802C104.772 170.151 101.238 170.314 99.5533 169.813C96.2483 168.854 90.8886 161.027 87.3335 155.304C85.2135 151.892 83.735 149.221 83.735 149.221C83.735 149.221 82.8544 148.055 81.7889 146.289C78.9623 141.569 74.8636 132.554 82.9305 130.112C86.3768 129.065 88.7142 129.839 90.5733 131.878C93.052 134.603 94.6937 139.596 97.0202 145.558C97.6073 147.063 103.413 161.496 103.413 161.496C105.054 161.114 107.033 160.961 109.142 160.972C117.253 161.016 127.265 163.447 127.265 163.447C129.114 165.834 126.809 168.407 126.809 168.407Z" fill="#F5A784"/>
<path d="M70.2673 96.2536C72.6047 95.5996 74.9421 94.9128 77.2578 94.1606C78.6168 93.7137 80.1171 93.6919 80.6172 92.1222C81.0194 90.8686 80.6824 89.2988 79.9214 88.2741C79.1821 87.2931 78.0515 86.639 76.8556 86.3556C75.6597 86.0722 74.3986 86.1267 73.1918 86.3665C71.4741 86.7044 69.7128 87.5002 68.8431 89.0154C68.2451 90.0619 68.1582 91.2828 68.2343 92.4601C68.3213 93.6374 68.6909 94.346 69.2671 95.3597C69.3432 95.4905 69.8542 96.5588 70.126 96.4498C70.2021 96.4171 70.2455 96.2536 70.2673 96.2536Z" fill="#3B2645"/>
<path d="M69.6344 94.3893C69.6344 94.3893 68.4493 93.4627 67.7535 94.7926C67.0578 96.1225 69.1125 97.9539 70.3628 97.7903C70.3628 97.7794 69.8844 94.8471 69.6344 94.3893Z" fill="#E0855C"/>
<path d="M89.9764 103.775C89.7263 105.246 88.7913 110.577 88.8131 115.068C88.8131 115.428 88.824 115.755 88.8348 116.082C88.9544 118.404 90.1394 129.348 90.3243 131.071C90.3351 131.212 90.3569 131.3 90.3569 131.3C82.8663 135.202 74.2124 135.039 73.1143 135.028C73.0382 135.028 72.9947 135.028 72.9947 135.028C72.973 134.93 72.9186 134.788 72.8425 134.559C72.1685 132.542 69.5919 124.247 67.5045 116.921C67.4719 116.812 67.4393 116.703 67.4066 116.583C66.3303 112.801 64.7322 109.934 64.3082 107.732C64.1451 106.925 66.7109 105.988 67.9502 105.53C68.1351 105.464 68.3199 105.399 68.5156 105.334C69.5049 104.985 70.516 104.701 71.3205 104.494C71.8097 104.374 72.9947 104.102 72.9947 104.102L72.4729 99.676C72.6142 99.676 72.7773 99.676 72.9186 99.6542C73.2122 99.6433 73.4948 99.6106 73.7557 99.567C74.1254 99.5016 74.4624 99.4362 74.7668 99.3381C74.9299 99.2836 75.0821 99.24 75.2234 99.1855C75.43 99.1092 75.6474 99.022 75.8431 98.9348C76.1693 98.7931 76.4954 98.6296 76.7781 98.4551C76.8651 98.4006 76.9629 98.357 77.039 98.2916C77.0716 98.2807 77.0934 98.2698 77.1042 98.248C77.1695 98.2044 77.2456 98.1608 77.3108 98.1172C77.7239 97.8338 78.0827 97.5395 78.3545 97.2887C78.5393 97.1143 78.6915 96.9726 78.8111 96.8418C78.8546 96.7982 78.8655 96.7764 78.8872 96.7546C78.9524 96.6783 79.0068 96.6238 79.0394 96.5693C79.0938 96.5039 79.1372 96.4603 79.1481 96.4385L79.159 96.5366C79.159 96.6129 79.159 96.6783 79.1699 96.7437C79.2242 97.4741 79.3221 98.4115 79.4851 99.3272C79.5721 99.9595 79.6808 100.592 79.7787 101.137C79.9526 102.074 80.094 102.75 80.094 102.75C80.2896 102.706 80.5071 102.663 80.7136 102.641C80.7245 102.63 80.7571 102.619 80.7789 102.63C80.8985 102.608 81.0072 102.597 81.1159 102.587C81.9313 102.467 82.7358 102.401 83.4859 102.379C83.823 102.369 84.1382 102.369 84.4535 102.379C86.9866 102.445 88.8783 102.968 89.6393 103.23C89.8894 103.317 90.0199 103.535 89.9764 103.775Z" fill="#F5A784"/>
<path d="M79.2009 96.4385C79.1683 101.66 74.0912 102.379 72.7757 101.976L72.5039 99.676C76.8091 99.6324 79.2009 96.4385 79.2009 96.4385Z" fill="#E0855C"/>
<path d="M69.1558 91.0647C68.6665 91.8495 68.9275 93.3212 69.221 94.9563C70.1016 99.8944 71.8954 101.104 74.4503 100.843C77.0052 100.581 79.4078 99.055 78.9838 94.4004C78.7664 92.0676 78.6033 89.9092 77.5705 89.1025C76.0267 87.9034 70.6452 88.6556 69.1558 91.0647Z" fill="#F5A784"/>
<path d="M78.4945 93.8121C78.4945 93.8121 78.8315 91.621 80.2557 92.4386C81.6908 93.2561 80.6797 96.679 78.788 96.8425C78.788 96.8425 78.0487 94.6297 78.4945 93.8121Z" fill="#F5A784"/>
<path d="M71.3438 94.3786C71.3438 94.3786 70.9524 94.6293 70.8546 93.8663C70.7676 93.1795 71.0938 93.2013 71.0938 93.2013C71.0938 93.2013 71.3873 93.1359 71.4634 93.7355C71.5504 94.335 71.3438 94.3786 71.3438 94.3786Z" fill="#3B2645"/>
<path d="M75.6251 93.4626C75.6251 93.4626 75.2337 93.7133 75.1358 92.9503C75.0489 92.2635 75.375 92.2853 75.375 92.2853C75.375 92.2853 75.6686 92.2199 75.7447 92.8194C75.8316 93.419 75.6251 93.4626 75.6251 93.4626Z" fill="#3B2645"/>
<path d="M73.6913 95.9701C73.4738 95.981 73.0064 96.2208 72.8542 96.0028C72.7346 95.8284 72.8324 94.6184 72.8433 94.4113C72.865 93.67 72.952 93.1577 72.9085 92.2856C72.9085 92.2529 72.8433 92.242 72.8324 92.2856C72.5715 93.5174 72.6911 94.9454 72.6367 96.199C72.6367 96.2644 72.702 96.3298 72.7672 96.308C73.0825 96.2317 73.3977 96.2317 73.713 96.1663C73.8109 96.1336 73.8 95.9592 73.6913 95.9701Z" fill="#E0855C"/>
<path d="M71.3193 92.0026C70.9823 91.9154 70.4061 91.9917 70.2539 92.3514C70.2213 92.4168 70.2974 92.4932 70.3626 92.4714C70.5148 92.4278 70.6235 92.3296 70.7757 92.286C70.9388 92.2424 71.1019 92.2424 71.265 92.2533C71.4172 92.2751 71.4715 92.0462 71.3193 92.0026Z" fill="#3B2645"/>
<path d="M75.8543 91.4242C75.5933 91.0318 74.8323 91.1517 74.5714 91.4896C74.5062 91.5659 74.5823 91.675 74.6692 91.675C74.8649 91.6968 75.0497 91.5768 75.2454 91.555C75.4194 91.5332 75.5716 91.5768 75.7347 91.5986C75.8216 91.6095 75.8977 91.5005 75.8543 91.4242Z" fill="#3B2645"/>
<path d="M75.0406 96.7656C74.5622 97.0164 74.3122 97.3761 73.7468 97.4851C73.4642 97.5396 73.1815 97.5396 72.8989 97.4633C72.7358 97.4197 72.7467 97.387 72.5836 97.387C72.5292 97.387 72.5075 97.4524 72.5183 97.496C72.6488 97.9756 73.4098 97.8884 73.7795 97.8339C74.3665 97.7467 74.8993 97.4524 75.171 96.8964C75.1928 96.8201 75.1167 96.722 75.0406 96.7656Z" fill="#E0855C"/>
<path d="M98.7178 149.831C98.3916 150.071 98.0655 150.3 97.7611 150.518C97.5002 150.703 97.2501 150.878 97.0001 151.041C92.8579 153.788 89.4768 154.868 87.346 155.304C85.226 151.892 83.7474 149.221 83.7474 149.221C83.7474 149.221 82.8668 148.054 81.8014 146.289C79.464 147.945 76.8765 149.537 74.2999 151.107C73.0714 151.859 71.8972 152.611 70.7774 153.341C69.7229 152.698 68.7662 152.066 67.8964 151.456C64.711 149.199 62.7758 147.204 61.7539 145.972C67.2767 140.358 73.017 135.017 73.017 135.017C73.017 135.017 76.3546 131.322 80.2032 129.043C82.8668 128.258 85.7043 127.735 87.9874 128.04C88.9224 128.662 89.7486 129.708 90.3683 131.3C90.4444 131.496 90.5205 131.692 90.5749 131.888C93.0536 134.614 94.6953 139.606 97.0218 145.569C97.6198 147.073 98.1851 148.501 98.7178 149.831Z" fill="#AB8DA8"/>
<path d="M69.625 188.083C67.3963 190.121 65.5155 189.227 65.5155 189.227C63.7651 185.826 60.0035 178.643 56.8398 171.982C58.7859 171.666 61.7756 171.012 65.1893 169.649C67.6572 177.847 69.625 188.083 69.625 188.083Z" fill="#E8CEE5"/>
<path d="M70.7869 189.566C70.7978 189.675 70.7978 189.773 70.7761 189.882C70.7217 190.361 70.4173 190.808 70.0477 191.135C69.591 191.517 69.0148 191.746 68.4604 191.964C66.2534 192.858 64.3291 194.144 61.9808 194.776C60.5675 195.147 57.6647 195.823 57.0342 193.904C57.0342 193.904 57.0233 193.871 57.0124 193.806C56.9907 193.686 56.9581 193.479 56.9798 193.206C56.9907 193.065 57.0124 192.89 57.0668 192.727C57.2734 191.986 57.9257 191.081 59.7304 190.492C60.1218 190.361 60.4588 190.22 60.7523 190.045C60.9154 189.958 61.0567 189.86 61.1872 189.762C61.2198 189.74 61.2524 189.707 61.2742 189.686C61.459 189.522 61.6003 189.391 61.7308 189.249L61.8721 189.075C61.8939 189.053 61.9156 189.031 61.9265 189.01C61.9808 188.933 62.0461 188.846 62.0895 188.77C62.1765 188.628 62.2526 188.486 62.3178 188.345C62.3287 188.334 62.3396 188.301 62.3505 188.29C62.4809 188.029 62.557 187.821 62.644 187.625C62.9158 186.906 63.1115 186.339 63.7203 186.175C65.1662 185.805 67.2971 186.143 67.3515 187.647C67.3515 187.647 69.1562 187.429 69.3084 186.35C69.4062 185.663 69.7759 186.197 69.9172 186.557C70.1672 187.156 70.1346 187.854 70.3955 188.475C70.4282 188.563 70.4716 188.639 70.5043 188.715C70.6239 188.977 70.7434 189.228 70.7761 189.5C70.7869 189.522 70.7869 189.544 70.7869 189.566Z" fill="#3B2645"/>
<path d="M126.812 168.407C120.702 168.701 114.342 169.388 109.211 169.802C109.558 167.971 109.722 166.107 109.624 164.254C109.559 163.262 109.504 162.008 109.156 160.983C117.267 161.027 127.279 163.458 127.279 163.458C129.117 165.834 126.812 168.407 126.812 168.407Z" fill="#E8CEE5"/>
<path d="M132.421 172.92C132.334 174.381 132.084 177.356 130.062 177.367C130.062 177.367 130.029 177.367 129.953 177.357C129.801 177.346 129.551 177.302 129.235 177.149C129.138 177.106 129.04 177.051 128.931 176.986C128.3 176.561 127.637 175.645 127.637 173.759C127.637 173.345 127.605 172.974 127.529 172.647C127.485 172.473 127.442 172.309 127.387 172.146C127.366 172.113 127.355 172.08 127.344 172.037C127.257 171.83 127.181 171.677 127.105 171.535C127.061 171.448 126.996 171.35 126.952 171.274C126.931 171.241 126.931 171.23 126.909 171.208C126.876 171.165 126.844 171.11 126.8 171.067C126.67 170.903 126.539 170.751 126.398 170.62C126.387 170.609 126.365 170.587 126.354 170.576C126.333 170.554 126.311 170.533 126.289 170.522C126.126 170.369 125.963 170.227 125.811 170.096C125.224 169.606 124.735 169.246 124.767 168.614C124.854 167.121 125.854 165.191 127.279 165.605C127.279 165.605 127.637 163.818 126.659 163.338C126.039 163.022 126.659 162.847 127.039 162.815C127.692 162.771 128.333 163.022 129.018 162.956C129.105 162.946 129.192 162.935 129.29 162.924C129.572 162.891 129.844 162.858 130.116 162.913C130.149 162.913 130.17 162.913 130.192 162.924C130.801 163.065 131.225 163.567 131.442 164.112C131.66 164.668 131.703 165.278 131.736 165.878C131.921 168.265 132.551 170.489 132.421 172.92Z" fill="#3B2645"/>
<path d="M62.8855 191.386C62.3963 190.874 61.9505 190.329 61.4396 189.827C61.3852 189.773 61.3309 189.718 61.2656 189.664C61.4504 189.511 61.5918 189.369 61.7222 189.228C61.7875 189.293 61.8418 189.358 61.9071 189.413C62.4072 189.892 62.8964 190.416 63.2769 190.993C63.4508 191.255 63.1138 191.626 62.8855 191.386Z" fill="#E8CEE5"/>
<path d="M64.1881 189.904C64.2751 190.089 64.0576 190.285 63.8728 190.198C63.3401 189.925 62.9596 189.435 62.503 189.064C62.3725 188.955 62.2312 188.857 62.0898 188.759C62.1768 188.617 62.2529 188.476 62.3182 188.334C62.329 188.323 62.3399 188.29 62.3508 188.279C62.5247 188.334 62.6769 188.443 62.8183 188.541C63.3401 188.912 63.9272 189.304 64.1881 189.904Z" fill="#E8CEE5"/>
<path d="M70.7878 189.882C70.7334 190.361 70.429 190.808 70.0594 191.135C69.6028 191.517 69.0266 191.746 68.4721 191.964C66.2651 192.858 64.3408 194.144 61.9925 194.776C60.5792 195.147 57.6765 195.823 57.0459 193.904C57.0459 193.904 57.035 193.872 57.0242 193.806C57.0024 193.686 56.9698 193.479 56.9915 193.207C59.7856 195.092 62.46 193.381 65.2976 192.465C67.4067 191.779 69.5049 191.375 70.7878 189.882Z" fill="#E8CEE5"/>
<path d="M128.277 169.671C128.179 169.911 127.995 170.009 127.799 170.139C127.571 170.314 127.353 170.477 127.147 170.674C127.027 170.794 126.918 170.924 126.831 171.055C126.701 170.892 126.57 170.739 126.429 170.608C126.418 170.597 126.396 170.575 126.386 170.565C126.364 170.543 126.342 170.521 126.32 170.51C126.396 170.401 126.473 170.303 126.57 170.205C126.907 169.845 127.56 169.169 128.092 169.322C128.245 169.365 128.332 169.507 128.277 169.671Z" fill="#E8CEE5"/>
<path d="M128.788 170.958C128.44 171.405 127.81 171.655 127.364 172.037C127.277 171.83 127.201 171.677 127.125 171.535C127.527 171.143 128.071 170.663 128.625 170.652C128.788 170.652 128.897 170.816 128.788 170.958Z" fill="#E8CEE5"/>
<path d="M132.42 172.92C132.333 174.381 132.083 177.356 130.061 177.367C130.061 177.367 130.028 177.367 129.952 177.356C129.8 177.346 129.55 177.302 129.234 177.149C132.202 175.994 131.539 172.124 131.267 169.355C131.05 167.164 131.072 164.951 130.235 162.935C130.811 163.065 131.235 163.556 131.452 164.112C131.67 164.668 131.713 165.278 131.746 165.878C131.92 168.265 132.55 170.489 132.42 172.92Z" fill="#E8CEE5"/>
<path d="M97.7502 150.518C97.4893 150.703 97.2392 150.878 96.9892 151.041C94.2712 144.501 91.8142 137.764 88.2048 131.692C88.02 131.376 88.4549 131.049 88.6723 131.354C90.9227 134.428 92.26 138.211 93.8364 141.656C95.1736 144.599 96.5217 147.542 97.7502 150.518Z" fill="#E8CEE5"/>
<path d="M81.7917 146.3C79.4542 147.957 76.8668 149.548 74.2902 151.118C73.0617 151.87 71.8875 152.622 70.7677 153.353C69.7132 152.71 68.7565 152.077 67.8867 151.467C75.8557 146.91 81.6286 146.311 81.7917 146.3Z" fill="#826B80"/>
<path d="M90.368 131.3C82.8774 135.203 74.2235 135.061 73.1254 135.028C73.082 135.017 73.0385 135.006 72.995 134.995C72.9841 134.93 72.9297 134.788 72.8536 134.559C72.1796 132.543 69.603 124.247 67.5156 116.922C68.6572 113.172 68.5919 107.362 68.5267 105.345C69.516 104.996 70.5271 104.713 71.3316 104.506C71.386 106.468 71.9078 111.362 75.6694 111.493C80.1051 111.646 80.9748 105.345 81.1379 102.609C81.9533 102.489 82.7578 102.424 83.5079 102.402C83.845 102.391 84.1602 102.391 84.4755 102.402C84.2255 104.462 84.3342 106.304 84.6603 107.939C85.4322 111.907 87.4761 114.643 88.8351 116.104C88.8895 117.281 89.2265 120.628 89.5526 123.887C89.9005 127.081 90.368 131.3 90.368 131.3Z" fill="#3B2645"/>
<path d="M88.8459 116.115C88.9003 117.271 89.2373 120.617 89.5635 123.866C84.008 115.908 84.6603 107.929 84.6603 107.929C85.4322 111.897 87.4761 114.633 88.8351 116.093L88.8459 116.115Z" fill="#291B30"/>
<path d="M51.132 122.678C50.6971 124.248 49.9252 125.665 49.4469 127.202C49.2077 127.997 50.3384 128.335 50.8059 127.823C51.9691 126.537 52.5453 124.64 52.9911 122.994C53.2955 121.817 51.4473 121.522 51.132 122.678Z" fill="#AB8DA8"/>
<path d="M70.7554 102.119C71.0163 102.489 71.299 102.827 71.5817 103.176C71.6795 103.296 71.7774 103.427 71.8643 103.547C73.5495 105.912 73.843 108.637 74.6801 111.254C74.778 111.101 74.8867 110.948 74.9845 110.785C74.7345 109.76 74.5279 108.735 74.2561 107.733C74.6584 106.163 74.9845 104.735 76.1152 103.448C76.811 102.642 77.6481 101.944 78.1917 101.018C78.7353 100.102 78.931 99.0336 79.0397 97.9871C79.1484 96.9297 79.1375 95.8833 79.5833 94.9022C79.6268 94.815 79.6594 94.7278 79.6702 94.6406C79.692 94.4116 79.5615 94.1936 79.3876 94.0628C79.3115 94.0083 79.2354 93.9538 79.1375 93.9538C79.0505 93.9429 78.9418 93.9865 78.9092 94.0737C78.8875 94.1282 78.8875 94.1936 78.8983 94.2481C78.9527 94.9022 78.8549 95.5562 78.7896 96.1994C78.7135 96.8861 78.6809 97.5729 78.6048 98.2597C78.4091 100.004 77.6807 101.17 76.5283 102.424C75.1802 103.895 74.3213 105.313 74.093 107.198C73.8212 106.283 73.4842 105.378 72.995 104.517C72.3427 103.372 71.4512 102.424 70.7337 101.323C70.2336 100.56 69.9074 99.7095 69.7117 98.8265C69.6248 98.4341 69.4943 97.9653 69.516 97.562C69.5487 97.1478 69.7117 96.2975 69.4508 95.9378C69.0486 95.3818 68.8855 96.0359 68.9398 96.4174C69.0703 97.2568 69.0594 98.1179 69.2442 98.9573C69.4617 99.9493 69.9183 100.909 70.5054 101.802C70.5923 101.901 70.6684 102.01 70.7554 102.119Z" fill="#AB8DA8"/>
<path d="M79.8871 123.669C79.1913 124.465 79.3326 125.86 79.3435 126.841C79.3544 127.659 79.6044 128.476 79.4957 129.294C79.4087 129.915 79.2022 130.831 78.5933 131.147C78.3759 131.256 78.1367 131.289 77.8976 131.31C77.691 131.332 77.4736 131.343 77.2779 131.278C76.9735 131.18 76.7343 130.929 76.5386 130.678C75.7558 129.697 75.9189 128.825 75.8645 127.659C75.8102 126.547 75.4297 125.893 74.6795 125.097C72.6465 122.96 73.7119 121.129 74.3208 118.731C75.1144 115.624 75.3971 111.656 74.0816 108.658C74.0707 108.637 74.0381 108.647 74.0381 108.669C74.2012 110.631 74.6034 112.495 74.5164 114.49C74.4186 116.681 73.8424 118.578 73.2662 120.671C72.94 121.827 72.7009 123.091 73.3097 124.192C73.538 124.606 73.8859 124.923 74.212 125.26C75.3536 126.427 75.3536 127.43 75.4405 128.956C75.5384 130.635 77.18 132.651 78.9847 131.365C79.7675 130.809 79.9306 129.784 79.9197 128.89C79.9197 128.095 79.7458 127.299 79.7131 126.503C79.6914 125.827 79.6044 125.141 79.8001 124.465C79.8327 124.334 79.8871 124.203 79.9741 124.094C80.1263 123.898 80.3763 123.822 80.6155 123.745C80.746 123.702 80.8873 123.669 81.0177 123.691C81.1917 123.723 81.3222 123.843 81.4417 123.974C81.7679 124.334 81.9853 124.759 82.181 125.195C82.2245 125.293 82.2571 125.511 82.3767 125.544C82.4963 125.577 82.6594 125.489 82.6268 125.348C82.3876 124.203 81.1917 122.165 79.8871 123.669Z" fill="#AB8DA8"/>
<path d="M88.346 132.64L85.7912 133.894C85.2041 134.177 84.5083 133.938 84.2148 133.349L81.1381 127.016C80.8554 126.427 81.0946 125.729 81.6817 125.435L84.2365 124.181C84.8236 123.898 85.5194 124.138 85.8129 124.726L88.9005 131.06C89.1723 131.648 88.9331 132.357 88.346 132.64Z" fill="#E8CEE5"/>
<path d="M89.1613 103.252C89.5201 103.176 89.8897 103.285 90.1506 103.536C92.325 105.64 103.023 116.181 103.969 120.781C104.958 125.578 90.4333 129.273 88.5633 129.731C88.4329 129.763 88.3242 129.829 88.2372 129.927C87.6827 130.581 85.3453 133.088 83.5623 131.519C81.6054 129.807 80.2682 126.33 85.5845 125.697C88.8678 125.305 96.4888 120.574 96.4888 120.574L87.3348 113.532C87.3348 113.532 84.356 104.31 89.1613 103.252Z" fill="#F5A784"/>
<path d="M100.991 161.528C96.6318 161.278 92.1961 161.496 87.8257 161.506C83.4552 161.528 79.0196 161.332 74.66 161.648C74.5404 161.659 74.5404 161.833 74.66 161.844C79.0196 162.15 83.4552 161.964 87.8257 161.986C92.1961 162.008 96.6209 162.226 100.991 161.964C101.263 161.943 101.263 161.55 100.991 161.528Z" fill="#E8CEE5"/>
<path d="M132.506 143.847C127.668 143.596 122.798 143.77 117.96 143.781C113.144 143.792 108.208 143.476 103.413 143.912C103.185 143.934 103.185 144.25 103.413 144.272C108.208 144.697 113.154 144.392 117.96 144.403C122.798 144.413 127.679 144.588 132.506 144.337C132.8 144.304 132.8 143.868 132.506 143.847Z" fill="#E8CEE5"/>
<path d="M58.3498 137.546C55.0556 137.361 51.7289 137.502 48.4347 137.502C45.1623 137.502 41.7704 137.284 38.5197 137.666C38.3893 137.677 38.3893 137.851 38.5197 137.862C41.7812 138.233 45.1623 138.015 48.4347 138.015C51.7289 138.015 55.0665 138.167 58.3498 137.971C58.6324 137.971 58.6324 137.568 58.3498 137.546Z" fill="#E8CEE5"/>
<path d="M61.6893 139.999C58.2864 139.803 54.4813 139.606 51.1111 140.13C51.0567 140.141 51.0567 140.228 51.1111 140.239C54.4922 140.762 58.2864 140.577 61.6893 140.37C61.9285 140.359 61.9285 140.01 61.6893 139.999Z" fill="#E8CEE5"/>
<path d="M119.71 96.0789C115.122 95.8282 110.49 96.0026 105.902 96.0135C101.315 96.0244 96.6723 95.8609 92.0953 96.1879C91.9214 96.1988 91.9214 96.4386 92.0953 96.4604C96.6723 96.7875 101.315 96.6239 105.902 96.6348C110.49 96.6457 115.133 96.8202 119.71 96.5694C120.025 96.5476 120.025 96.0898 119.71 96.0789Z" fill="#E8CEE5"/>
</g>
<g clip-path="url(#clip2_833_413)">
<path d="M281.427 239.64C280.397 239.75 279.357 239.84 278.307 239.89C278.257 239.9 278.217 239.9 278.167 239.9C277.817 239.91 277.507 239.93 277.197 239.94C276.387 239.93 217.397 239.91 214.777 239.91C214.407 239.88 214.037 239.84 213.657 239.8C212.427 239.67 212.427 238.02 213.657 237.9C214.027 237.86 214.397 237.82 214.777 237.79C217.397 237.79 277.817 237.8 278.127 237.8C278.197 237.8 278.247 237.81 278.297 237.81C279.347 237.86 280.387 237.94 281.427 238.06C282.437 238.18 282.427 239.52 281.427 239.64Z" fill="#C6C6C6"/>
<path d="M205.448 214.63C202.048 209.12 202.198 201.64 205.808 196.27C207.378 193.93 209.568 191.92 210.448 189.24C212.138 184.1 208.508 178.94 206.708 173.84C203.988 166.14 205.568 157.3 209.838 150.33C214.098 143.36 220.808 138.12 228.128 134.49C239.678 128.77 253.648 126.88 265.508 131.92C277.368 136.97 286.128 149.92 284.018 162.63C283.148 167.88 280.578 172.9 280.838 178.22C281.198 185.4 286.568 191.26 288.828 198.09C291.688 206.74 288.978 216.95 282.238 223.08C275.488 229.2 265.088 230.92 256.718 227.33C253.448 225.93 250.378 223.77 246.838 223.45C243.028 223.11 239.538 224.86 235.958 225.83C231.168 227.13 229.018 226.3 224.748 224.21C217.748 220.77 210.268 222.44 205.448 214.63Z" fill="#F6F6F6"/>
<path d="M260.05 200.42C259.65 201.36 259.1 202.22 258.77 203.18C258.56 203.8 258.45 204.46 258.18 205.05C257.93 205.58 257.56 206.04 257.1 206.41C256.64 206.78 256.09 207.04 255.52 207.16C253.56 207.55 251.31 206.42 249.65 207.51C249.58 207.56 249.52 207.6 249.45 207.66C249.13 207.91 248.86 208.2 248.53 208.43C247.1 209.44 245.12 208.96 243.53 208.21C241.95 207.46 240.39 206.43 238.63 206.45C238.02 206.46 237.4 206.6 236.79 206.53C235.68 206.42 234.75 205.67 234.04 204.81C231.14 201.3 231.54 195.42 234.18 191.88C234.66 191.23 235.22 190.6 235.38 189.81C235.54 189.06 235.32 188.27 235.44 187.51C235.6 186.46 236.38 185.63 237.02 184.78C237.82 183.7 238.44 182.49 238.84 181.21C238.97 180.78 239.08 180.35 239.17 179.91C239.46 178.41 239.5 176.76 240.47 175.58C242.12 173.57 245.7 173.15 248.1 173.6C250.82 174.12 253.3 175.34 254.2 178.19C254.65 179.63 254.59 181.18 254.69 182.68C254.79 184.18 255.1 185.77 256.14 186.87C256.62 187.38 257.24 187.77 257.56 188.39C258.06 189.36 257.65 190.52 257.59 191.61C257.56 192.1 257.6 192.61 257.71 193.09C257.86 193.72 258.13 194.33 258.51 194.86C258.62 195.01 258.73 195.15 258.84 195.29C259.42 195.99 260.12 196.63 260.4 197.48C260.7 198.43 260.45 199.5 260.05 200.42Z" fill="#3B2645"/>
<path d="M258.817 195.28C258.817 195.3 258.817 195.33 258.807 195.35C258.647 196.16 258.187 196.88 257.807 197.61C256.647 199.87 256.287 202.53 256.787 205.01C256.877 205.47 256.997 205.94 257.087 206.41C256.627 206.78 256.077 207.04 255.507 207.16C253.547 207.55 251.297 206.42 249.637 207.51C249.567 207.56 249.507 207.6 249.437 207.66C249.077 206.03 249.297 204.27 249.687 202.62C249.747 202.37 249.787 202.06 249.577 201.91C249.447 201.82 249.287 201.84 249.127 201.84C247.997 201.87 246.997 200.97 246.577 199.91C246.157 198.85 246.207 197.66 246.387 196.53C246.557 195.41 246.837 194.29 246.857 193.14C246.867 191.42 246.247 189.73 246.427 188.02C246.597 186.36 247.537 184.81 248.917 183.89C249.317 183.62 250.917 182.75 251.357 183.26C251.607 183.55 251.057 185.2 251.027 185.62C250.917 187.33 251.297 189.12 252.427 190.45C253.607 191.85 255.397 192.58 257.177 192.95C257.347 192.98 257.527 193.02 257.687 193.07C257.837 193.7 258.107 194.31 258.487 194.84C258.587 194.99 258.707 195.14 258.817 195.28Z" fill="#291B30"/>
<path d="M266.179 222.1C260.999 224.07 254.609 225.7 249.519 226.47C248.859 226.78 244.689 231.27 242.089 227.02C241.989 226.85 241.889 226.67 241.789 226.47C240.579 226.29 239.309 226.06 237.979 225.79C233.079 224.77 227.619 223.19 223.329 221.38C218.509 219.36 215.169 217.05 215.759 214.98C216.249 213.23 220.189 212.64 225.179 212.63C232.109 212.62 241.079 213.73 245.649 214.37C249.349 213.86 255.929 213.03 261.999 212.74C268.789 212.41 274.919 212.77 275.549 214.98C276.209 217.3 271.949 219.91 266.179 222.1Z" fill="#3B2645"/>
<path d="M253.328 206.24C253.258 209.17 253.578 211.87 253.938 213.48C252.758 214.43 249.988 214.84 245.828 214.84C241.668 214.84 238.438 213.48 238.438 213.48C238.988 209.87 238.748 205.59 238.008 203.37C237.878 203 237.738 202.68 237.598 202.44C237.338 202.03 237.028 201.65 236.828 201.21C236.258 199.98 236.608 198.53 237.048 197.25C237.088 197.14 237.118 197.02 237.158 196.91C237.518 195.69 237.548 194.53 237.828 193.3C238.018 192.45 238.778 192.17 239.608 192.02C239.908 191.97 240.198 191.93 240.478 191.88C240.638 191.85 240.798 191.82 240.938 191.8C241.608 191.69 242.288 191.63 242.828 191.58C243.258 191.54 243.608 191.51 243.778 191.51C243.858 191.5 243.908 191.49 243.908 191.49C243.918 191.47 243.958 191.23 243.958 191.23C243.958 191.21 244.108 190.37 244.108 190.37L244.748 186.83C244.878 185.51 246.528 185.21 247.838 185.17C248.738 185.15 249.478 185.25 249.478 185.25L249.208 191.55C249.208 191.57 249.248 191.59 249.338 191.6C249.528 191.63 249.938 191.64 250.538 191.68C250.728 191.69 250.948 191.71 251.188 191.73C251.218 191.73 251.248 191.73 251.278 191.74C251.388 191.75 251.488 191.76 251.598 191.77C252.188 191.83 252.898 191.85 253.518 192C254.308 192.19 254.938 192.57 255.068 193.38C255.338 195.02 254.758 196.77 254.388 198.34C254.138 199.36 253.958 200.37 253.818 201.39C253.808 201.44 253.808 201.5 253.798 201.56C253.608 202.95 253.488 204.34 253.368 205.75C253.348 205.91 253.328 206.07 253.328 206.24Z" fill="#F5A784"/>
<path d="M250.038 164.67C250.058 164.68 250.078 164.7 250.098 164.71C250.078 164.68 250.058 164.67 250.038 164.67ZM264.388 174.76C263.278 173.09 261.678 171.65 260.078 170.29C259.268 169.59 258.448 168.91 257.698 168.24C256.258 166.93 254.818 165.62 253.458 164.22C252.338 163.07 250.638 161.6 250.118 160.06C250.008 159.75 249.988 159.42 249.968 159.09C249.858 158.01 249.598 156.93 249.198 155.92C249.128 155.73 249.028 155.52 248.848 155.4C248.678 155.29 248.388 155.31 248.298 155.5C248.268 155.57 248.268 155.65 248.268 155.73C248.258 157.63 247.718 160.46 248.548 162.2C249.038 163.24 250.008 164.18 250.648 165.13C251.798 166.83 252.768 168.56 253.998 170.19C254.778 171.23 258.188 175.81 259.118 177.07C259.118 177.07 257.958 180.96 255.198 185.03C254.968 185.38 254.648 185.64 254.408 185.95C251.738 189.28 250.128 190.66 249.338 191.6C248.878 192.15 248.698 192.55 248.738 193.08C249.258 199.66 253.818 201.38 253.818 201.38C253.818 201.38 267.148 178.94 264.388 174.76Z" fill="#F5A784"/>
<path d="M243.249 164.69C243.279 164.7 243.299 164.68 243.309 164.67C243.289 164.67 243.269 164.68 243.249 164.69ZM239.339 170.19C240.579 168.56 241.549 166.83 242.689 165.13C243.329 164.18 244.309 163.23 244.789 162.2C245.619 160.46 245.069 157.63 245.059 155.73C245.059 155.65 245.059 155.57 245.029 155.5C244.939 155.31 244.659 155.28 244.479 155.4C244.299 155.52 244.209 155.73 244.129 155.92C243.739 156.94 243.479 158.01 243.369 159.09C243.339 159.42 243.319 159.75 243.219 160.06C242.699 161.6 240.999 163.07 239.869 164.22C238.509 165.62 237.069 166.93 235.639 168.24C235.099 168.73 234.519 169.22 233.939 169.71C232.129 171.25 230.209 172.86 228.949 174.76C226.999 177.71 233.279 189.95 237.149 196.9C238.769 199.8 239.949 201.78 239.949 201.78C239.949 201.78 243.889 199.68 244.579 193.24C244.589 193.19 244.589 193.14 244.589 193.08C244.649 192.51 244.429 192.11 243.909 191.51C243.069 190.55 241.489 189.14 238.919 185.95C238.669 185.64 238.359 185.38 238.119 185.03C235.369 180.96 234.199 177.07 234.199 177.07C235.239 175.71 238.639 171.12 239.339 170.19Z" fill="#F5A784"/>
<path d="M253.936 213.48C252.756 214.43 249.986 214.84 245.826 214.84C241.666 214.84 238.436 213.48 238.436 213.48C238.986 209.87 238.746 205.59 238.006 203.37C237.876 203 237.736 202.68 237.596 202.44C237.336 202.03 237.026 201.65 236.826 201.21C236.256 199.98 236.606 198.53 237.046 197.25C237.086 197.14 237.116 197.02 237.156 196.91C233.286 189.96 227.006 177.71 228.956 174.77C230.216 172.87 232.136 171.26 233.946 169.72C234.556 170.31 236.996 172.72 237.266 172.99C236.246 174.35 235.246 175.71 234.226 177.07C234.216 177.09 235.386 180.98 238.136 185.04C238.376 185.39 238.686 185.65 238.936 185.96C241.496 189.15 243.086 190.56 243.906 191.5C244.126 192.04 244.376 192.64 244.596 193.25C244.996 194.36 245.356 195.48 245.456 196.17L249.216 191.34L249.206 191.56C249.206 191.58 249.246 191.6 249.336 191.61C250.126 190.67 251.736 189.29 254.406 185.96C254.656 185.65 254.966 185.39 255.196 185.04C257.956 180.97 259.116 177.08 259.116 177.08C258.186 175.82 257.256 174.57 256.316 173.31L260.066 170.3C261.666 171.66 263.276 173.1 264.376 174.77C267.136 178.94 253.796 201.4 253.796 201.4C253.786 201.45 253.786 201.51 253.776 201.57C253.586 202.96 253.466 204.35 253.346 205.76C253.336 205.93 253.306 206.09 253.306 206.25C253.256 209.17 253.576 211.87 253.936 213.48Z" fill="#FF4590"/>
<path d="M249.48 185.26L249.35 188.18C247.28 189.72 245.28 189.72 244.25 189.58L244.74 186.84C244.87 185.52 246.52 185.22 247.83 185.18C248.75 185.16 249.48 185.26 249.48 185.26Z" fill="#E0855C"/>
<path d="M252.577 181.87C252.237 181.08 251.647 181.21 251.157 181.51C251.257 180.18 251.187 179.05 250.877 178.24C249.887 175.69 244.757 174.81 242.257 177.98C241.687 178.7 241.467 180.1 241.327 181.74C240.927 186.71 243.237 188.66 244.877 188.74C246.347 188.81 249.287 188.4 250.497 185.18C251.507 185.04 253.137 183.18 252.577 181.87Z" fill="#F5A784"/>
<path d="M245.768 183.92C245.548 183.88 245.048 183.98 244.958 183.74C244.878 183.54 245.288 182.4 245.348 182.2C245.408 181.99 245.478 181.79 245.538 181.6C245.518 181.59 245.498 181.57 245.478 181.56C245.428 181.53 245.388 181.51 245.338 181.5C245.098 182.28 244.908 183.11 244.688 183.85C244.668 183.92 244.718 183.99 244.788 183.99C245.108 184 245.418 184.08 245.738 184.1C245.838 184.12 245.878 183.94 245.768 183.92Z" fill="#E0855C"/>
<path d="M244.198 179.871C243.898 179.701 243.318 179.631 243.088 179.941C243.048 180.001 243.098 180.091 243.168 180.091C243.318 180.091 243.458 180.021 243.618 180.021C243.788 180.011 243.938 180.061 244.098 180.121C244.218 180.171 244.328 179.951 244.198 179.871Z" fill="#3B2645"/>
<path d="M248.429 180.561C248.279 180.111 247.509 180.041 247.169 180.291C247.089 180.351 247.129 180.471 247.209 180.501C247.399 180.571 247.599 180.511 247.799 180.531C247.969 180.551 248.109 180.641 248.269 180.701C248.349 180.731 248.459 180.641 248.429 180.561Z" fill="#3B2645"/>
<path d="M246.226 185.13C245.916 185.26 245.676 185.43 245.326 185.43C245.046 185.43 244.756 185.28 244.486 185.36C244.446 185.37 244.406 185.42 244.436 185.46C244.626 185.77 245.146 185.82 245.476 185.81C245.826 185.8 246.246 185.69 246.446 185.37C246.536 185.22 246.386 185.06 246.226 185.13Z" fill="#E0855C"/>
<path d="M244.295 181.59C243.945 181.71 243.605 181.82 243.235 181.69C243.005 181.61 242.845 181.42 242.615 181.33C242.585 181.64 242.915 181.83 243.165 181.92C243.555 182.07 244.025 182.01 244.385 181.81C244.515 181.76 244.435 181.54 244.295 181.59Z" fill="#3B2645"/>
<path d="M248.686 181.95C248.196 182.1 247.376 182.43 247.106 181.73C247.066 181.62 246.916 181.64 246.906 181.76C246.856 182.15 247.336 182.36 247.656 182.41C248.046 182.47 248.526 182.4 248.776 182.07C248.826 182.02 248.746 181.94 248.686 181.95Z" fill="#3B2645"/>
<path d="M251.248 175.71C250.698 175.27 250.098 174.87 249.428 174.65C248.328 174.29 247.138 174.42 245.988 174.56C244.768 174.7 243.518 174.85 242.458 175.47C241.508 176.03 240.178 177.75 241.048 178.89C241.898 180 244.058 177.91 244.678 177.28C244.968 178.07 245.908 178.41 246.748 178.48C247.588 178.54 248.468 178.43 249.258 178.74C249.788 178.95 250.168 179.38 250.528 179.8C250.668 179.97 250.818 180.13 250.918 180.33C251.108 180.68 251.138 181.08 251.168 181.48C251.318 181.25 251.618 181.2 251.888 181.18C252.158 181.16 252.458 181.15 252.658 180.97C252.808 180.84 252.868 180.65 252.928 180.46C253.118 179.81 252.948 179.01 252.918 178.33C252.878 177.1 252.168 176.45 251.248 175.71Z" fill="#3B2645"/>
<path d="M244.688 227.8L223.348 221.38C218.528 219.36 215.188 217.05 215.778 214.98C216.268 213.23 220.208 212.64 225.198 212.63C229.918 214.32 236.528 218.92 244.688 227.8Z" fill="#291B30"/>
<path d="M266.178 222.1C261.718 221.77 257.668 220.73 257.668 220.73C257.668 220.73 262.618 217.22 262.008 212.74C268.798 212.41 274.928 212.77 275.558 214.98C276.208 217.3 271.948 219.91 266.178 222.1Z" fill="#291B30"/>
<path d="M267.428 226.29C265.628 227.23 262.958 228.1 259.598 228.91C255.958 229.79 251.518 230.62 246.508 231.42C240.958 232.3 236.928 233.68 236.618 231.15C236.328 228.76 243.478 228 245.678 227.65C246.108 227.58 246.938 227.16 248.038 226.5C252.448 223.86 261.178 217.37 265.998 214.64C269.458 212.68 272.198 212.98 273.888 213.58C275.448 214.13 276.678 215.66 276.808 217.54C277.158 222.57 269.718 225.1 267.428 226.29Z" fill="#F5A784"/>
<path d="M259.598 228.92C255.968 229.81 251.518 230.63 246.508 231.43C240.958 232.31 236.928 233.69 236.618 231.16C236.328 228.77 243.478 228.01 245.678 227.66C246.108 227.59 246.938 227.17 248.038 226.51C250.578 227.47 255.348 229.02 259.598 228.92Z" fill="#E0855C"/>
<path d="M214.347 217.55C214.477 215.66 215.707 214.14 217.267 213.59C218.967 212.99 221.697 212.69 225.157 214.65C231.177 218.06 243.287 227.32 245.487 227.66C247.687 228 254.837 228.77 254.547 231.16C254.237 233.7 250.207 232.32 244.657 231.43C234.997 229.89 227.477 228.26 223.737 226.3C221.457 225.09 214.007 222.57 214.347 217.55Z" fill="#F5A784"/>
<path d="M250.327 201.43C249.387 202.87 246.797 202.07 245.537 201.77C245.417 201.74 245.327 201.87 245.377 201.97C245.877 202.91 247.297 202.88 248.227 202.84C249.247 202.79 250.287 202.68 250.897 201.76C251.117 201.4 250.557 201.07 250.327 201.43Z" fill="#DE3C7C"/>
<path d="M259.116 177.07C258.186 175.81 257.256 174.56 256.316 173.3L257.696 172.19C258.436 173.21 259.446 175.06 259.116 177.07Z" fill="#DE3C7C"/>
<path d="M237.267 172.98C236.247 174.34 235.247 175.7 234.227 177.06C234.317 176.84 235.537 173.79 236.207 171.94C236.617 172.35 236.987 172.71 237.267 172.98Z" fill="#DE3C7C"/>
<path d="M235.177 157.25C234.017 157.21 232.847 157.49 231.707 157.67C230.417 157.87 229.067 158 227.827 158.41C227.587 158.49 227.627 158.85 227.887 158.86C229.037 158.9 230.207 158.66 231.347 158.5C232.637 158.32 234.007 158.25 235.247 157.83C235.567 157.73 235.517 157.26 235.177 157.25Z" fill="#E8CEE5"/>
<path d="M238.098 150.38C236.498 149.63 235.198 148.85 233.778 147.79C232.618 146.93 231.398 146.06 229.928 145.92C229.678 145.9 229.568 146.3 229.798 146.4C231.388 147.11 232.678 148.01 234.058 149.07C235.188 149.94 236.448 150.92 237.908 151.06C238.268 151.1 238.418 150.53 238.098 150.38Z" fill="#E8CEE5"/>
<path d="M246.197 140.99C246.047 139.06 246.047 137.11 245.857 135.19C245.827 134.84 245.337 134.83 245.307 135.19C245.117 137.21 245.257 139.29 245.397 141.32C245.527 143.15 245.617 145.08 246.077 146.87C246.177 147.26 246.797 147.18 246.777 146.78C246.717 144.84 246.347 142.91 246.197 140.99Z" fill="#E8CEE5"/>
<path d="M257.707 143.26C255.717 144.78 253.697 146.54 251.977 148.36C251.717 148.64 252.067 149.15 252.397 148.91C254.437 147.46 256.457 145.7 258.237 143.94C258.577 143.61 258.117 142.96 257.707 143.26Z" fill="#E8CEE5"/>
<path d="M268.01 157.14C266.4 156.62 264.48 156.73 262.8 156.66C261.12 156.59 259.25 156.37 257.62 156.84C257.46 156.89 257.46 157.12 257.62 157.17C259.24 157.65 261.11 157.49 262.8 157.58C264.51 157.66 266.32 158.02 268.01 157.79C268.37 157.75 268.3 157.24 268.01 157.14Z" fill="#E8CEE5"/>
</g>
<g clip-path="url(#clip3_833_413)">
<path d="M339.513 466.542C338.652 466.449 337.8 466.379 336.931 466.341C336.689 466.333 336.446 466.317 336.204 466.31C335.531 466.317 333.419 466.348 333.036 466.348C332.996 466.348 332.957 466.341 332.918 466.341C332.676 466.333 266.619 466.302 266.619 466.302C266.588 466.302 266.557 466.31 266.525 466.31C265.501 466.31 262.598 466.302 262.598 466.302C262.544 466.31 262.497 466.31 262.442 466.31C262.066 466.333 261.691 466.364 261.315 466.41C260.353 466.511 260.353 467.791 261.315 467.884C261.691 467.923 262.059 467.954 262.442 467.985C262.489 467.993 262.544 467.993 262.591 467.993C262.591 467.993 265.313 467.985 266.51 467.985C266.541 467.985 266.58 467.985 266.611 467.993C266.611 467.993 332.676 467.962 332.926 467.954C332.965 467.954 333.004 467.946 333.043 467.946C333.419 467.946 335.531 467.977 336.204 467.985C336.446 467.977 336.697 467.962 336.939 467.954C337.808 467.915 338.66 467.845 339.513 467.752C340.295 467.667 340.303 466.628 339.513 466.542Z" fill="#C6C6C6"/>
<path d="M318.009 377.691C322.178 379.762 322.343 385.572 324.979 389.389C329.892 396.51 341.579 394.811 347.939 400.706C351.295 403.817 352.594 408.766 351.765 413.25C350.943 417.734 348.189 421.729 344.654 424.637C342.315 426.561 339.318 428.718 339.678 431.704C339.811 432.767 340.374 433.721 340.773 434.722C342.565 439.19 340.781 444.488 337.425 447.963C334.069 451.439 329.422 453.378 324.768 454.728C320.676 455.915 316.483 456.721 312.243 457.14C309.912 457.365 307.511 457.489 305.351 458.397C303.192 459.305 301.424 460.949 299.343 462.035C294.376 464.634 288.376 463.788 282.845 462.842C275.726 461.632 268.6 460.367 261.637 458.467C259.024 457.753 256.365 456.915 254.291 455.193C252.218 453.471 250.849 450.647 251.585 448.072C252.203 445.9 254.104 444.38 255.653 442.727C257.202 441.075 258.531 438.748 257.694 436.653C256.709 434.187 253.517 433.651 251.225 432.278C248.784 430.812 247.243 428.167 246.555 425.421C245.866 422.675 245.944 419.797 246.109 416.973C246.25 414.468 246.476 411.9 247.579 409.643C249.684 405.33 254.604 403.018 259.384 402.351C263.257 401.816 265.212 401.668 267.309 397.797C269.851 393.097 271.517 387.884 274.74 383.61C277.964 379.335 283.44 376.062 288.626 377.52C291.888 378.435 294.415 381.034 297.583 382.221C301.197 383.579 304.131 382.927 306.924 380.67C309.865 378.273 314.105 375.751 318.009 377.691Z" fill="#F6F6F6"/>
<path d="M298.247 440.385C309.637 442.766 323.836 444.155 323.836 444.155C323.499 445.566 323.781 448.281 324.305 451.276C325.353 457.28 327.379 464.416 327.379 464.416C329.468 465.006 331.009 463.811 331.009 463.811C330.712 457.675 332.37 440.92 329.202 438.981C323.914 435.746 304.818 430.448 301.611 430.223C299.397 430.075 297.238 430.432 296.276 432.069C295.869 432.759 295.681 433.69 295.791 434.9C295.806 435.048 295.822 435.203 295.845 435.342C296.502 439.376 293.006 439.291 298.247 440.385Z" fill="#F5A784"/>
<path d="M300.938 402.15C300.844 402.406 300.664 402.599 300.563 402.84C300.438 403.135 300.453 403.484 300.328 403.794C300.289 403.879 300.015 404.477 299.913 404.12C299.843 404.112 299.781 404.112 299.718 404.104C298.013 403.996 296.315 403.872 294.617 403.693C294.14 403.639 293.655 403.623 293.178 403.546C292.763 403.476 292.583 403.398 292.38 403.104C292.341 403.057 292.31 403.003 292.278 402.949C291.864 402.235 291.699 401.397 291.707 400.583C291.715 400.257 291.739 399.931 291.84 399.621C291.942 399.287 292.114 398.985 292.325 398.705C292.959 397.868 293.874 397.263 294.86 396.89C294.805 396.619 294.351 396.456 294.179 396.231C293.984 395.959 293.859 395.618 293.89 395.277C293.913 395.028 293.999 394.796 294.125 394.579C294.477 393.973 295.126 393.531 295.83 393.461C296.456 393.407 297.097 393.655 297.52 394.105C297.574 394.16 297.621 394.222 297.668 394.292C298.067 394.873 298.099 395.688 297.723 396.277C297.621 396.44 297.481 396.657 297.606 396.813C297.661 396.882 297.739 396.913 297.817 396.937C298.466 397.162 299.116 397.425 299.663 397.837C300.391 398.38 300.907 399.202 301.087 400.086C301.236 400.769 301.173 401.49 300.938 402.15Z" fill="#3B2645"/>
<path d="M300.069 402.724C300.069 402.724 300.765 401.902 301.453 402.724C302.15 403.546 300.968 405.129 300.069 405.198C300.069 405.198 299.967 403.081 300.069 402.724Z" fill="#E0855C"/>
<path d="M304.951 417.843C304.936 418.083 304.92 418.331 304.897 418.579C304.545 423.513 304.036 428.928 303.848 430.813C303.841 430.944 303.778 431.503 303.778 431.503C303.778 431.503 302.652 431.798 300.876 432.023C298.396 432.333 294.664 432.496 291.011 431.503C291.011 431.503 291.003 431.449 290.995 431.34C290.87 430.114 290.072 422.318 289.806 420.705C289.767 420.472 289.72 420.232 289.673 419.991C289.587 419.58 289.493 419.169 289.392 418.758C288.68 415.965 287.53 413.142 287.162 412.288C287.1 412.133 287.154 411.955 287.303 411.869C287.812 411.551 289.188 410.861 291.105 410.434C291.238 410.411 291.363 410.38 291.504 410.357C291.887 410.287 292.286 410.225 292.709 410.194C292.951 410.171 293.194 410.147 293.444 410.14C293.46 410.132 293.483 410.132 293.499 410.14C293.647 410.124 293.796 410.116 293.945 410.116C293.945 410.116 293.945 409.628 293.921 408.945C293.906 408.549 293.89 408.099 293.859 407.642C293.827 406.982 293.749 406.315 293.686 405.796C293.679 405.741 293.671 405.695 293.663 405.648C293.663 405.594 293.694 405.617 293.749 405.656C293.788 405.687 293.835 405.718 293.89 405.757C293.906 405.765 293.921 405.78 293.937 405.796C294.062 405.881 294.195 405.958 294.344 406.052C294.578 406.191 294.868 406.339 295.204 406.478C295.259 406.501 295.314 406.517 295.368 406.54C295.384 406.548 295.408 406.556 295.423 406.564C295.494 406.595 295.556 406.61 295.634 406.633C295.869 406.703 296.112 406.781 296.362 406.827C296.511 406.858 296.667 406.882 296.831 406.905C296.941 406.92 297.058 406.928 297.175 406.944C297.41 406.967 297.653 406.967 297.903 406.951C298.114 406.944 298.318 406.928 298.521 406.889C298.631 406.882 298.732 406.858 298.842 406.835L299.053 409.069C299.053 409.077 299.139 409.992 299.139 409.992C299.139 409.992 299.209 409.992 299.335 409.992C299.382 409.992 299.436 409.992 299.491 410C299.796 410.008 300.273 410.015 300.837 410.047C301.322 410.07 301.869 410.116 302.417 410.178C302.581 410.202 302.745 410.217 302.91 410.24C303.856 410.372 305.225 410.31 305.233 410.892C305.264 412.482 305.139 415.058 304.951 417.843Z" fill="#F5A784"/>
<path d="M293.648 405.578C294.454 409.209 298.139 408.96 298.999 408.479L298.843 406.843C295.815 407.448 293.648 405.578 293.648 405.578Z" fill="#E0855C"/>
<path d="M299.913 400.342C300.375 400.816 300.414 401.878 300.453 403.057C300.57 406.626 299.491 407.735 297.652 407.929C295.814 408.123 293.897 407.425 293.498 404.12C293.303 402.468 293.092 400.94 293.694 400.226C294.601 399.163 298.497 398.884 299.913 400.342Z" fill="#F5A784"/>
<path d="M293.747 403.646C293.747 403.646 293.184 402.173 292.3 402.956C291.416 403.74 292.636 405.966 293.998 405.803C293.998 405.803 294.185 404.151 293.747 403.646Z" fill="#F5A784"/>
<path d="M292.715 403.624C292.911 403.655 293.114 403.841 293.255 403.973C293.403 404.112 293.575 404.283 293.654 404.469C293.677 404.531 293.591 404.562 293.552 404.531C293.435 404.423 293.349 404.299 293.239 404.182C293.161 404.268 293.083 404.345 292.981 404.384C292.903 404.415 292.84 404.314 292.871 404.244C292.918 404.159 293.004 404.097 293.083 404.043C292.942 403.934 292.77 403.849 292.652 403.725C292.613 403.678 292.652 403.616 292.715 403.624Z" fill="#E0855C"/>
<path d="M297.459 404.43C297.615 404.407 297.975 404.5 298.054 404.329C298.116 404.189 297.858 403.359 297.827 403.22C297.702 402.708 297.561 402.359 297.467 401.746C297.459 401.723 297.506 401.707 297.522 401.73C297.889 402.545 298.022 403.553 298.241 404.422C298.257 404.469 298.218 404.523 298.163 404.523C297.928 404.523 297.709 404.569 297.475 404.569C297.404 404.569 297.381 404.438 297.459 404.43Z" fill="#E0855C"/>
<path d="M298.53 401.32C298.749 401.211 299.172 401.18 299.328 401.405C299.359 401.444 299.32 401.514 299.265 401.506C299.156 401.498 299.054 401.444 298.945 401.436C298.827 401.428 298.71 401.451 298.6 401.49C298.499 401.529 298.428 401.366 298.53 401.32Z" fill="#3B2645"/>
<path d="M295.25 401.591C295.376 401.281 295.931 401.25 296.166 401.444C296.22 401.49 296.181 401.575 296.127 401.591C295.986 401.63 295.845 401.583 295.704 401.591C295.579 401.599 295.477 401.653 295.36 401.7C295.305 401.715 295.227 401.645 295.25 401.591Z" fill="#3B2645"/>
<path d="M296.387 402.569C296.145 402.468 295.863 402.46 295.605 402.484C295.386 402.499 295.104 402.53 294.948 402.701C294.932 402.716 294.932 402.747 294.963 402.755C295.175 402.786 295.394 402.693 295.605 402.677C295.855 402.654 296.09 402.709 296.34 402.724C296.426 402.732 296.465 402.6 296.387 402.569Z" fill="#3B2645"/>
<path d="M299.123 402.344C298.88 402.344 298.63 402.414 298.442 402.569C298.332 402.662 298.473 402.809 298.583 402.755C298.778 402.67 298.943 402.6 299.162 402.607C299.334 402.615 299.482 402.724 299.647 402.708C299.717 402.701 299.756 402.639 299.725 402.576C299.623 402.375 299.326 402.344 299.123 402.344Z" fill="#3B2645"/>
<path d="M298.404 405.423C298.052 405.493 297.739 405.61 297.371 405.548C297.035 405.493 296.8 405.292 296.495 405.183C296.433 405.16 296.394 405.237 296.417 405.284C296.746 405.912 297.989 405.997 298.498 405.586C298.576 405.517 298.49 405.408 298.404 405.423Z" fill="#E0855C"/>
<path d="M343.995 409.736C341.664 409.426 335.382 409.798 335.249 409.899C333.583 410.248 324.172 412.18 322.326 412.25C320.793 412.304 314.558 411.637 310.13 411.148C309.23 411.047 308.401 410.954 307.697 410.877C307.306 410.838 303.41 410.24 303.41 410.24C300.883 409.961 301.908 411.342 301.681 413.165C301.634 413.522 301.666 413.91 301.783 414.329C301.994 415.065 302.55 415.647 303.246 415.973C304.052 416.345 306.641 416.656 309.708 416.881C310.083 416.912 310.459 416.935 310.85 416.958C315.794 417.276 321.551 417.362 323.249 417.113C327.419 416.501 333.966 413.933 336.352 412.956C336.376 412.948 336.399 412.948 336.423 412.94C338.425 412.265 340.319 412.661 342.368 412.436C342.454 412.428 342.556 412.405 342.587 412.327C342.603 412.288 342.595 412.242 342.579 412.195C342.407 411.707 341.641 411.939 341.32 411.652C341.586 411.42 342.063 411.373 342.399 411.21C343.017 410.908 343.573 410.481 344.144 410.109C344.214 410.062 344.3 410 344.3 409.907C344.285 409.806 344.12 409.76 343.995 409.736Z" fill="#F5A784"/>
<path d="M251.461 409.736C253.793 409.426 260.074 409.798 260.207 409.899C261.874 410.248 271.285 412.18 273.131 412.25C274.664 412.304 280.899 411.637 285.327 411.148C286.226 411.047 287.055 410.954 287.759 410.877C288.151 410.838 292.046 410.24 292.046 410.24C294.573 409.961 293.548 411.342 293.775 413.165C293.822 413.522 293.791 413.91 293.674 414.329C293.462 415.065 292.907 415.647 292.211 415.973C291.405 416.345 288.816 416.656 285.749 416.881C285.374 416.912 284.998 416.935 284.607 416.958C279.663 417.276 273.905 417.362 272.208 417.113C268.038 416.501 261.49 413.933 259.104 412.956C259.081 412.948 259.057 412.948 259.034 412.94C257.031 412.265 255.138 412.661 253.089 412.436C253.002 412.428 252.901 412.405 252.869 412.327C252.854 412.288 252.862 412.242 252.877 412.195C253.049 411.707 253.816 411.939 254.137 411.652C253.871 411.42 253.394 411.373 253.057 411.21C252.439 410.908 251.884 410.481 251.313 410.109C251.242 410.062 251.156 410 251.156 409.907C251.172 409.806 251.328 409.76 251.461 409.736Z" fill="#F5A784"/>
<path d="M301.166 431.115C301.205 431.278 297.45 449.251 287.14 454.41C280.412 457.776 272.996 459.972 265.603 461.337C265.298 461.391 264.993 461.453 264.688 461.492C264.649 462.307 264.758 463.346 265.134 464.068C265.439 464.649 265.791 465.247 266.448 465.487C266.565 465.534 266.691 465.565 266.792 465.642C267.058 465.859 266.949 466.333 266.667 466.534C266.385 466.736 266.01 466.759 265.666 466.767C264.484 466.798 263.155 466.891 262.591 465.728C262.247 465.006 261.965 464.238 261.715 463.478C261.316 462.276 260.119 459.041 261.754 458.614C267.222 457.187 281.045 449.973 283.361 448.669C285.458 447.49 287.578 435.125 291.004 431.34C294.43 427.562 300.571 428.446 301.166 431.115Z" fill="#F5A784"/>
<path d="M327.06 463.284C327.107 463.656 327.138 464.029 327.154 464.401C327.201 465.293 326.512 466.348 327.428 467C327.913 467.349 328.577 467.295 329.141 467.326C330.377 467.395 331.621 467.349 332.864 467.31C333.678 467.287 334.492 467.248 335.305 467.209C335.978 467.17 337.042 467.295 337.613 466.938C337.683 466.891 337.762 466.837 337.777 466.752C337.793 466.682 337.769 466.604 337.73 466.542C337.582 466.294 337.292 466.17 337.018 466.069C335.775 465.642 334.445 465.487 333.216 465.037C332.27 464.688 331.339 464.106 330.799 463.237C330.416 462.617 330.385 461.919 329.641 461.593C328.46 461.065 326.896 461.903 327.06 463.284Z" fill="#F5A784"/>
<path d="M304.899 418.579C304.547 423.512 304.039 428.927 303.851 430.812C303.092 431.146 302.068 431.572 300.886 432.022C298.406 432.332 294.675 432.495 291.022 431.502C291.022 431.502 291.014 431.448 291.006 431.339C290.881 430.114 290.083 422.318 289.817 420.704C289.778 420.472 289.731 420.231 289.684 419.991C289.598 419.58 289.504 419.168 289.402 418.757C290.192 417.656 291.374 415.181 291.116 410.434C291.249 410.41 291.374 410.379 291.515 410.356C291.898 410.286 292.297 410.224 292.719 410.193C292.938 412.055 293.814 417.004 296.889 416.934C300.401 416.849 300.816 412.544 300.847 410.046C301.332 410.069 301.88 410.116 302.427 410.178C302.427 412.001 302.639 417.051 304.899 418.579Z" fill="#E8CEE5"/>
<path d="M331.025 458.311C328.944 459.63 325.846 458.536 325.846 458.536C323.179 453.649 322.975 444.752 322.975 444.752C322.975 444.752 307.705 443.627 301.658 443.627C300.344 443.627 299.35 443.891 298.537 444.356C295.572 446.047 294.852 450.368 289.626 454.409C282.961 459.568 270.554 460.289 270.554 460.289C268.755 458.963 268.857 455.883 268.857 455.883C268.857 455.883 270.734 453.603 274.262 451.625C274.904 451.26 275.608 450.903 276.359 450.577C281.076 448.529 283.352 446.784 283.493 446.676C285.832 438.802 290.956 430.796 290.956 430.796C298.341 432.511 303.926 430.191 303.926 430.191C307.15 430.191 327.458 436.684 330.117 438.802C332.777 440.92 333.114 456.993 331.025 458.311Z" fill="#AB8DA8"/>
<path d="M322.97 444.752C322.97 444.752 307.7 443.627 301.653 443.627C300.338 443.627 299.345 443.891 298.531 444.356C298.555 444.194 299.212 440.835 305.235 441.005C311.416 441.184 322.97 444.752 322.97 444.752Z" fill="#826B80"/>
<path d="M276.093 454.503C275.616 454.34 275.022 454.495 274.521 454.51C274.075 454.526 273.543 454.417 273.16 454.673C273.089 454.72 273.066 454.821 273.136 454.883C273.496 455.193 274.075 455.139 274.529 455.139C275.053 455.139 275.702 455.208 276.164 454.937C276.336 454.828 276.289 454.572 276.093 454.503Z" fill="#E8CEE5"/>
<path d="M283.602 452.346C283.086 452.276 282.663 453.068 282.421 453.44C282.077 453.967 281.803 454.557 281.725 455.185C281.693 455.426 282.069 455.511 282.178 455.309C282.452 454.797 282.671 454.262 282.992 453.773C283.226 453.417 283.845 452.99 283.798 452.532C283.782 452.424 283.719 452.362 283.602 452.346Z" fill="#E8CEE5"/>
<path d="M287.405 446.358C286.974 446.234 286.568 446.544 286.184 446.714C285.676 446.947 285.183 447.188 284.737 447.513C284.541 447.653 284.651 447.956 284.901 447.901C285.41 447.785 285.887 447.599 286.364 447.397C286.763 447.226 287.35 447.102 287.545 446.691C287.608 446.559 287.561 446.404 287.405 446.358Z" fill="#E8CEE5"/>
<path d="M293.013 443.976C292.716 444.372 292.52 444.837 292.301 445.279C292.098 445.691 291.879 446.094 291.722 446.521C291.597 446.846 292.121 447.056 292.285 446.761C292.505 446.365 292.669 445.931 292.849 445.512C293.036 445.062 293.263 444.605 293.373 444.131C293.412 443.899 293.138 443.806 293.013 443.976Z" fill="#E8CEE5"/>
<path d="M290.755 436.646C290.724 436.475 290.482 436.498 290.435 436.646C290.106 437.693 290.122 438.903 290.067 439.997C290.044 440.447 290.74 440.439 290.771 439.997C290.834 438.903 290.974 437.716 290.755 436.646Z" fill="#E8CEE5"/>
<path d="M296.966 435.319C296.778 434.869 296.246 434.59 295.855 434.326C295.519 434.101 294.979 433.698 294.556 433.83C294.47 433.853 294.416 433.946 294.439 434.031C294.533 434.411 295.057 434.667 295.362 434.877C295.738 435.141 296.137 435.606 296.59 435.699C296.786 435.746 297.068 435.552 296.966 435.319Z" fill="#E8CEE5"/>
<path d="M304.303 437.856C303.247 437.879 302.066 438.011 301.033 438.267C300.791 438.329 300.853 438.67 301.088 438.686C302.152 438.755 303.333 438.662 304.389 438.492C304.757 438.437 304.663 437.848 304.303 437.856Z" fill="#E8CEE5"/>
<path d="M307.494 432.829C307.095 432.557 306.532 432.651 306.062 432.627C305.546 432.604 305.014 432.534 304.506 432.635C304.373 432.666 304.349 432.86 304.466 432.922C304.928 433.178 305.491 433.24 306.008 433.31C306.493 433.372 307.048 433.519 307.486 433.263C307.666 433.163 307.65 432.938 307.494 432.829Z" fill="#E8CEE5"/>
<path d="M312.189 437.801C312.095 437.382 311.774 436.995 311.539 436.638C311.305 436.273 311.078 435.87 310.773 435.567C310.608 435.397 310.303 435.567 310.374 435.8C310.499 436.211 310.741 436.607 310.945 436.979C311.148 437.351 311.336 437.817 311.657 438.104C311.899 438.313 312.259 438.112 312.189 437.801Z" fill="#E8CEE5"/>
<path d="M319.47 437.661C318.594 437.367 317.538 437.281 316.646 437.553C316.404 437.63 316.467 437.948 316.701 437.972C317.577 438.065 318.414 438.142 319.275 438.352C319.729 438.46 319.901 437.809 319.47 437.661Z" fill="#E8CEE5"/>
<path d="M322.396 442.526C322.208 442.169 321.731 441.96 321.394 441.75C321.011 441.51 320.643 441.277 320.229 441.114C320.01 441.029 319.869 441.339 320.01 441.487C320.323 441.812 320.69 442.061 321.058 442.324C321.394 442.565 321.738 442.898 322.161 442.937C322.38 442.96 322.482 442.689 322.396 442.526Z" fill="#E8CEE5"/>
<path d="M327.819 440.524C327.608 440.09 326.958 439.981 326.528 439.834C325.973 439.64 325.41 439.399 324.815 439.368C324.674 439.361 324.58 439.562 324.698 439.655C325.12 439.997 325.652 440.183 326.153 440.392C326.606 440.579 327.224 440.99 327.709 440.796C327.819 440.749 327.874 440.641 327.819 440.524Z" fill="#E8CEE5"/>
<path d="M327.28 444.294C326.865 445.279 326.216 446.621 326.513 447.707C326.552 447.863 326.763 447.886 326.849 447.754C327.139 447.281 327.186 446.722 327.295 446.195C327.42 445.597 327.546 445 327.694 444.411C327.772 444.131 327.389 444.046 327.28 444.294Z" fill="#E8CEE5"/>
<path d="M327.35 454.479C327.217 454.068 326.85 453.727 326.568 453.393C326.239 453.005 325.919 452.602 325.512 452.284C325.348 452.16 325.136 452.307 325.23 452.501C325.449 452.959 325.77 453.362 326.083 453.766C326.349 454.107 326.591 454.549 326.967 454.766C327.155 454.883 327.421 454.696 327.35 454.479Z" fill="#E8CEE5"/>
<path d="M330.503 449.336C330.488 448.646 330.449 447.956 330.386 447.273C330.362 447.017 330.01 447.017 329.979 447.273C329.909 447.963 329.877 448.646 329.862 449.336C329.846 449.949 329.776 450.585 329.964 451.167C330.034 451.384 330.339 451.384 330.409 451.167C330.589 450.578 330.519 449.942 330.503 449.336Z" fill="#E8CEE5"/>
<path d="M279.667 451.33C277.696 451.726 275.725 451.726 274.254 451.625C274.895 451.26 275.599 450.903 276.35 450.578C281.068 448.53 283.344 446.784 283.485 446.676C283.485 446.676 283.579 450.531 279.667 451.33Z" fill="#826B80"/>
<path d="M277.83 400.272C274.959 399.868 272.08 399.636 269.224 399.147C267.84 398.907 266.463 398.635 265.086 398.34C263.811 398.069 262.52 397.696 261.214 397.82C261.065 397.836 261.01 398.069 261.175 398.092C266.674 399.054 272.142 400.605 277.759 400.799C278.056 400.807 278.135 400.311 277.83 400.272Z" fill="#E8CEE5"/>
<path d="M282.734 396.044C280.943 394.733 278.971 393.593 277.07 392.437C276.859 392.313 276.687 392.623 276.883 392.755C278.697 394.043 280.528 395.392 282.452 396.517C282.773 396.711 283.024 396.253 282.734 396.044Z" fill="#E8CEE5"/>
<path d="M313.489 389.078C312.198 389.939 311.048 391.056 309.898 392.088C308.78 393.081 307.411 394.097 306.62 395.369C306.55 395.486 306.691 395.61 306.8 395.548C308.06 394.842 309.093 393.64 310.164 392.693C311.369 391.63 312.699 390.645 313.825 389.505C314.029 389.296 313.747 388.908 313.489 389.078Z" fill="#E8CEE5"/>
<path d="M325.111 398.411C322.6 398.55 320.089 398.69 317.578 398.837C315.247 398.977 312.814 398.961 310.514 399.38C310.295 399.419 310.365 399.737 310.561 399.753C312.963 399.923 315.435 399.636 317.836 399.512C320.261 399.396 322.686 399.264 325.111 399.132C325.573 399.109 325.581 398.387 325.111 398.411Z" fill="#E8CEE5"/>
<path d="M295.245 395.199C295.034 396.223 296.152 396.805 296.309 396.882C295.456 396.72 294.862 396.89 294.862 396.89C294.807 396.619 294.353 396.456 294.181 396.231C293.985 395.959 293.86 395.618 293.892 395.277C293.915 395.028 294.001 394.796 294.126 394.579C294.478 393.973 295.128 393.531 295.832 393.461C296.457 393.407 297.099 393.655 297.521 394.105C296.387 393.873 295.456 394.183 295.245 395.199Z" fill="#291B30"/>
<path d="M299.227 424.505C298.812 424.482 298.366 424.668 297.999 424.808C297.748 424.909 297.506 425.025 297.255 425.134C297.029 425.227 296.802 425.312 296.567 425.405C295.933 425.025 295.8 424.66 296.168 424.304C296.645 423.311 298.124 422.752 298.961 422.093C299.962 421.301 300.948 419.75 299.063 419.409C297.185 419.067 294.111 420.084 293.062 421.713C293.008 421.79 293.109 421.875 293.188 421.837C294.165 421.356 294.924 420.658 295.98 420.285C296.364 420.146 296.763 420.045 297.169 419.967C297.686 419.874 300.056 419.401 299.383 421.077C299.141 421.682 298.124 422.131 297.6 422.488C297.044 422.868 296.465 423.249 296.027 423.761C295.652 424.195 295.01 425.149 295.581 425.677C295.996 426.064 296.591 425.801 297.036 425.63C297.295 425.529 297.545 425.397 297.795 425.289C298.57 424.73 299.125 425.033 299.469 426.189C299.211 426.445 298.914 426.654 298.601 426.84C298.39 426.964 298.585 427.29 298.789 427.158C299.336 426.809 300.4 426.126 300.322 425.351C300.267 424.777 299.735 424.528 299.227 424.505Z" fill="#AB8DA8"/>
</g>
<g clip-path="url(#clip4_833_413)">
<path d="M68.8318 362.84C68.2918 361.17 67.7618 359.4 68.1218 357.68C68.4818 355.92 69.7218 354.46 70.4818 352.82C72.9718 347.43 70.0418 341.3 69.1618 335.45C67.8318 326.62 71.7318 317.22 78.9718 311.78C86.2118 306.34 96.4918 305.1 104.862 308.64C111.342 311.38 116.632 316.7 123.502 318.26C127.902 319.26 132.502 318.6 137.012 318.47C143.592 318.28 150.312 319.26 156.192 322.15C162.072 325.04 167.052 329.98 169.112 336.1C170.782 341.06 170.522 346.54 172.552 351.38C175.612 358.68 183.142 363 189.712 367.57C193.912 370.49 198.262 374.48 198.102 379.52C197.972 383.67 194.632 386.85 190.952 388.41C186.262 390.4 181.792 389.62 176.822 389.69C160.592 389.92 144.362 390.15 128.132 390.37C126.442 390.39 124.712 390.41 123.142 389.81C121.942 389.35 120.912 388.55 119.842 387.86C116.682 385.82 114.012 385.4 110.442 385.06C106.682 384.7 103.082 383.42 99.2518 383.2C92.8618 382.83 84.8118 382.35 79.2118 379.06C73.3518 375.65 70.7818 368.89 68.8318 362.84Z" fill="#F6F6F6"/>
<path d="M200.28 389.86C199.18 389.74 198.09 389.65 196.98 389.6C196.67 389.59 107.1 389.55 107.1 389.55C107.03 389.56 106.97 389.56 106.9 389.56C106.8 389.57 106.7 389.58 106.6 389.59C106.56 389.59 72.0898 389.55 72.0898 389.55C72.0198 389.56 71.9598 389.56 71.8898 389.56C71.4098 389.59 70.9298 389.63 70.4498 389.69C69.2198 389.82 69.2198 391.47 70.4498 391.59C70.9298 391.64 71.3998 391.68 71.8898 391.72C71.9498 391.73 72.0198 391.73 72.0798 391.73C72.0798 391.73 106.53 391.68 106.54 391.68C106.66 391.69 106.78 391.7 106.9 391.71C106.96 391.72 107.03 391.72 107.09 391.72C107.09 391.72 196.68 391.68 196.99 391.67C198.1 391.62 199.19 391.53 200.28 391.41C201.28 391.31 201.29 389.97 200.28 389.86Z" fill="#C6C6C6"/>
<path d="M120.31 346.01C118.49 351.27 112.86 359.35 112.86 359.35L93.53 351.32C93.58 350.62 92.62 346.78 92.78 345.42C92.79 345.3 92.82 345.2 92.85 345.12C92.91 344.97 92.98 344.81 93.05 344.66C93.38 343.95 93.71 343.28 93.97 342.8C94.23 342.31 94.41 342.01 94.41 342.01C94.41 342.01 93.95 341.05 92.53 340.37C91.71 339.97 90.58 339.66 89.05 339.67C88.95 339.67 88.86 339.67 88.78 339.66C87.15 339.56 87.75 338.4 88.91 337.16C90.28 335.66 92.45 334.05 92.45 334.05L97.42 337.26C97.7 337.41 98.19 337.05 98.7 336.44C99.18 335.89 99.67 335.12 100.06 334.33C100.32 333.82 100.53 333.29 100.66 332.81C100.82 332.21 103.35 333.85 106.56 336.16C109.86 338.53 113.88 341.62 116.78 343.7C118.45 344.93 119.74 345.8 120.31 346.01Z" fill="#F5A784"/>
<path d="M190.651 388.45C190.191 391.19 185.491 388.22 184.371 387.55C183.691 387.14 183.091 386.89 182.351 386.62C182.221 386.57 180.841 386 180.741 386.12C180.741 386.12 179.281 385.8 176.991 385.2C173.151 384.19 166.961 382.4 161.321 380.02C152.311 376.22 146.531 374.54 142.131 373.83C141.551 373.74 140.841 373.6 140.021 373.44C134.641 372.36 124.841 369.8 119.891 365.96C116.871 363.62 114.641 361.36 113.211 359.75C111.941 358.31 111.301 357.4 111.301 357.4C111.301 357.4 112.191 357.17 113.391 355.89C114.321 354.89 115.451 353.25 116.431 350.55C116.471 350.44 116.501 350.36 116.521 350.29C116.521 350.29 116.851 350.4 117.401 350.61C119.851 351.52 126.661 354.26 126.851 356.52C126.851 356.52 126.861 356.53 126.901 356.55C127.801 356.92 145.141 364.67 145.191 364.7C148.661 366.3 180.681 382.52 181.241 382.81C183.021 383.77 185.051 384.32 186.931 385.07C188.131 385.53 190.941 386.74 190.651 388.45Z" fill="#F5A784"/>
<path d="M106.542 296.96C106.542 296.96 105.942 295.19 106.152 293.39C106.292 292.13 106.172 289.33 105.652 288.55C105.652 288.55 105.522 288.43 105.282 288.3C105.252 288.28 105.212 288.26 105.172 288.25C104.952 288.14 104.672 288.04 104.322 288.02C104.302 288.02 104.272 288.02 104.242 288.01C104.002 287.99 103.722 288.01 103.432 288.1C103.412 288.11 103.382 288.12 103.362 288.12C103.132 288.2 102.902 288.3 102.652 288.45C102.652 288.45 102.922 291.28 102.662 292.2C102.662 292.2 102.062 290.55 101.522 290.47L101.172 290.61C101.172 290.61 101.612 292.45 101.742 293.29C102.042 295.33 103.622 296.69 103.622 296.69C103.622 296.69 105.922 298.31 106.542 296.96Z" fill="#F5A784"/>
<path d="M103.433 288.1C103.413 288.11 103.383 288.12 103.363 288.12C103.583 289.37 103.593 290.63 103.643 291.92C103.643 291.94 103.683 291.95 103.693 291.92C103.913 290.65 103.743 289.36 103.433 288.1Z" fill="#E0855C"/>
<path d="M104.334 288.01C104.314 288.01 104.284 288.01 104.254 288C104.474 289.26 104.484 290.51 104.534 291.8C104.534 291.82 104.574 291.83 104.574 291.81C104.804 290.53 104.634 289.25 104.334 288.01Z" fill="#E0855C"/>
<path d="M105.282 288.3C105.252 288.28 105.212 288.26 105.172 288.25C105.362 289.44 105.372 290.63 105.422 291.84C105.422 291.86 105.462 291.87 105.462 291.84C105.712 290.66 105.552 289.46 105.282 288.3Z" fill="#E0855C"/>
<path d="M103.933 339.9C103.933 339.9 98.2035 341.68 99.7035 336.32C101.633 329.44 104.403 318.47 104.723 314.15C105.043 309.83 103.493 295.66 103.493 295.66L106.193 295.32C106.193 295.32 109.243 309.23 109.273 314.71C109.303 320.18 108.283 338.51 103.933 339.9Z" fill="#F5A784"/>
<path d="M96.4902 336.68C95.7902 338.91 93.9102 339.92 92.5302 340.38C91.7102 339.98 90.5802 339.67 89.0502 339.68C88.9502 339.68 88.8602 339.68 88.7802 339.67L88.1602 339.36C88.1602 339.36 88.4302 338.41 88.9102 337.17C90.2802 335.67 92.4502 334.06 92.4502 334.06L96.4902 336.68Z" fill="#E0855C"/>
<path d="M91.34 336.67C91.13 337.26 90.89 337.82 90.63 338.33C90 339.55 89.26 340.78 89.19 342.15C89.1 344.02 90.27 345.93 89.63 347.69C89.32 348.56 88.61 349.22 88.24 350.06C88.22 350.09 88.21 350.13 88.2 350.16C87.68 351.44 88.06 352.88 88.33 354.23C88.59 355.58 88.7 357.14 87.79 358.18C87.26 358.79 86.46 359.1 85.66 359.23C83.87 359.51 81.78 358.76 81.11 357.07C80.16 354.69 82.35 351.72 81.02 349.52C80.56 348.77 79.78 348.29 79.26 347.59C76.92 344.46 80.36 341.3 80.17 338.09C80.09 336.8 79.38 335.6 79.39 334.3C79.4 331.99 81.32 329.12 83.28 327.97C85.2 326.86 87.41 326.91 89.31 327.95C90.37 328.53 91.11 329.42 91.56 330.45C92.35 332.3 92.05 334.67 91.34 336.67Z" fill="#3B2645"/>
<path d="M89.1891 342.149C89.0991 344.019 90.2691 345.929 89.6291 347.689C89.3191 348.559 88.6091 349.219 88.2391 350.059C87.7391 349.319 87.4991 348.409 87.6291 347.529C87.7191 346.929 87.9591 346.359 88.0491 345.759C88.2291 344.519 87.7491 343.269 87.1191 342.199C86.7291 341.539 85.8291 340.399 86.1191 339.559C86.3991 338.729 87.5691 339.459 87.7091 338.429C87.7391 338.159 87.6891 337.889 87.6891 337.619C87.6791 337.179 87.7991 336.719 88.0891 336.399C88.4691 335.969 89.0891 335.809 89.6591 335.859C90.2991 335.909 90.8791 336.219 91.3291 336.669C91.1191 337.259 90.8791 337.819 90.6191 338.329C89.9991 339.549 89.2591 340.779 89.1891 342.149Z" fill="#2C1C33"/>
<path d="M91.3111 330.11C89.8611 329.34 88.5611 328.77 87.6411 328.86C83.6211 329.25 81.6011 334.04 83.2111 336.25C83.8111 337.07 84.9511 337.84 86.4311 338.58C86.0611 338.81 85.5811 339.26 85.9011 339.92C86.2811 340.71 88.0411 340.37 89.1011 339.64C92.5511 340.46 94.5311 338.17 95.2711 336.87C96.1011 335.46 95.7111 332.46 91.3111 330.11Z" fill="#F5A784"/>
<path d="M90.4419 332.269C90.4419 332.269 90.7919 331.979 90.1019 331.649C89.4819 331.359 89.4019 331.669 89.4019 331.669C89.4019 331.669 89.2519 331.929 89.7919 332.189C90.3319 332.449 90.4419 332.269 90.4419 332.269Z" fill="#3B2645"/>
<path d="M88.4888 335.859C88.4888 335.859 88.8388 335.569 88.1488 335.239C87.5288 334.949 87.4488 335.259 87.4488 335.259C87.4488 335.259 87.2988 335.519 87.8388 335.779C88.3888 336.039 88.4888 335.859 88.4888 335.859Z" fill="#3B2645"/>
<path d="M90.7519 335.029C90.8319 334.819 91.1919 334.459 91.0419 334.249C90.9119 334.079 89.7319 333.799 89.5419 333.749C89.3219 333.689 89.1319 333.639 88.9319 333.589C88.9319 333.569 88.9219 333.539 88.9219 333.519C88.9219 333.469 88.9319 333.419 88.9419 333.369C89.7319 333.589 90.5219 333.879 91.2719 334.089C91.3419 334.109 91.3719 334.189 91.3419 334.249C91.1819 334.519 91.0819 334.829 90.9219 335.109C90.8819 335.189 90.7119 335.129 90.7519 335.029Z" fill="#E0855C"/>
<path d="M88.1917 331.52C88.2117 331.17 88.4617 330.65 88.8517 330.62C88.9217 330.61 88.9717 330.7 88.9317 330.76C88.8517 330.89 88.7117 330.97 88.6317 331.1C88.5317 331.24 88.4917 331.39 88.4517 331.56C88.4217 331.7 88.1817 331.67 88.1917 331.52Z" fill="#3B2645"/>
<path d="M86.4795 335.45C86.1895 335.08 86.5296 334.4 86.9296 334.25C87.0196 334.22 87.0995 334.32 87.0795 334.4C87.0395 334.59 86.8696 334.73 86.7896 334.91C86.7196 335.07 86.7096 335.23 86.6796 335.39C86.6696 335.48 86.5395 335.52 86.4795 335.45Z" fill="#3B2645"/>
<path d="M91.5188 336.069C91.7988 335.879 92.0688 335.769 92.2588 335.469C92.4088 335.239 92.4388 334.909 92.6488 334.729C92.6788 334.699 92.7388 334.699 92.7588 334.749C92.9188 335.069 92.6788 335.539 92.4888 335.809C92.2888 336.099 91.9688 336.389 91.5988 336.389C91.4288 336.379 91.3788 336.159 91.5188 336.069Z" fill="#E0855C"/>
<path d="M82.0995 336.93C83.0195 337.83 84.0795 339.04 85.3895 339.29C88.0795 339.79 85.2495 335.71 85.0195 334.99C84.8095 334.32 84.7995 333.59 84.6295 332.9C84.5395 332.52 83.8895 331.76 83.9395 331.44C83.9895 331.11 84.6995 330.7 84.8995 330.41C85.4395 329.61 86.0895 329.33 86.7995 329.74C87.5095 330.16 87.9995 328.75 88.6995 328.98C89.3995 329.21 87.5995 328.35 87.5995 328.35L84.2195 328.95L82.2795 331.5L81.7695 334.57L82.0995 336.93Z" fill="#3B2645"/>
<path d="M98.0325 351.43C98.1425 357.47 97.2925 364.69 96.7725 367.76C96.3125 370.46 94.7825 375.58 93.3525 380.04C91.9225 384.49 90.6125 388.27 90.6125 388.27L90.4525 388.87C90.2725 389.53 89.6725 389.98 88.9925 389.97L81.6225 389.86C81.2325 389.85 81.1025 389.35 81.4225 389.14C82.8925 388.18 86.6025 387.58 87.0125 387.29C87.1525 387.19 87.3725 386.71 87.6225 386.09C87.6225 386.09 91.8125 371.88 92.1925 367.57C92.5725 363.25 90.9325 352.63 91.7225 347.13C91.8325 346.38 91.9825 345.73 92.1625 345.19C92.5925 343.88 93.1825 343.12 93.7425 342.66C94.6725 341.92 95.5425 342.03 95.5425 342.03C96.2125 342.37 96.7125 343.14 97.0925 344.22C97.7125 345.99 97.9825 348.58 98.0325 351.43Z" fill="#F5A784"/>
<path d="M116.77 343.73C115.7 346.18 113.79 350.43 110.92 354.65C110.83 354.78 110.75 354.91 110.65 355.04C110.46 355.32 110.27 355.61 110.07 355.89C109.95 356.07 109.84 356.24 109.71 356.41C109.42 356.83 109.11 357.24 108.8 357.66L98.0602 353.2C97.9902 352.93 98.0302 351.38 96.5202 349.24C95.6602 348.02 94.3102 346.64 92.1602 345.19C92.5902 343.88 93.1802 343.12 93.7402 342.66C93.8102 342.71 93.8902 342.76 93.9702 342.82C94.7302 343.32 95.8502 343.94 97.0902 344.23C98.4902 344.55 100.05 344.46 101.41 343.29C103.85 341.17 100.79 338.13 98.6902 336.47C99.1702 335.92 99.6602 335.15 100.05 334.36C101.48 335.06 103.87 336.02 106.55 336.19C109.86 338.56 113.88 341.65 116.77 343.73Z" fill="#FF4590"/>
<path d="M192.603 384.49C191.513 385.86 188.743 384.56 187.603 384C185.793 383.1 184.023 381.96 182.123 381.26C181.493 381.03 180.863 380.8 180.233 380.56C176.323 379.09 172.463 377.5 168.533 376.08C168.223 375.97 114.703 354.8 114.703 354.8C115.593 353.13 116.143 351.72 116.443 350.56C116.633 349.84 116.733 349.24 116.783 348.72C116.943 346.98 116.513 346.16 116.513 346.16C116.513 346.16 117.733 346.01 119.823 346.01C121.963 346.02 125.013 346.18 128.613 346.83C135.153 348.02 144.253 354.21 148.363 357.38C148.723 357.66 149.043 357.91 149.323 358.13C152.793 360.93 157.893 364.11 166.743 368.28C172.613 371.05 178.393 374.71 181.623 376.86C183.263 377.95 184.243 378.66 184.243 378.66C184.223 378.81 185.563 379.45 185.693 379.52C186.393 379.89 186.973 380.17 187.733 380.41C188.983 380.8 194.333 382.31 192.603 384.49Z" fill="#F5A784"/>
<path d="M148.371 357.38C147.251 360.04 146.121 362.46 145.031 364.61C144.731 365.2 144.431 365.78 144.141 366.34C139.951 364.58 122.091 357.65 116.441 355.46C117.161 354.26 117.921 352.79 118.631 351.07C119.251 349.57 119.831 347.89 120.291 346C122.391 346.03 125.271 346.22 128.621 346.82C135.151 348.02 144.251 354.21 148.371 357.38Z" fill="#3B2645"/>
<path d="M145.033 364.61C140.993 362.76 126.863 356.52 126.863 356.52C126.693 354.56 121.593 352.25 118.623 351.08C117.913 352.8 117.153 354.26 116.433 355.47C114.713 358.34 113.223 359.76 113.223 359.76C114.653 361.37 116.883 363.63 119.903 365.97C124.853 369.81 134.653 372.38 140.033 373.45C141.103 371.77 142.413 369.58 143.823 366.93C137.433 363.16 127.653 357.02 126.913 356.55C127.803 356.93 141.123 362.82 145.033 364.61Z" fill="#3B2645"/>
<path d="M178.694 381.47C175.244 379.69 171.744 378 168.324 376.16C164.894 374.32 145.084 364.65 145.024 364.62C144.724 365.21 144.424 365.79 144.134 366.35C144.024 366.55 143.924 366.74 143.824 366.94C145.404 367.87 146.774 368.66 147.754 369.18C152.764 371.82 177.914 381.18 178.694 381.47Z" fill="#E0855C"/>
<path d="M145.034 364.61C141.124 362.82 127.804 356.93 126.914 356.54C127.654 357.01 137.444 363.15 143.824 366.92C143.924 366.73 144.034 366.53 144.134 366.33C144.434 365.79 144.734 365.21 145.034 364.61Z" fill="#291B30"/>
<path d="M125.501 356.53C123.151 356.61 121.171 355.03 119.051 354.27C118.881 354.21 118.741 354.47 118.881 354.58C119.931 355.44 121.271 355.99 122.521 356.49C123.501 356.88 124.531 357.36 125.581 357.05C125.871 356.96 125.801 356.52 125.501 356.53Z" fill="#291B30"/>
<path d="M104.863 347.72C104.843 347.47 104.493 347.42 104.423 347.67C104.183 348.54 104.073 349.37 103.483 350.1C102.953 350.76 102.173 351.21 101.323 351.3C100.933 351.34 100.933 351.94 101.333 351.92C103.363 351.78 105.033 349.76 104.863 347.72Z" fill="#DE3C7C"/>
<path d="M109.523 339.97C109.433 339.63 108.873 339.71 108.913 340.07C108.993 340.89 108.883 341.63 108.423 342.33C107.943 343.06 107.283 343.22 106.613 343.69C106.373 343.86 106.533 344.2 106.823 344.15C108.663 343.81 109.983 341.81 109.523 339.97Z" fill="#DE3C7C"/>
<path d="M190.652 388.45C190.192 391.19 185.492 388.22 184.372 387.55C183.692 387.14 183.092 386.89 182.352 386.62C182.222 386.57 180.842 386 180.742 386.12C180.742 386.12 179.282 385.8 176.992 385.2C177.582 384.58 178.272 383.98 178.732 383.3C179.032 382.85 179.312 382.39 179.562 381.92C180.132 382.22 180.692 382.51 181.252 382.81C183.032 383.77 185.062 384.32 186.942 385.07C188.132 385.53 190.942 386.74 190.652 388.45Z" fill="#FF4590"/>
<path d="M192.6 384.49C191.51 385.86 188.74 384.56 187.6 384C185.79 383.1 184.02 381.96 182.12 381.26C181.49 381.03 180.86 380.8 180.23 380.56C180.77 379.36 181.2 378.11 181.62 376.87C183.26 377.96 184.24 378.67 184.24 378.67C184.22 378.82 185.56 379.46 185.69 379.53C186.39 379.9 186.97 380.18 187.73 380.42C188.98 380.8 194.33 382.31 192.6 384.49Z" fill="#FF4590"/>
<path d="M101.921 354.8L98.0713 353.2C98.0013 352.93 98.0413 351.38 96.5313 349.24C96.5213 349.24 99.5013 350.81 101.921 354.8Z" fill="#DE3C7C"/>
<path d="M97.7633 316.5C96.9233 313.63 95.6733 310.85 94.6933 308.02C93.8633 305.64 93.3333 302.77 91.7233 300.76C91.6233 300.63 91.3433 300.65 91.3733 300.86C91.4133 301.2 91.3933 301.17 91.6333 301.41C91.6033 301.57 91.6833 301.74 91.9233 301.91C92.1533 302.38 92.3433 302.87 92.5133 303.37C92.6933 303.89 92.8533 304.42 93.0133 304.94C93.4433 306.33 93.8933 307.71 94.3633 309.08C95.2333 311.63 96.0733 314.29 97.3333 316.68C97.4533 316.94 97.8433 316.75 97.7633 316.5Z" fill="#E8CEE5"/>
<path d="M136.951 302.41C133.851 304.66 131.111 307.51 128.331 310.14C125.391 312.92 122.421 315.7 119.701 318.69C119.501 318.91 119.811 319.2 120.031 319.01C122.961 316.37 125.741 313.56 128.611 310.85C131.461 308.16 134.591 305.65 137.221 302.75C137.381 302.57 137.161 302.26 136.951 302.41Z" fill="#E8CEE5"/>
<path d="M140.791 318.24C138.231 318.97 135.841 320.36 133.471 321.54C130.921 322.81 128.291 324.03 125.881 325.54C125.671 325.67 125.821 326.06 126.071 325.96C128.541 324.96 130.921 323.67 133.331 322.51C135.871 321.28 138.631 320.21 140.961 318.59C141.111 318.46 141.001 318.18 140.791 318.24Z" fill="#E8CEE5"/>
<path d="M144.13 332.49C140.28 331.8 135.96 331.51 132.08 331.97C131.81 332 131.82 332.37 132.09 332.39C136.06 332.76 140.06 332.95 144.04 333.3C144.5 333.34 144.59 332.57 144.13 332.49Z" fill="#E8CEE5"/>
</g>
<g clip-path="url(#clip5_833_413)">
<path d="M165.36 568.5C164.26 568.38 163.17 568.29 162.06 568.24C161.75 568.23 72.1797 568.19 72.1797 568.19C72.1097 568.2 72.0497 568.2 71.9797 568.2C71.8997 568.21 71.8197 568.21 71.7497 568.22C71.2197 568.22 52.4297 568.19 52.4297 568.19C52.3597 568.2 52.2997 568.2 52.2297 568.2C51.7497 568.23 51.2697 568.27 50.7897 568.33C49.5597 568.46 49.5597 570.11 50.7897 570.23C51.2697 570.28 51.7397 570.32 52.2297 570.36C52.2897 570.37 52.3597 570.37 52.4197 570.37C52.4197 570.37 65.4497 570.34 71.7597 570.33C71.8397 570.34 71.9097 570.35 71.9897 570.35C72.0497 570.36 72.1197 570.36 72.1797 570.36C72.1797 570.36 161.77 570.32 162.08 570.31C163.19 570.26 164.28 570.17 165.37 570.05C166.36 569.95 166.36 568.61 165.36 568.5Z" fill="#C6C6C6"/>
<path d="M112.289 458.12C109.039 454.83 102.489 454.1 98.4095 456.13C90.3795 460.13 90.6595 470.62 88.6195 478.02C87.3195 482.75 84.8995 487.21 81.3995 490.65C75.2795 496.67 66.4795 499.14 59.7895 504.51C52.4895 510.37 48.0895 519.93 49.1595 529.23C50.2295 538.53 57.1095 547.1 66.1695 549.45C71.7595 550.9 77.7595 550.08 83.3195 551.63C87.5595 552.81 91.3095 555.3 95.3795 556.97C100.989 559.26 107.099 559.94 113.129 560.54C119.249 561.15 125.599 561.66 131.379 559.57C138.489 557 143.799 550.71 146.689 543.72C149.039 538.05 149.999 531.81 149.459 525.7C149.099 521.65 148.099 517.63 148.309 513.57C148.579 508.26 150.909 503.28 151.929 498.06C153.419 490.52 152.099 482.46 148.279 475.79C147.339 474.14 146.189 472.53 144.529 471.61C142.889 470.71 140.949 470.6 139.079 470.57C135.099 470.52 131.079 470.75 127.149 470.12C123.219 469.48 119.269 467.86 116.769 464.75C115.109 462.67 114.169 460.03 112.289 458.12Z" fill="#F6F6F6"/>
<path d="M167.59 559.379H95.8302C95.4602 559.379 95.1602 559.079 95.1602 558.709C95.1602 558.339 95.4602 558.039 95.8302 558.039H167.58C167.95 558.039 168.25 558.339 168.25 558.709C168.25 559.079 167.96 559.379 167.59 559.379Z" fill="#AB8DA8"/>
<path d="M98.1087 562.14C97.4787 562.14 96.9688 561.63 96.9688 561V556.41C96.9688 555.78 97.4787 555.27 98.1087 555.27C98.7387 555.27 99.2487 555.78 99.2487 556.41V561C99.2387 561.64 98.7387 562.14 98.1087 562.14Z" fill="#AB8DA8"/>
<path d="M100.378 566.16C99.7483 566.16 99.2383 565.65 99.2383 565.02V552.4C99.2383 551.77 99.7483 551.26 100.378 551.26C101.008 551.26 101.518 551.77 101.518 552.4V565.02C101.518 565.65 101.008 566.16 100.378 566.16Z" fill="#AB8DA8"/>
<path d="M102.652 568.069C102.022 568.069 101.512 567.559 101.512 566.929V550.869C101.512 550.239 102.022 549.729 102.652 549.729C103.282 549.729 103.792 550.239 103.792 550.869V566.929C103.792 567.559 103.282 568.069 102.652 568.069Z" fill="#AB8DA8"/>
<path d="M164.32 562.14C164.95 562.14 165.46 561.63 165.46 561V556.41C165.46 555.78 164.95 555.27 164.32 555.27C163.69 555.27 163.18 555.78 163.18 556.41V561C163.18 561.64 163.69 562.14 164.32 562.14Z" fill="#AB8DA8"/>
<path d="M162.05 566.16C162.68 566.16 163.19 565.65 163.19 565.02V552.4C163.19 551.77 162.68 551.26 162.05 551.26C161.42 551.26 160.91 551.77 160.91 552.4V565.02C160.91 565.65 161.42 566.16 162.05 566.16Z" fill="#AB8DA8"/>
<path d="M159.769 568.069C160.399 568.069 160.909 567.559 160.909 566.929V550.869C160.909 550.239 160.399 549.729 159.769 549.729C159.139 549.729 158.629 550.239 158.629 550.869V566.929C158.639 567.559 159.149 568.069 159.769 568.069Z" fill="#AB8DA8"/>
<path d="M102.54 506.08C102.15 506.45 101.73 506.75 101.29 507.04C100.17 507.75 98.9396 508.28 97.8596 509.04C97.7196 509.14 97.5796 509.25 97.4496 509.35C95.8696 510.63 94.2296 511.58 92.4396 512.56C88.4696 514.74 84.7496 516.64 83.3296 517.36C78.4096 519.87 69.4096 521.97 66.1996 522.67C65.4596 522.84 65.0196 522.92 65.0196 522.92C65.0196 522.92 63.2196 520.56 64.8296 518.49C64.8296 518.49 78.4396 512.62 80.6496 511.15C83.3696 509.35 85.7696 506.82 88.2896 504.72C89.1896 503.97 90.0996 503.22 91.0096 502.48C93.0396 500.82 95.0996 499.21 97.1696 497.63C98.2796 496.79 99.6296 495.73 101.08 495.63C101.43 495.6 101.79 495.63 102.16 495.74C102.89 495.95 103.52 496.49 103.98 497.11C104.12 497.3 104.24 497.48 104.35 497.67C106 500.5 104.82 503.95 102.54 506.08Z" fill="#F5A784"/>
<path d="M64.8106 518.51C65.2906 518.69 65.5806 518.87 65.5806 518.87C65.5806 518.87 67.2706 521.19 66.1906 522.67C66.1806 522.69 65.8506 522.78 65.3406 522.96C64.8706 523.12 64.2506 523.35 63.5506 523.63C63.0406 523.84 61.0406 525.07 60.6006 524.65C60.5006 524.56 60.4606 524.42 60.4106 524.3C60.2406 523.8 60.0706 523.29 59.9006 522.79C59.6206 521.92 59.1606 520.46 60.1806 519.95C59.5606 520.03 58.0906 520.24 57.6706 519.63L57.6406 519.15C57.6406 519.15 59.8906 518.63 60.8706 518.3C62.4206 517.77 63.9306 518.16 64.8106 518.51Z" fill="#F5A784"/>
<path d="M109.72 534.09C95.1603 537.16 77.0203 538.95 77.0203 538.95C77.4403 540.77 77.0903 544.27 76.4203 548.13C75.4003 554 73.6703 560.71 72.8903 563.61C72.7803 564 72.4903 565.07 72.4903 565.07C69.8303 565.82 67.8403 564.28 67.8403 564.28C67.8503 564.16 67.8503 564.03 67.8503 563.91C67.8603 563.59 67.8703 563.26 67.8703 562.89C68.0103 554.1 66.3203 534.63 70.1503 532.27C76.9003 528.1 101.31 521.27 105.41 520.98C108.24 520.79 111 521.25 112.23 523.36C112.74 524.25 112.99 525.45 112.85 527.01C112.84 527.2 112.81 527.39 112.78 527.58C111.95 532.79 116.42 532.68 109.72 534.09Z" fill="#F5A784"/>
<path d="M108.98 489.15C109.1 489.3 109.25 489.45 109.45 489.6C110.09 490.08 110.82 490.52 111.63 490.51C112.18 490.51 112.69 490.23 113.23 490.3C113.63 490.35 113.95 490.66 114.39 490.65C114.79 490.64 115.22 490.42 115.33 490.04C115.46 489.6 115.14 489.1 115.31 488.68C115.53 488.12 116.32 488.15 116.85 487.87C117.45 487.54 117.67 486.81 117.84 486.15C118.05 485.35 118.25 484.55 118.46 483.76C118.61 483.2 118.75 482.62 118.72 482.04C118.68 481.46 118.43 480.86 117.93 480.55C117.22 480.11 116.21 480.34 115.59 479.79C115.28 479.52 115.14 479.1 114.82 478.84C114.08 478.25 113.01 478.84 112.06 478.85C110.78 478.86 109.73 477.78 108.46 477.58C107.49 477.43 106.47 477.86 105.82 478.6C105.23 479.28 104.9 480.26 104.91 481.16C104.92 481.94 105.31 482.35 105.64 483.06C106.23 484.3 106.03 485.9 106.95 486.92C107.41 487.43 107.99 487.74 108.4 488.3C108.63 488.62 108.77 488.89 108.98 489.15Z" fill="#3B2645"/>
<path d="M107.39 485.539C107.39 485.539 106.5 484.479 105.62 485.539C104.73 486.599 106.24 488.639 107.39 488.729C107.39 488.729 107.52 485.999 107.39 485.539Z" fill="#E0855C"/>
<path d="M122.51 502.009C122.1 503.129 121.64 504.229 121.27 505.369C121.18 505.639 121.1 505.919 121.03 506.209C120.9 506.739 120.78 507.269 120.67 507.789C120.6 508.119 120.54 508.419 120.5 508.719C120.16 510.799 119.14 520.849 118.98 522.429C118.97 522.559 118.96 522.639 118.96 522.639C114.29 523.919 109.52 523.709 106.35 523.309C104.08 523.019 102.64 522.639 102.64 522.639C102.64 522.639 102.63 522.489 102.59 522.189C102.58 522.059 102.56 521.919 102.55 521.739C102.33 519.439 101.74 513.089 101.29 507.029C101.26 506.679 101.16 505.329 101.14 505.019C100.9 501.429 100.74 498.109 100.78 496.059C100.78 495.869 100.89 495.739 101.07 495.639C101.62 495.329 102.84 495.349 103.75 495.219C103.96 495.189 104.17 495.169 104.38 495.139C104.59 495.109 104.8 495.099 105.01 495.079C105.49 495.039 105.97 494.989 106.4 494.969C107.11 494.929 107.73 494.919 108.12 494.909C108.19 494.899 108.26 494.899 108.32 494.899C108.48 494.899 108.57 494.899 108.57 494.899L108.68 493.719C108.68 493.709 108.76 492.939 108.76 492.939L108.96 490.829C109.09 490.859 109.22 490.889 109.36 490.899C109.63 490.949 109.88 490.969 110.13 490.979C110.47 490.989 110.78 490.989 111.08 490.969C111.23 490.959 111.38 490.939 111.52 490.919C111.73 490.889 111.93 490.859 112.12 490.819C112.45 490.749 112.76 490.659 113.05 490.569C113.14 490.539 113.23 490.519 113.32 490.479C113.35 490.469 113.37 490.469 113.39 490.449C113.46 490.419 113.53 490.399 113.6 490.369C114.03 490.199 114.4 489.999 114.7 489.819C114.89 489.709 115.06 489.599 115.19 489.509C115.24 489.479 115.26 489.459 115.28 489.449C115.35 489.399 115.41 489.359 115.46 489.319C115.53 489.269 115.57 489.239 115.58 489.229C115.55 489.379 115.54 489.439 115.53 489.499C115.45 490.169 115.35 491.029 115.31 491.879C115.28 492.719 114.76 493.649 115.53 494.319C115.82 494.569 116.19 494.709 116.55 494.829C117.09 495.009 117.64 495.159 118.19 495.279C118.87 495.429 119.57 495.529 120.26 495.589C120.63 495.619 121.02 495.639 121.39 495.719C121.62 495.769 121.84 495.829 122.03 495.929C122.78 496.309 123.22 497.149 123.31 497.979C123.45 499.249 122.93 500.819 122.51 502.009Z" fill="#F5A784"/>
<path d="M115.598 489.21C114.568 493.89 109.858 493.57 108.758 492.95L108.958 490.84C112.828 491.63 115.598 489.21 115.598 489.21Z" fill="#E0855C"/>
<path d="M107.588 482.47C106.998 483.08 106.948 484.45 106.898 485.97C106.748 490.57 108.128 492 110.478 492.25C112.828 492.5 115.278 491.6 115.788 487.34C116.038 485.21 116.308 483.24 115.538 482.32C114.378 480.95 109.398 480.59 107.588 482.47Z" fill="#F5A784"/>
<path d="M115.461 486.73C115.461 486.73 116.181 484.83 117.311 485.84C118.441 486.85 116.881 489.72 115.141 489.51C115.151 489.51 114.911 487.38 115.461 486.73Z" fill="#F5A784"/>
<path d="M116.779 486.699C116.529 486.739 116.269 486.979 116.089 487.149C115.899 487.329 115.679 487.549 115.579 487.789C115.549 487.869 115.659 487.909 115.709 487.869C115.859 487.729 115.969 487.569 116.109 487.419C116.209 487.529 116.309 487.629 116.439 487.679C116.539 487.719 116.619 487.589 116.579 487.499C116.519 487.389 116.409 487.309 116.309 487.239C116.489 487.099 116.709 486.989 116.859 486.829C116.919 486.769 116.859 486.689 116.779 486.699Z" fill="#E0855C"/>
<path d="M110.731 487.74C110.531 487.71 110.071 487.83 109.971 487.61C109.891 487.43 110.211 486.36 110.261 486.18C110.421 485.52 110.601 485.07 110.721 484.28C110.731 484.25 110.671 484.23 110.651 484.26C110.181 485.31 110.011 486.61 109.731 487.73C109.711 487.79 109.761 487.86 109.831 487.86C110.131 487.86 110.411 487.92 110.711 487.92C110.801 487.91 110.831 487.75 110.731 487.74Z" fill="#E0855C"/>
<path d="M109.358 483.73C109.078 483.58 108.538 483.55 108.338 483.84C108.298 483.89 108.348 483.98 108.418 483.97C108.558 483.96 108.688 483.89 108.828 483.88C108.978 483.87 109.128 483.9 109.268 483.95C109.388 483.99 109.478 483.79 109.358 483.73Z" fill="#3B2645"/>
<path d="M113.54 484.069C113.38 483.669 112.67 483.629 112.37 483.879C112.3 483.939 112.35 484.049 112.42 484.069C112.6 484.119 112.78 484.059 112.96 484.079C113.12 484.089 113.25 484.159 113.4 484.219C113.48 484.239 113.58 484.149 113.54 484.069Z" fill="#3B2645"/>
<path d="M112.101 485.34C112.411 485.21 112.771 485.2 113.101 485.23C113.381 485.25 113.741 485.29 113.941 485.51C113.961 485.53 113.961 485.57 113.921 485.58C113.651 485.62 113.371 485.5 113.101 485.48C112.781 485.45 112.481 485.52 112.161 485.54C112.051 485.55 112.001 485.38 112.101 485.34Z" fill="#3B2645"/>
<path d="M108.6 485.05C108.91 485.05 109.23 485.14 109.47 485.34C109.61 485.46 109.43 485.65 109.29 485.58C109.04 485.47 108.83 485.38 108.55 485.39C108.33 485.4 108.14 485.54 107.93 485.52C107.84 485.51 107.79 485.43 107.83 485.35C107.95 485.09 108.34 485.05 108.6 485.05Z" fill="#3B2645"/>
<path d="M109.509 489.02C109.959 489.11 110.359 489.26 110.829 489.18C111.259 489.11 111.559 488.85 111.949 488.71C112.029 488.68 112.079 488.78 112.049 488.84C111.629 489.65 110.039 489.76 109.389 489.23C109.289 489.14 109.409 489 109.509 489.02Z" fill="#E0855C"/>
<path d="M156.419 563.86C156.099 564.84 155.749 565.83 155.299 566.76C154.579 568.26 152.879 568.13 151.369 568.1C150.919 568.09 150.449 568.07 150.089 567.8C149.729 567.54 149.579 566.93 149.929 566.65C150.059 566.55 150.219 566.5 150.369 566.45C151.199 566.14 151.649 565.37 152.049 564.63C152.539 563.7 152.669 562.35 152.619 561.3C152.459 561.27 151.679 561.13 151.449 561.09C141.999 559.33 132.519 556.5 123.919 552.16C110.739 545.52 105.939 522.34 105.989 522.13C106.759 518.7 114.599 517.56 118.979 522.43C123.359 527.31 126.079 543.25 128.749 544.77C131.549 546.37 147.579 554.8 155.189 557.24C155.609 557.37 155.999 557.49 156.369 557.59C158.459 558.14 156.929 562.32 156.419 563.86Z" fill="#F5A784"/>
<path d="M72.4081 568.39C71.7881 568.84 70.9381 568.78 70.2181 568.82C68.6281 568.91 67.0381 568.85 65.4581 568.8C64.4181 568.77 63.3781 568.73 62.3381 568.67C61.4781 568.62 60.1181 568.78 59.3881 568.32C59.2981 568.26 59.1981 568.19 59.1781 568.08C59.1581 567.99 59.1881 567.89 59.2381 567.81C59.4281 567.48 59.7981 567.32 60.1481 567.2C61.7381 566.65 63.4381 566.45 65.0081 565.86C66.0881 565.46 67.1181 564.81 67.8381 563.9C67.9281 563.78 68.0181 563.67 68.0881 563.54C68.1981 563.35 68.2881 563.15 68.3781 562.96C68.6481 562.34 68.8481 561.74 69.5781 561.42C71.0881 560.75 73.0981 561.82 72.8781 563.6C72.8381 563.91 72.8081 564.21 72.7881 564.52C72.7781 564.69 72.7581 564.87 72.7581 565.04C72.6981 566.19 73.5781 567.56 72.4081 568.39Z" fill="#F5A784"/>
<path d="M125.129 526.23L129.979 533.1C129.109 533.72 128.899 534.92 129.519 535.79C130.139 536.66 131.339 536.87 132.209 536.25L134.249 534.81C135.119 534.19 135.329 532.99 134.709 532.12C134.089 531.25 132.889 531.04 132.019 531.66L127.169 524.79C128.039 524.17 128.249 522.97 127.629 522.1C127.009 521.23 125.809 521.02 124.939 521.64L122.899 523.08C122.029 523.7 121.819 524.9 122.439 525.77C123.049 526.64 124.259 526.85 125.129 526.23Z" fill="#AB8DA8"/>
<path d="M138.778 508.54C138.348 506.9 137.148 505.58 135.938 504.4C135.018 503.49 134.068 502.58 133.078 501.72C129.718 498.73 125.958 496.2 121.418 495.72C121.298 495.71 121.188 495.69 121.088 495.69C119.868 495.6 118.628 495.88 117.688 496.51C116.848 497.06 116.238 497.9 116.108 498.96C116.058 499.37 116.078 499.8 116.178 500.27C116.288 500.76 116.458 501.22 116.688 501.64C117.608 503.35 119.418 504.49 121.258 505.39C122.088 505.79 122.918 506.15 123.678 506.49C125.228 507.18 126.818 507.81 128.318 508.58C129.338 509.1 130.308 509.7 131.198 510.42C131.428 510.61 131.658 510.81 131.788 511.07C131.938 511.4 131.908 511.78 131.878 512.15C131.498 516.34 131.698 521.61 129.358 525.27C128.988 525.84 128.508 526.35 127.848 526.78C127.568 526.95 127.278 527.13 127.008 527.31C126.578 527.58 126.188 527.9 125.868 528.28C125.338 528.92 125.068 529.87 125.488 530.59C126.368 532.11 129.128 532.57 130.158 531.17C130.398 530.84 130.628 530.51 130.858 530.17C131.228 529.62 131.578 529.04 131.908 528.47C132.808 526.91 133.608 525.3 134.368 523.71C135.538 521.29 136.688 518.86 137.678 516.36C138.548 514.15 139.398 510.89 138.778 508.54ZM129.448 526.27C129.458 526.25 129.468 526.23 129.488 526.21C129.488 526.25 129.468 526.26 129.448 526.27Z" fill="#F5A784"/>
<path d="M72.4081 568.39C71.7881 568.84 70.9381 568.78 70.2181 568.82C68.4281 568.93 66.6381 568.84 64.8581 568.78C63.9881 568.75 63.1281 568.7 62.2581 568.66C61.3981 568.62 60.0981 568.76 59.3881 568.32C59.2981 568.26 59.1981 568.19 59.1781 568.08C59.1581 567.99 59.1881 567.89 59.2381 567.81C59.4281 567.48 59.7981 567.32 60.1481 567.2C61.7381 566.65 63.4381 566.45 65.0081 565.86C65.6981 565.6 66.3881 565.25 66.9781 564.78C67.5481 564.33 67.8581 563.63 67.8581 562.9C68.0281 562.89 68.2081 562.91 68.3781 562.96C69.1381 563.18 69.7681 563.82 69.8781 564.6C70.5881 565.21 71.6581 564.69 72.6081 564.54C72.6681 564.53 72.7181 564.52 72.7781 564.51C72.7681 564.68 72.7481 564.86 72.7481 565.03C72.6981 566.19 73.5781 567.56 72.4081 568.39Z" fill="#3B2645"/>
<path d="M156.419 563.86C156.099 564.84 155.749 565.83 155.299 566.76C154.579 568.26 152.879 568.13 151.369 568.1C150.919 568.09 150.449 568.07 150.089 567.8C149.729 567.54 149.579 566.93 149.929 566.65C150.059 566.55 150.219 566.5 150.369 566.45C151.199 566.14 151.649 565.37 152.049 564.63C152.539 563.7 152.669 562.35 152.619 561.3C152.459 561.27 152.889 560.47 153.409 560.37C153.679 560.32 153.949 560.31 154.209 560.23C154.819 560.03 155.229 559.4 155.329 558.75C155.409 558.26 155.259 557.74 155.189 557.25C155.609 557.38 155.999 557.5 156.369 557.6C158.459 558.14 156.929 562.32 156.419 563.86Z" fill="#3B2645"/>
<path d="M60.4999 517.05L62.7599 525.15C61.7299 525.44 61.1299 526.5 61.4199 527.53C61.7099 528.56 62.7699 529.16 63.7999 528.87L66.2099 528.2C67.2399 527.91 67.8399 526.85 67.5499 525.82C67.2599 524.79 66.1999 524.19 65.1699 524.48L62.9099 516.38C63.9399 516.09 64.5399 515.03 64.2499 514C63.9599 512.97 62.8999 512.37 61.8699 512.66L59.4599 513.33C58.4299 513.62 57.8299 514.68 58.1199 515.71C58.3999 516.74 59.4699 517.34 60.4999 517.05Z" fill="#AB8DA8"/>
<path d="M62.7883 519.82C63.0283 520.09 63.1883 520.43 63.3283 520.76C63.5683 521.37 63.7383 522.03 63.6983 522.69C63.6583 523.35 63.3683 524.01 62.8383 524.4C62.4983 524.65 62.0783 524.78 61.6583 524.87C61.3583 524.93 61.0583 524.98 60.7583 524.92C60.2283 524.81 59.7983 524.38 59.5683 523.89C59.3383 523.4 59.2683 522.85 59.2183 522.31C59.1283 521.38 59.1883 520.31 60.0583 519.75C60.8383 519.24 62.0983 519.06 62.7883 519.82Z" fill="#F5A784"/>
<path d="M133.08 501.72C132.21 504.07 130.8 506.22 128.99 507.96C128.78 508.16 128.56 508.36 128.33 508.55C126.83 507.78 125.24 507.15 123.69 506.46C122.94 506.13 122.1 505.77 121.27 505.36C121.18 505.63 121.1 505.91 121.03 506.2C120.9 506.73 120.78 507.26 120.67 507.78C120.6 508.11 120.54 508.41 120.5 508.71C120.16 510.79 119.14 520.84 118.98 522.42C118.97 522.55 118.96 522.63 118.96 522.63C114.29 523.91 109.52 523.7 106.35 523.3C104.08 523.01 102.64 522.63 102.64 522.63C102.64 522.63 102.63 522.48 102.59 522.18C102.58 522.05 102.56 521.91 102.55 521.73C102.33 519.43 101.74 513.08 101.29 507.02C100.17 507.73 98.9395 508.26 97.8595 509.02C96.4495 508.59 95.1695 507.81 94.0495 506.86C93.7895 506.64 93.5495 506.41 93.3195 506.17C92.4395 505.25 91.3195 503.87 91.0195 502.48C93.0495 500.82 95.1095 499.21 97.1795 497.63C98.2895 496.79 99.6395 495.73 101.09 495.63C101.64 495.32 102.86 495.34 103.77 495.21C103.98 495.18 104.19 495.16 104.4 495.13C104.61 495.1 104.82 495.08 105.03 495.07C105.12 497.07 105.71 499.08 107.21 500.35C109.01 501.87 111.78 501.9 113.87 500.78C114.74 500.31 115.49 499.67 116.13 498.93C116.77 498.19 117.29 497.36 117.71 496.48C117.89 496.11 118.04 495.73 118.18 495.35C118.19 495.32 118.21 495.28 118.21 495.25C118.89 495.4 119.59 495.5 120.28 495.56C120.65 495.59 121.04 495.61 121.41 495.69C125.97 496.17 129.73 498.73 133.08 501.72Z" fill="#E8CEE5"/>
<path d="M67.8099 557.2C70.4699 558.9 74.4299 557.49 74.4299 557.49C77.8399 551.19 78.0999 539.72 78.0999 539.72C78.0999 539.72 97.6199 538.27 105.35 538.27C107.03 538.27 108.3 538.61 109.34 539.21C113.13 541.39 114.05 546.96 120.73 552.17C129.25 558.82 145.11 559.75 145.11 559.75C147.41 558.04 147.28 554.07 147.28 554.07C147.28 554.07 144.88 551.13 140.37 548.58C139.55 548.11 138.65 547.65 137.69 547.23C131.66 544.59 128.75 542.34 128.57 542.2C125.58 532.05 119.03 521.73 119.03 521.73C109.59 523.94 102.45 520.95 102.45 520.95C98.3299 520.95 72.3699 529.32 68.9699 532.05C65.5799 534.78 65.1499 555.49 67.8099 557.2Z" fill="#3B2645"/>
<path d="M78.1094 539.72C78.1094 539.72 97.6294 538.27 105.359 538.27C107.039 538.27 108.309 538.61 109.349 539.21C109.319 539 108.479 534.67 100.779 534.89C92.8794 535.12 78.1094 539.72 78.1094 539.72Z" fill="#291B30"/>
<path d="M133.47 548.19C135.99 548.7 138.51 548.7 140.39 548.57C139.57 548.1 138.67 547.64 137.71 547.22C131.68 544.58 128.77 542.33 128.59 542.19C128.59 542.2 128.47 547.17 133.47 548.19Z" fill="#291B30"/>
<path d="M101.291 507.03C100.171 507.74 98.9408 508.27 97.8608 509.03C96.4508 508.6 95.1608 507.84 94.0508 506.87C97.8208 505.96 101.291 507.03 101.291 507.03Z" fill="#D6BED3"/>
<path d="M129.011 463.78C127.601 465.35 126.691 467.52 125.681 469.36C124.711 471.14 123.211 473.19 122.881 475.21C122.861 475.31 122.971 475.39 123.051 475.31C124.511 473.88 125.351 471.53 126.341 469.75C127.371 467.9 128.761 466.03 129.441 464.03C129.531 463.79 129.181 463.59 129.011 463.78Z" fill="#E8CEE5"/>
<path d="M145.26 473.28C141.64 475.09 138.16 477.31 134.73 479.45C131.46 481.49 128.05 483.52 125.08 486C124.85 486.19 125.14 486.53 125.39 486.4C128.84 484.48 132.08 482.12 135.44 480.05C138.81 477.96 142.32 476.1 145.69 474.01C146.14 473.72 145.74 473.04 145.26 473.28Z" fill="#E8CEE5"/>
<path d="M141.259 486.8C138.849 486.61 136.279 487.02 133.869 487.17C133.319 487.2 133.309 488.06 133.869 488.03C136.319 487.89 138.949 488 141.359 487.52C141.789 487.44 141.649 486.83 141.259 486.8Z" fill="#E8CEE5"/>
</g>
</g>
<defs>
<linearGradient id="paint0_linear_833_413" x1="217.727" y1="-29.6367" x2="398.367" y2="149.62" gradientUnits="userSpaceOnUse">
<stop stop-color="white" stop-opacity="0.9"/>
<stop offset="1" stop-color="white" stop-opacity="0.1"/>
</linearGradient>
<linearGradient id="paint1_linear_833_413" x1="217.727" y1="-29.6367" x2="398.367" y2="149.62" gradientUnits="userSpaceOnUse">
<stop stop-color="white" stop-opacity="0.9"/>
<stop offset="1" stop-color="white" stop-opacity="0.5"/>
</linearGradient>
<linearGradient id="paint2_linear_833_413" x1="283.554" y1="42.9591" x2="464.193" y2="222.216" gradientUnits="userSpaceOnUse">
<stop stop-color="white" stop-opacity="0.1"/>
<stop offset="1" stop-color="white" stop-opacity="0.9"/>
</linearGradient>
<clipPath id="clip0_833_413">
<rect width="375" height="578" fill="white"/>
</clipPath>
<clipPath id="clip1_833_413">
<rect width="109" height="121" fill="white" transform="translate(37 76)"/>
</clipPath>
<clipPath id="clip2_833_413">
<rect width="86.96" height="110.94" fill="white" transform="translate(203 129)"/>
</clipPath>
<clipPath id="clip3_833_413">
<rect width="106" height="91" fill="white" transform="translate(246 377)"/>
</clipPath>
<clipPath id="clip4_833_413">
<rect width="133.04" height="103.74" fill="white" transform="translate(68 288)"/>
</clipPath>
<clipPath id="clip5_833_413">
<rect width="119.26" height="115.38" fill="white" transform="translate(49 455)"/>
</clipPath>
</defs>
</svg>
