<svg width="100%" height="100%" viewBox="0 0 375 621" fill="none" xmlns="http://www.w3.org/2000/svg">
<g clip-path="url(#clip0_5_2)">
<path d="M0 0H375V558C375 592.794 346.794 621 312 621H63C28.2061 621 0 592.794 0 558V0Z" fill="#1D968B"/>
<path opacity="0.1" d="M397.603 161.079L218.112 -31.7309C248.993 -65.0288 295.189 -80.0621 340.578 -66.8949C408.128 -47.299 448.391 27.3733 430.434 99.9351C424.486 123.969 412.897 144.749 397.603 161.079Z" fill="url(#paint0_linear_5_2)" stroke="url(#paint1_linear_5_2)"/>
<path opacity="0.1" d="M291.299 79.8507L111.945 -111.557" stroke="white"/>
<path opacity="0.1" fill-rule="evenodd" clip-rule="evenodd" d="M467.242 236.603C436.251 270.259 389.713 285.51 343.975 272.241C276.133 252.561 235.742 177.589 253.759 104.787C259.773 80.485 271.535 59.4971 287.061 43.0505L467.242 236.603Z" fill="url(#paint2_linear_5_2)"/>
<circle cx="-84" cy="-66" r="172.5" stroke="white" stroke-opacity="0.4" stroke-width="3"/>
<circle cx="-34" cy="-36" r="172.5" stroke="white" stroke-opacity="0.4" stroke-width="3"/>
<circle cx="-14" cy="-6" r="172.5" stroke="white" stroke-opacity="0.4" stroke-width="3"/>
<path d="M328.5 516.125L331.278 524.676H340.269L332.995 529.961L335.774 538.512L328.5 533.227L321.226 538.512L324.005 529.961L316.731 524.676H325.722L328.5 516.125Z" fill="#FFD048"/>
<path d="M75.5 211.625L77.4918 222.37L85.4189 214.848L80.7147 224.711L91.5491 223.285L81.9457 228.5L91.5491 233.715L80.7147 232.289L85.4189 242.152L77.4918 234.63L75.5 245.375L73.5082 234.63L65.5811 242.152L70.2853 232.289L59.4509 233.715L69.0543 228.5L59.4509 223.285L70.2853 224.711L65.5811 214.848L73.5082 222.37L75.5 211.625Z" fill="#FFD048"/>
</g>
<path d="M36.5195 459.984V478.373H40.7654C40.7654 478.373 40.3621 474.713 40.7654 472.541C41.1687 470.37 45.7812 464.781 45.6419 459.984H36.5195Z" fill="#9B4B03"/>
<path d="M70.4844 459.984V478.373H74.7302C74.7302 478.373 74.3269 474.713 74.7302 472.541C75.1335 470.37 79.746 464.781 79.6067 459.984H70.4844Z" fill="#9B4B03"/>
<path d="M103.727 459.984V478.373H99.4811C99.4811 478.373 99.8845 474.713 99.4811 472.541C99.0778 470.37 94.4653 464.781 94.6047 459.984H103.727Z" fill="#9B4B03"/>
<path d="M133.125 459.984V478.373H128.88C128.88 478.373 129.283 474.713 128.88 472.541C128.476 470.37 123.864 464.781 124.003 459.984H133.125Z" fill="#9B4B03"/>
<path d="M135.353 369.21H33.6289V460.579H135.353V369.21Z" fill="#FFCB9D"/>
<path d="M107.949 369.21L108.705 460.579H135.353V369.21H107.949Z" fill="#FFDDBF"/>
<path d="M103.511 375.928H38.2031V399.179H103.511V375.928Z" fill="#9B4B03"/>
<path d="M103.511 403.814H38.2031V427.066H103.511V403.814Z" fill="#9B4B03"/>
<path d="M103.511 431.701H38.2031V454.952H103.511V431.701Z" fill="#9B4B03"/>
<path d="M63.2417 342.951L60.4258 369.099H96.5191L99.511 342.951H63.2417Z" fill="#E0E0E0"/>
<path d="M64.7308 344.836L61.9883 367.713H94.5617L97.1943 344.836H64.7308Z" fill="white"/>
<path d="M70.2061 348.68L68.5195 363.863H89.0741L90.1301 348.68H70.2061Z" fill="#9D9D9D"/>
<path d="M98.2169 354.218L105.675 369.21L96.5156 369.1L98.2169 354.218Z" fill="#EBEBEB"/>
<path d="M73.2499 388.771C73.2499 390.091 72.1793 391.162 70.8593 391.162C69.5394 391.162 68.4688 390.091 68.4688 388.771C68.4688 387.451 69.5394 386.38 70.8593 386.38C72.1793 386.38 73.2499 387.451 73.2499 388.771Z" fill="#E0E0E0"/>
<path d="M73.2499 416.929C73.2499 418.249 72.1793 419.32 70.8593 419.32C69.5394 419.32 68.4688 418.249 68.4688 416.929C68.4688 415.609 69.5394 414.538 70.8593 414.538C72.1793 414.545 73.2499 415.609 73.2499 416.929Z" fill="#E0E0E0"/>
<path d="M73.2499 445.094C73.2499 446.415 72.1793 447.485 70.8593 447.485C69.5394 447.485 68.4688 446.415 68.4688 445.094C68.4688 443.774 69.5394 442.703 70.8593 442.703C72.1793 442.703 73.2499 443.774 73.2499 445.094Z" fill="#E0E0E0"/>
<path d="M103.413 220.681L45.7383 220.116L47.3516 295.304L105.019 295.517L103.413 220.681Z" fill="#FF7100"/>
<path d="M99.6951 224.033L49.207 222.72L50.6663 290.911L101.14 291.527L99.6951 224.033Z" fill="#FAFAFA"/>
<path d="M91.0794 234.221L57.582 233.663L58.6013 281.324L92.0694 280.605L91.0794 234.221Z" fill="#FFCBA2"/>
<path d="M58.6013 281.324L91.5488 256.122L57.582 233.663L58.6013 281.324Z" fill="#FF7100"/>
<path d="M294.915 429.479C294.702 430.124 302.248 458.817 302.248 458.817L307.425 457.739L300.304 429.479H294.915Z" fill="#199A8E"/>
<path d="M335.034 425.378L324.68 458.817H330.722L340.644 427.747L335.034 425.378Z" fill="#FF7100"/>
<path d="M344.521 420.2L332.656 458.818H338.699L350.131 422.569L344.521 420.2Z" fill="#FF0000"/>
<path d="M298.582 456.44L304.624 477.366H335.035L340.644 456.44H298.582Z" fill="#FFBE00"/>
<path d="M314.275 456.441C314.267 456.441 314.245 456.367 314.209 456.228C314.165 456.067 314.113 455.854 314.047 455.59C313.908 455.003 313.71 454.174 313.461 453.118C312.962 450.94 312.251 447.83 311.371 443.979C309.633 436.212 307.227 425.481 304.544 413.503L304.727 413.65C303.876 413.65 302.96 413.65 302.043 413.65C301.141 413.65 300.239 413.65 299.403 413.65L299.586 413.415C302.285 425.408 304.705 436.146 306.45 443.913C307.301 447.771 307.99 450.896 308.474 453.074C308.701 454.138 308.877 454.966 309.002 455.561C309.053 455.832 309.097 456.045 309.134 456.206C309.163 456.353 309.171 456.426 309.163 456.426C309.156 456.426 309.134 456.353 309.097 456.213C309.053 456.052 309.002 455.839 308.936 455.575C308.797 454.988 308.591 454.16 308.342 453.103C307.836 450.925 307.103 447.815 306.208 443.964C304.426 436.197 301.97 425.466 299.227 413.489L299.176 413.254H299.418C300.254 413.254 301.156 413.254 302.058 413.254C302.974 413.254 303.891 413.254 304.742 413.254H304.896L304.925 413.401C307.565 425.393 309.926 436.131 311.635 443.898C312.463 447.756 313.138 450.881 313.607 453.059C313.827 454.123 314.003 454.952 314.121 455.546C314.172 455.817 314.216 456.03 314.245 456.191C314.267 456.367 314.275 456.441 314.275 456.441Z" fill="#199A8E"/>
<path d="M343.988 478.247C343.988 478.35 274.368 478.438 188.505 478.438C102.605 478.438 33 478.35 33 478.247C33 478.145 102.605 478.057 188.505 478.057C274.368 478.057 343.988 478.137 343.988 478.247Z" fill="#263238"/>
<path d="M323.967 278.046C323.967 278.046 323.799 277.965 323.447 277.885C323.095 277.804 322.545 277.753 321.855 277.907C321.166 278.061 320.352 278.435 319.546 279.095C318.724 279.748 317.962 280.701 317.199 281.831C315.696 284.134 314.515 287.317 313.136 291.028C311.78 294.747 310.262 299.045 309.001 303.96L308.993 303.974L308.986 303.982C308.766 304.378 308.487 304.737 308.128 305.038C307.776 305.324 307.292 305.559 306.793 305.463C306.302 305.383 305.906 305.06 305.569 304.752C305.224 304.436 304.901 304.099 304.579 303.754C303.933 303.072 303.288 302.375 302.547 301.774C301.814 301.194 300.934 300.63 299.981 300.725C299.05 300.842 298.162 301.473 297.627 302.295C297.092 303.138 296.864 304.172 296.813 305.206C296.688 307.304 297.297 309.424 297.664 311.617C298.074 313.81 298.492 316.055 298.918 318.358C299.13 319.509 299.35 320.668 299.563 321.842C299.673 322.428 299.783 323.023 299.893 323.609C300.025 324.174 300.098 324.908 299.68 325.487C299.475 325.795 299.035 325.912 298.705 325.817C298.368 325.736 298.089 325.546 297.84 325.362C297.348 324.996 296.85 324.622 296.351 324.247C295.354 323.507 294.334 322.788 293.242 322.157C292.157 321.534 291.005 320.961 289.766 320.712C289.15 320.587 288.512 320.565 287.918 320.727C287.324 320.881 286.789 321.24 286.415 321.739C285.652 322.744 285.447 324.101 285.425 325.406C285.403 326.727 285.571 328.054 285.806 329.382C286.297 332.037 287.097 334.67 288.043 337.289C288.263 337.949 288.585 338.572 288.681 339.328C288.725 339.694 288.681 340.134 288.409 340.457C288.343 340.538 288.277 340.611 288.197 340.67C288.101 340.736 288.079 340.787 287.911 340.839C287.617 340.905 287.441 340.78 287.273 340.699C286.62 340.318 286.114 339.826 285.579 339.35C285.058 338.866 284.53 338.381 284.01 337.89C282.961 336.922 281.883 335.961 280.673 335.206C280.072 334.831 279.426 334.501 278.752 334.333C278.077 334.142 277.351 334.201 276.794 334.575C276.229 334.956 275.855 335.587 275.687 336.276C275.503 336.966 275.43 337.692 275.423 338.425C275.415 339.885 275.62 341.359 275.972 342.804C276.64 345.709 277.798 348.518 279.155 351.232C280.512 353.953 282.14 356.579 283.9 359.117C284.735 360.422 285.784 361.581 286.759 362.806C287.749 364.016 288.739 365.234 289.737 366.459L289.773 366.503L289.597 366.437C291.159 366.209 292.714 365.982 294.261 365.762C295.801 365.513 297.37 365.381 298.859 364.97C301.873 364.28 304.843 363.422 307.681 362.322C310.511 361.222 313.261 359.924 315.71 358.222C316.942 357.386 318.094 356.44 319.069 355.347C319.56 354.804 319.986 354.217 320.323 353.579C320.66 352.956 320.807 352.237 320.645 351.577C320.477 350.924 319.986 350.388 319.362 350.073C318.746 349.743 318.05 349.552 317.346 349.428C315.938 349.171 314.5 349.163 313.07 349.171C312.352 349.178 311.64 349.186 310.929 349.193C310.211 349.178 309.507 349.208 308.766 349.053C308.59 349.002 308.37 348.973 308.201 348.731C308.106 348.577 308.128 348.525 308.106 348.415C308.091 348.32 308.084 348.217 308.091 348.115C308.113 347.697 308.37 347.337 308.649 347.095C309.228 346.604 309.895 346.354 310.497 346.017C312.953 344.711 315.322 343.303 317.47 341.667C318.541 340.846 319.56 339.973 320.425 338.983C321.283 338.007 322.046 336.863 322.156 335.602C322.215 334.978 322.053 334.355 321.716 333.841C321.379 333.32 320.895 332.91 320.352 332.587C319.267 331.942 318.028 331.589 316.803 331.325C315.571 331.061 314.332 330.907 313.1 330.783C312.476 330.724 311.86 330.665 311.252 330.607C310.944 330.57 310.607 330.526 310.306 330.357C309.998 330.203 309.756 329.807 309.815 329.448C309.903 328.744 310.445 328.252 310.929 327.922C311.413 327.555 311.89 327.196 312.366 326.829C313.32 326.11 314.258 325.392 315.19 324.688C317.052 323.272 318.871 321.893 320.645 320.543C322.398 319.164 324.268 318.006 325.581 316.37C326.241 315.57 326.769 314.654 326.937 313.671C327.091 312.703 326.857 311.639 326.248 310.928C325.94 310.568 325.5 310.355 325.045 310.209C324.591 310.055 324.114 310.011 323.637 309.974C322.684 309.93 321.731 310.003 320.799 310.077C320.33 310.113 319.868 310.143 319.399 310.15C318.944 310.15 318.431 310.121 318.013 309.849C317.58 309.585 317.382 309.087 317.316 308.639C317.258 308.177 317.294 307.722 317.397 307.282V307.268L317.404 307.253C319.773 302.779 321.533 298.583 323.029 294.923C324.503 291.256 325.764 288.109 326.219 285.403C326.424 284.06 326.519 282.843 326.365 281.809C326.226 280.775 325.903 279.946 325.515 279.359C325.126 278.772 324.686 278.427 324.378 278.251C324.07 278.068 323.887 278.017 323.887 278.017C323.887 278.017 324.07 278.053 324.393 278.229C324.708 278.398 325.163 278.735 325.566 279.33C325.977 279.916 326.307 280.76 326.461 281.801C326.629 282.843 326.541 284.075 326.343 285.432C325.903 288.161 324.657 291.322 323.197 294.997C321.716 298.671 319.971 302.867 317.61 307.37L317.617 307.341C317.522 307.744 317.492 308.184 317.551 308.602C317.617 309.013 317.793 309.431 318.152 309.651C318.504 309.879 318.952 309.915 319.406 309.908C319.861 309.901 320.323 309.864 320.785 309.827C321.716 309.754 322.677 309.673 323.652 309.717C324.143 309.754 324.642 309.798 325.126 309.959C325.603 310.106 326.094 310.341 326.446 310.744C327.135 311.551 327.363 312.659 327.209 313.707C327.033 314.764 326.483 315.717 325.801 316.546C324.444 318.233 322.559 319.407 320.821 320.785C319.047 322.135 317.236 323.521 315.373 324.937C314.442 325.648 313.503 326.36 312.557 327.086C312.08 327.445 311.604 327.812 311.127 328.179C310.878 328.37 310.651 328.531 310.475 328.751C310.306 328.971 310.159 329.228 310.137 329.484C310.108 329.741 310.24 329.954 310.467 330.086C310.702 330.218 310.988 330.262 311.296 330.299C311.904 330.357 312.52 330.416 313.144 330.475C314.383 330.592 315.637 330.753 316.891 331.017C318.138 331.289 319.399 331.641 320.543 332.316C321.107 332.653 321.643 333.093 322.017 333.673C322.398 334.245 322.574 334.956 322.508 335.646C322.383 337.039 321.577 338.22 320.697 339.225C319.802 340.244 318.776 341.132 317.69 341.961C315.52 343.611 313.144 345.034 310.673 346.347C310.064 346.692 309.389 346.948 308.898 347.381C308.656 347.594 308.473 347.858 308.458 348.151C308.451 348.225 308.458 348.298 308.465 348.379C308.473 348.437 308.495 348.577 308.517 348.562C308.539 348.613 308.707 348.687 308.861 348.716C309.507 348.855 310.233 348.841 310.937 348.848C311.648 348.841 312.359 348.833 313.078 348.826C314.508 348.819 315.967 348.826 317.419 349.083C318.145 349.215 318.871 349.413 319.546 349.765C320.22 350.102 320.821 350.718 321.019 351.503C321.21 352.273 321.027 353.095 320.667 353.762C320.315 354.437 319.868 355.053 319.362 355.611C318.358 356.733 317.192 357.701 315.938 358.545C313.459 360.268 310.687 361.581 307.835 362.689C304.975 363.796 301.998 364.654 298.962 365.351C297.451 365.762 295.889 365.901 294.342 366.151C292.795 366.378 291.233 366.605 289.671 366.833L289.561 366.848L289.495 366.767L289.458 366.723C288.461 365.498 287.463 364.28 286.473 363.07C285.498 361.845 284.45 360.686 283.606 359.366C281.824 356.806 280.204 354.173 278.832 351.43C277.468 348.687 276.295 345.863 275.62 342.914C275.269 341.447 275.049 339.951 275.063 338.44C275.071 337.692 275.144 336.937 275.342 336.196C275.525 335.462 275.943 334.729 276.603 334.289C277.27 333.841 278.136 333.79 278.862 333.995C279.602 334.186 280.27 334.531 280.893 334.919C282.14 335.704 283.225 336.68 284.281 337.648C284.809 338.132 285.329 338.623 285.85 339.108C286.378 339.577 286.899 340.076 287.471 340.406C287.603 340.487 287.779 340.545 287.83 340.516C287.837 340.538 287.947 340.45 287.991 340.413C288.05 340.362 288.109 340.31 288.153 340.252C288.343 340.024 288.387 339.709 288.351 339.386C288.277 338.741 287.955 338.095 287.727 337.428C286.781 334.795 285.982 332.147 285.483 329.462C285.241 328.12 285.073 326.771 285.095 325.421C285.124 324.086 285.322 322.67 286.158 321.556C286.569 321.005 287.177 320.595 287.845 320.426C288.512 320.25 289.201 320.279 289.847 320.411C291.145 320.683 292.318 321.262 293.425 321.9C294.525 322.546 295.559 323.272 296.564 324.02C297.062 324.394 297.554 324.761 298.045 325.135C298.287 325.318 298.536 325.472 298.8 325.538C299.057 325.597 299.306 325.531 299.453 325.326C299.607 325.128 299.68 324.834 299.702 324.556C299.724 324.277 299.666 323.998 299.607 323.69C299.497 323.096 299.387 322.509 299.277 321.922C299.057 320.749 298.844 319.59 298.632 318.438C298.206 316.143 297.796 313.898 297.392 311.705C297.033 309.519 296.424 307.378 296.549 305.221C296.6 304.158 296.835 303.079 297.414 302.177C298.008 301.297 298.918 300.63 299.974 300.49C300.502 300.424 301.022 300.578 301.477 300.791C301.946 300.996 302.342 301.304 302.731 301.605C303.486 302.229 304.139 302.933 304.784 303.615C305.107 303.952 305.422 304.29 305.752 304.605C306.089 304.913 306.441 305.192 306.852 305.258C307.263 305.339 307.673 305.148 308.003 304.884C308.326 304.612 308.597 304.26 308.803 303.901L308.795 303.93C310.079 299.001 311.611 294.711 312.99 290.992C314.383 287.288 315.593 284.097 317.118 281.787C317.896 280.65 318.673 279.696 319.509 279.044C320.337 278.391 321.166 278.009 321.87 277.87C322.574 277.723 323.131 277.782 323.483 277.877C323.806 277.951 323.967 278.046 323.967 278.046Z" fill="#FF7100"/>
<path d="M320.126 288.029C320.133 288.029 320.104 288.109 320.052 288.271C319.986 288.447 319.906 288.674 319.803 288.96C319.561 289.584 319.224 290.471 318.798 291.601C317.911 293.911 316.635 297.212 315.066 301.29C311.942 309.498 307.637 320.808 302.886 333.299C298.148 345.812 293.815 357.115 290.595 365.271C288.989 369.349 287.677 372.642 286.753 374.916C286.291 376.031 285.932 376.904 285.682 377.527C285.565 377.806 285.47 378.033 285.396 378.202C285.33 378.356 285.294 378.429 285.286 378.429C285.279 378.429 285.308 378.349 285.36 378.187C285.426 378.011 285.506 377.784 285.609 377.498C285.851 376.874 286.188 375.987 286.614 374.865C287.501 372.554 288.777 369.254 290.346 365.175C293.47 356.968 297.774 345.658 302.526 333.167C307.263 320.661 311.597 309.351 314.809 301.195C316.415 297.116 317.728 293.823 318.652 291.549C319.114 290.435 319.473 289.554 319.722 288.938C319.84 288.66 319.935 288.432 320.008 288.263C320.082 288.102 320.118 288.021 320.126 288.029Z" fill="#FF7100"/>
<path d="M320.514 313.34C320.536 313.392 319.832 313.795 318.681 314.433C317.427 315.13 315.887 315.988 314.186 316.934C312.433 317.91 310.834 318.783 309.654 319.369C308.473 319.964 307.718 320.272 307.696 320.22C307.674 320.169 308.385 319.78 309.529 319.127C310.783 318.416 312.316 317.55 314.002 316.597C315.755 315.621 317.368 314.771 318.556 314.191C319.744 313.612 320.492 313.289 320.514 313.34Z" fill="#FF7100"/>
<path d="M307.099 319.773C307.004 319.817 305.259 316.495 303.206 312.336C301.152 308.185 299.561 304.781 299.656 304.73C299.752 304.686 301.497 308.009 303.55 312.167C305.604 316.326 307.195 319.729 307.099 319.773Z" fill="#FF7100"/>
<path d="M300.693 339.313C300.656 339.349 300.033 338.792 299.079 337.846C298.126 336.892 296.85 335.535 295.523 333.966C294.196 332.396 293.066 330.914 292.289 329.814C291.512 328.714 291.064 328.01 291.108 327.98C291.152 327.951 291.673 328.597 292.509 329.653C293.345 330.709 294.496 332.154 295.824 333.716C297.144 335.279 298.383 336.657 299.285 337.655C300.172 338.652 300.729 339.269 300.693 339.313Z" fill="#FF7100"/>
<path d="M314.104 336.159C314.119 336.211 313.378 336.423 312.168 336.724C310.958 337.025 309.294 337.421 307.446 337.824C305.598 338.235 303.919 338.587 302.694 338.822C301.469 339.057 300.714 339.174 300.699 339.123C300.685 339.071 301.425 338.859 302.635 338.558C303.838 338.257 305.51 337.861 307.365 337.45C309.213 337.04 310.892 336.688 312.117 336.453C313.334 336.225 314.09 336.108 314.104 336.159Z" fill="#FF7100"/>
<path d="M310.636 354.129C310.644 354.18 309.691 354.43 308.143 354.796C306.596 355.163 304.447 355.633 302.071 356.139C299.696 356.645 297.54 357.077 295.978 357.371C294.416 357.664 293.44 357.826 293.426 357.774C293.418 357.723 294.372 357.474 295.919 357.107C297.466 356.74 299.615 356.271 301.991 355.765C304.367 355.266 306.523 354.826 308.085 354.532C309.654 354.232 310.622 354.078 310.636 354.129Z" fill="#FF7100"/>
<path d="M293.815 357.562C293.793 357.577 293.603 357.4 293.265 357.063C292.928 356.726 292.451 356.22 291.879 355.596C290.728 354.335 289.181 352.56 287.553 350.521C285.925 348.489 284.524 346.582 283.549 345.188C283.058 344.491 282.676 343.912 282.42 343.509C282.163 343.105 282.031 342.878 282.053 342.863C282.075 342.848 282.251 343.046 282.544 343.428C282.889 343.875 283.292 344.411 283.769 345.034C284.803 346.391 286.226 348.261 287.854 350.293C289.474 352.325 290.992 354.122 292.085 355.427C293.177 356.718 293.852 357.525 293.815 357.562Z" fill="#FF7100"/>
<path d="M286.474 406.697C273.744 396.436 271.896 378.876 273.495 363.32C273.759 360.723 273.663 357.958 275.057 355.757C276.45 353.557 279.449 352.193 281.701 353.454C283.57 354.496 284.26 356.806 285.213 358.735C286.482 361.31 288.484 363.503 290.918 364.985C292.517 365.96 294.533 366.627 296.227 365.835C298.559 364.75 299.036 361.669 299.197 359.073C299.498 354.246 299.799 349.42 300.099 344.594C300.26 342.005 300.436 339.357 301.404 336.959C302.38 334.56 304.316 332.396 306.824 331.876C309.331 331.355 312.279 332.983 312.624 335.55C312.771 336.621 312.477 337.699 312.477 338.778C312.477 339.856 312.895 341.081 313.893 341.447C314.905 341.821 315.99 341.161 316.819 340.457C319.671 338.029 321.71 334.78 323.638 331.553C325.56 328.318 327.444 325.003 330.062 322.318C332.68 319.634 336.192 317.602 339.91 317.646C343.636 317.69 347.427 320.25 348.109 323.954C348.798 327.665 346.415 331.223 343.892 334.017C340.152 338.161 335.826 341.763 331.074 344.66C330.216 345.181 329.292 345.746 328.911 346.684C328.229 348.371 329.747 350.198 331.411 350.88C333.296 351.657 335.4 351.599 337.402 351.973C339.404 352.347 341.531 353.388 342.162 355.347C343.042 358.068 340.636 360.686 338.334 362.351C333.729 365.689 328.551 368.219 323.103 369.803C321.152 370.368 319.106 370.845 317.479 372.077C315.851 373.309 314.765 375.576 315.565 377.461C316.371 379.353 318.71 380.094 320.727 379.867C322.744 379.632 324.606 378.671 326.557 378.084C330.209 376.984 334.785 377.549 336.852 380.776C338.209 382.903 338.15 385.72 337.226 388.082C336.302 390.436 334.623 392.409 332.863 394.213C326.704 400.514 319.033 405.399 310.585 407.695C302.167 410.005 294.467 410.254 286.474 406.697Z" fill="#359A19"/>
<g opacity="0.1">
<path d="M286.474 406.697C273.744 396.436 271.896 378.876 273.495 363.32C273.759 360.723 273.663 357.958 275.057 355.757C276.45 353.557 279.449 352.193 281.701 353.454C283.57 354.496 284.26 356.806 285.213 358.735C286.482 361.31 288.484 363.503 290.918 364.985C292.517 365.96 294.533 366.627 296.227 365.835C298.559 364.75 299.036 361.669 299.197 359.073C299.498 354.246 299.799 349.42 300.099 344.594C300.26 342.005 300.436 339.357 301.404 336.959C302.38 334.56 304.316 332.396 306.824 331.876C309.331 331.355 312.279 332.983 312.624 335.55C312.771 336.621 312.477 337.699 312.477 338.778C312.477 339.856 312.895 341.081 313.893 341.447C314.905 341.821 315.99 341.161 316.819 340.457C319.671 338.029 321.71 334.78 323.638 331.553C325.56 328.318 327.444 325.003 330.062 322.318C332.68 319.634 336.192 317.602 339.91 317.646C343.636 317.69 347.427 320.25 348.109 323.954C348.798 327.665 346.415 331.223 343.892 334.017C340.152 338.161 335.826 341.763 331.074 344.66C330.216 345.181 329.292 345.746 328.911 346.684C328.229 348.371 329.747 350.198 331.411 350.88C333.296 351.657 335.4 351.599 337.402 351.973C339.404 352.347 341.531 353.388 342.162 355.347C343.042 358.068 340.636 360.686 338.334 362.351C333.729 365.689 328.551 368.219 323.103 369.803C321.152 370.368 319.106 370.845 317.479 372.077C315.851 373.309 314.765 375.576 315.565 377.461C316.371 379.353 318.71 380.094 320.727 379.867C322.744 379.632 324.606 378.671 326.557 378.084C330.209 376.984 334.785 377.549 336.852 380.776C338.209 382.903 338.15 385.72 337.226 388.082C336.302 390.436 334.623 392.409 332.863 394.213C326.704 400.514 319.033 405.399 310.585 407.695C302.167 410.005 294.467 410.254 286.474 406.697Z" fill="black"/>
</g>
<path d="M285.477 418.242C286.467 412.103 288.322 404.9 291.167 397.199C294.005 389.49 297.811 381.29 302.086 372.855C303.164 370.75 304.227 368.667 305.276 366.62C306.324 364.574 307.373 362.55 308.51 360.628C310.776 356.777 313.254 353.249 315.703 349.978C318.153 346.699 320.602 343.677 322.912 340.868C325.229 338.066 327.436 335.492 329.548 333.233C333.757 328.7 337.585 325.451 340.299 323.323C341.655 322.26 342.733 321.46 343.474 320.94C343.826 320.69 344.104 320.492 344.317 320.346C344.508 320.214 344.61 320.148 344.61 320.155C344.618 320.162 344.522 320.236 344.339 320.382C344.134 320.536 343.87 320.749 343.525 321.013C342.806 321.563 341.743 322.385 340.409 323.47C337.732 325.634 333.955 328.913 329.79 333.467C327.7 335.734 325.515 338.316 323.212 341.125C320.917 343.941 318.49 346.971 316.048 350.242C313.614 353.513 311.157 357.034 308.906 360.87C307.769 362.777 306.742 364.794 305.686 366.84C304.638 368.887 303.575 370.97 302.497 373.075C298.221 381.502 294.416 389.673 291.563 397.353C288.703 405.025 286.819 412.191 285.792 418.301" fill="#263238"/>
<path d="M308.659 360.62C308.629 360.62 308.563 360.224 308.483 359.498C308.395 358.772 308.307 357.723 308.211 356.417C308.021 353.813 307.881 350.212 307.749 346.236C307.61 342.261 307.419 338.667 307.192 336.078C307.082 334.78 306.979 333.731 306.906 333.012C306.833 332.286 306.803 331.882 306.84 331.875C306.869 331.868 306.957 332.264 307.089 332.983C307.221 333.701 307.375 334.743 307.529 336.041C307.845 338.638 308.087 342.239 308.226 346.214C308.351 350.139 308.468 353.681 308.556 356.395C308.6 357.62 308.644 358.654 308.673 359.476C308.688 360.209 308.688 360.613 308.659 360.62Z" fill="#263238"/>
<path d="M342.359 356.682C342.359 356.711 341.882 356.74 341.017 356.748C340.159 356.762 338.912 356.784 337.379 356.858C334.307 356.975 330.076 357.291 325.412 357.841C320.755 358.398 316.561 359.088 313.54 359.667C312.029 359.946 310.812 360.21 309.968 360.386C309.125 360.562 308.656 360.65 308.649 360.613C308.641 360.584 309.096 360.437 309.924 360.202C310.753 359.975 311.963 359.66 313.474 359.337C316.488 358.669 320.682 357.921 325.361 357.364C330.032 356.814 334.285 356.55 337.372 356.52C338.912 356.491 340.159 356.528 341.024 356.564C341.882 356.608 342.359 356.645 342.359 356.682Z" fill="#263238"/>
<path d="M291.622 396.612C291.608 396.619 291.542 396.472 291.424 396.194C291.292 395.856 291.131 395.445 290.94 394.954C290.522 393.876 289.958 392.291 289.29 390.333C287.948 386.409 286.262 380.93 284.48 374.864C282.698 368.791 281.07 363.305 279.809 359.359C279.193 357.437 278.679 355.86 278.306 354.686C278.144 354.18 278.012 353.755 277.902 353.41C277.814 353.117 277.778 352.963 277.792 352.955C277.807 352.948 277.873 353.095 277.99 353.381C278.122 353.718 278.284 354.129 278.474 354.62C278.892 355.699 279.457 357.283 280.124 359.241C281.466 363.165 283.153 368.644 284.935 374.717C286.717 380.791 288.344 386.27 289.606 390.216C290.222 392.13 290.735 393.714 291.109 394.881C291.27 395.387 291.402 395.812 291.512 396.157C291.6 396.45 291.637 396.604 291.622 396.612Z" fill="#263238"/>
<path d="M336.822 385.39C336.822 385.405 336.668 385.456 336.367 385.544C336.015 385.64 335.583 385.75 335.055 385.889C333.845 386.19 332.202 386.6 330.215 387.099C326.13 388.119 320.499 389.6 314.28 391.243C308.062 392.886 302.415 394.309 298.302 395.248C296.248 395.717 294.584 396.084 293.425 396.312C292.89 396.414 292.45 396.495 292.09 396.568C291.782 396.62 291.621 396.642 291.621 396.627C291.621 396.612 291.775 396.561 292.076 396.473C292.428 396.385 292.86 396.268 293.388 396.128C294.598 395.828 296.234 395.417 298.228 394.918C302.313 393.898 307.944 392.417 314.163 390.774C320.381 389.131 326.028 387.708 330.134 386.769C332.188 386.3 333.852 385.933 335.011 385.706C335.546 385.603 335.986 385.522 336.345 385.449C336.653 385.398 336.815 385.376 336.822 385.39Z" fill="#263238"/>
<path d="M289.436 204.222H111.602V447.955H289.436V204.222Z" fill="#455A64"/>
<path d="M282.41 433.461H249.47H126.414V214.072H282.41V406.169V433.461Z" fill="#E0E0E0"/>
<path d="M279.94 429.391H247.3H125.352V211.168H279.94V402.245V429.391Z" fill="#EBEBEB"/>
<path d="M263.329 412.404L245.525 426.912H122.469V211.726H278.465V400.14L263.329 412.404Z" fill="#FAFAFA"/>
<path d="M263.329 412.403C263.329 412.403 263.645 412.132 264.282 411.611C264.92 411.09 265.874 410.313 267.135 409.279C269.672 407.218 273.441 404.145 278.428 400.088L278.406 400.132C278.384 369.18 278.347 300.41 278.296 211.718L278.472 211.894C232.017 211.901 179.388 211.909 123.84 211.916C123.378 211.916 122.923 211.916 122.476 211.916L122.666 211.725C122.652 292.627 122.637 367.258 122.63 426.911L122.476 426.757C178.647 426.794 221.802 426.831 245.532 426.845L245.488 426.86C251.428 422.041 255.886 418.425 258.856 416.012C260.345 414.809 261.459 413.907 262.207 413.306C262.955 412.704 263.329 412.403 263.329 412.403C263.329 412.403 262.963 412.711 262.229 413.32C261.489 413.929 260.374 414.839 258.9 416.056C255.93 418.484 251.486 422.115 245.569 426.956L245.554 426.97H245.532C221.802 426.985 178.647 427.022 122.476 427.058H122.322V426.904C122.314 367.251 122.3 292.62 122.285 211.718V211.527H122.476C122.923 211.527 123.378 211.527 123.84 211.527C179.388 211.535 232.017 211.542 278.472 211.549H278.648V211.725C278.597 300.417 278.553 369.187 278.538 400.14V400.169L278.516 400.184C273.522 404.218 269.731 407.276 267.186 409.33C265.918 410.35 264.957 411.12 264.312 411.641C263.659 412.154 263.329 412.403 263.329 412.403Z" fill="#263238"/>
<path d="M232.443 218.576H168.602V207.508C168.602 201.53 173.449 196.682 179.425 196.682H222.067C227.801 196.682 232.443 201.332 232.443 207.06V218.576Z" fill="url(#paint3_linear_5_2)"/>
<path d="M184.234 196.682L181.902 184.873H218.663L216.617 196.682H184.234Z" fill="#1ABFAF"/>
<path d="M165.067 272.295H138.785V246.008H165.067V272.295ZM139.518 271.562H164.334V246.741H139.518V271.562Z" fill="#1D968B" fill-opacity="0.9"/>
<path d="M165.067 312.805H138.785V286.518H165.067V312.805ZM139.518 312.072H164.334V287.251H139.518V312.072Z" fill="#33A096"/>
<path d="M144.008 300.204L147.498 296.456L153.313 301.106L166.623 288.183L169.813 291.938L153.057 308.478L144.008 300.204Z" fill="#33A096"/>
<path d="M250.931 294.353C250.931 294.455 237.288 294.544 220.468 294.544C203.637 294.544 190 294.455 190 294.353C190 294.25 203.637 294.162 220.468 294.162C237.288 294.162 250.931 294.25 250.931 294.353Z" fill="#263238"/>
<path d="M250.931 299.817C250.931 299.919 237.288 300.007 220.468 300.007C203.637 300.007 190 299.919 190 299.817C190 299.714 203.637 299.626 220.468 299.626C237.288 299.626 250.931 299.714 250.931 299.817Z" fill="#263238"/>
<path d="M250.931 305.282C250.931 305.384 234.153 305.472 213.469 305.472C192.771 305.472 176 305.384 176 305.282C176 305.179 192.771 305.091 213.469 305.091C234.153 305.091 250.931 305.172 250.931 305.282Z" fill="#263238"/>
<path d="M250.931 310.739C250.931 310.841 234.153 310.929 213.469 310.929C192.771 310.929 176 310.841 176 310.739C176 310.636 192.771 310.548 213.469 310.548C234.153 310.548 250.931 310.636 250.931 310.739Z" fill="#263238"/>
<path fill-rule="evenodd" clip-rule="evenodd" d="M176 293H185V302H176V293ZM179.214 298.143L180.5 299.429L183.714 296.214V300.714H177.286V300.071L179.214 298.143ZM179.536 296.857C180.068 296.857 180.5 296.425 180.5 295.893C180.5 295.36 180.068 294.929 179.536 294.929C179.003 294.929 178.571 295.36 178.571 295.893C178.571 296.425 179.003 296.857 179.536 296.857Z" fill="#199A8E"/>
<path d="M165.067 352.009H138.785V325.722H165.067V352.009ZM139.518 351.276H164.334V326.455H139.518V351.276Z" fill="#33A096"/>
<path d="M144.008 339.408L147.498 335.66L153.313 340.31L166.623 327.387L169.813 331.142L153.057 347.675L144.008 339.408Z" fill="#33A096"/>
<path d="M250.931 333.353C250.931 333.455 237.288 333.544 220.468 333.544C203.637 333.544 190 333.455 190 333.353C190 333.25 203.637 333.162 220.468 333.162C237.288 333.162 250.931 333.25 250.931 333.353Z" fill="#263238"/>
<path d="M250.931 338.817C250.931 338.919 237.288 339.007 220.468 339.007C203.637 339.007 190 338.919 190 338.817C190 338.714 203.637 338.626 220.468 338.626C237.288 338.626 250.931 338.714 250.931 338.817Z" fill="#263238"/>
<path d="M250.931 344.282C250.931 344.384 234.153 344.472 213.469 344.472C192.771 344.472 176 344.384 176 344.282C176 344.179 192.771 344.091 213.469 344.091C234.153 344.091 250.931 344.172 250.931 344.282Z" fill="#263238"/>
<path d="M250.931 349.739C250.931 349.841 234.153 349.929 213.469 349.929C192.771 349.929 176 349.841 176 349.739C176 349.636 192.771 349.548 213.469 349.548C234.153 349.548 250.931 349.636 250.931 349.739Z" fill="#263238"/>
<path fill-rule="evenodd" clip-rule="evenodd" d="M176 332H185V341H176V332ZM179.214 337.143L180.5 338.429L183.714 335.214V339.714H177.286V339.071L179.214 337.143ZM179.536 335.857C180.068 335.857 180.5 335.425 180.5 334.893C180.5 334.36 180.068 333.929 179.536 333.929C179.003 333.929 178.571 334.36 178.571 334.893C178.571 335.425 179.003 335.857 179.536 335.857Z" fill="#199A8E"/>
<path d="M165.067 389.857H138.785V363.569H165.067V389.857ZM139.518 389.124H164.334V364.303H139.518V389.124Z" fill="#33A096"/>
<path d="M144.008 377.256L147.498 373.508L153.313 378.165L166.623 365.234L169.813 368.997L153.057 385.53L144.008 377.256Z" fill="#33A096"/>
<path d="M250.931 371.353C250.931 371.455 237.288 371.544 220.468 371.544C203.637 371.544 190 371.455 190 371.353C190 371.25 203.637 371.162 220.468 371.162C237.288 371.162 250.931 371.25 250.931 371.353Z" fill="#263238"/>
<path d="M250.931 376.817C250.931 376.919 237.288 377.007 220.468 377.007C203.637 377.007 190 376.919 190 376.817C190 376.714 203.637 376.626 220.468 376.626C237.288 376.626 250.931 376.714 250.931 376.817Z" fill="#263238"/>
<path d="M250.931 382.282C250.931 382.384 234.153 382.472 213.469 382.472C192.771 382.472 176 382.384 176 382.282C176 382.179 192.771 382.091 213.469 382.091C234.153 382.091 250.931 382.172 250.931 382.282Z" fill="#263238"/>
<path d="M250.931 387.739C250.931 387.841 234.153 387.929 213.469 387.929C192.771 387.929 176 387.841 176 387.739C176 387.636 192.771 387.548 213.469 387.548C234.153 387.548 250.931 387.636 250.931 387.739Z" fill="#263238"/>
<path fill-rule="evenodd" clip-rule="evenodd" d="M176 370H185V379H176V370ZM179.214 375.143L180.5 376.429L183.714 373.214V377.714H177.286V377.071L179.214 375.143ZM179.536 373.857C180.068 373.857 180.5 373.425 180.5 372.893C180.5 372.36 180.068 371.929 179.536 371.929C179.003 371.929 178.571 372.36 178.571 372.893C178.571 373.425 179.003 373.857 179.536 373.857Z" fill="#199A8E"/>
<path d="M250.417 391.279L233.316 426.706H245.526L250.417 391.279Z" fill="#E0E0E0"/>
<path d="M245.523 426.912L250.415 391.478L278.464 400.14L245.523 426.912Z" fill="#FAFAFA"/>
<path d="M245.523 426.911C246.213 426.347 249.241 423.853 254.954 419.144C260.813 414.347 268.989 407.65 278.339 399.993L278.405 400.316C274.929 399.245 271.299 398.123 267.574 396.978C261.502 395.101 255.68 393.296 250.356 391.653L250.591 391.507C249.124 401.797 247.87 410.614 246.975 416.878C246.095 422.973 245.641 426.112 245.523 426.911C245.523 426.919 245.523 426.86 245.538 426.757C245.553 426.633 245.575 426.471 245.597 426.266C245.655 425.804 245.743 425.166 245.846 424.337C246.073 422.613 246.396 420.141 246.807 417.032C247.65 410.716 248.838 401.834 250.224 391.463L250.253 391.25L250.459 391.316C255.782 392.959 261.605 394.749 267.677 396.619C271.394 397.771 275.024 398.893 278.5 399.964L278.838 400.066L278.566 400.286C269.107 407.922 260.828 414.596 254.895 419.386C251.969 421.74 249.615 423.625 247.98 424.938C247.188 425.569 246.572 426.068 246.139 426.42C245.941 426.574 245.787 426.699 245.67 426.794C245.575 426.875 245.523 426.911 245.523 426.911Z" fill="#263238"/>
<g opacity="0.3">
<path d="M216.122 184.873L214.098 196.682H216.62L218.666 184.873H215.447" fill="black"/>
</g>
<path d="M257.931 252.353C257.931 252.455 244.288 252.544 227.468 252.544C210.637 252.544 197 252.455 197 252.353C197 252.25 210.637 252.162 227.468 252.162C244.288 252.162 257.931 252.25 257.931 252.353Z" fill="#263238"/>
<path d="M257.931 257.817C257.931 257.919 244.288 258.007 227.468 258.007C210.637 258.007 197 257.919 197 257.817C197 257.714 210.637 257.626 227.468 257.626C244.288 257.626 257.931 257.714 257.931 257.817Z" fill="#263238"/>
<path d="M257.931 263.282C257.931 263.384 241.153 263.472 220.469 263.472C199.771 263.472 183 263.384 183 263.282C183 263.179 199.771 263.091 220.469 263.091C241.153 263.091 257.931 263.172 257.931 263.282Z" fill="#263238"/>
<path d="M257.931 268.739C257.931 268.841 241.153 268.929 220.469 268.929C199.771 268.929 183 268.841 183 268.739C183 268.636 199.771 268.548 220.469 268.548C241.153 268.548 257.931 268.636 257.931 268.739Z" fill="#263238"/>
<path fill-rule="evenodd" clip-rule="evenodd" d="M183 251H192V260H183V251ZM186.214 256.143L187.5 257.429L190.714 254.214V258.714H184.286V258.071L186.214 256.143ZM186.536 254.857C187.068 254.857 187.5 254.425 187.5 253.893C187.5 253.36 187.068 252.929 186.536 252.929C186.003 252.929 185.571 253.36 185.571 253.893C185.571 254.425 186.003 254.857 186.536 254.857Z" fill="#199A8E"/>
<path d="M108.449 309.424C112.182 309.71 115.401 306.834 115.547 303.094C115.687 299.5 115.804 295.869 115.804 295.869C115.804 295.869 121.245 295.356 121.641 289.972C122.037 284.588 121.854 272.149 121.854 272.149C115.782 269.09 108.522 269.552 102.891 273.366L103.228 292.326V302.522C103.257 305.954 105.039 309.16 108.449 309.424Z" fill="#FFBE9D"/>
<path d="M116.276 283.4C115.345 282.248 113.834 281.793 112.595 282.593C111.356 283.4 110.879 285.189 111.554 286.51C112.03 287.441 113.115 288.277 114.193 288.505C115.213 288.717 115.931 289.7 115.814 290.734C115.66 292.084 114.941 293.368 113.922 294.483C112.345 296.221 110.021 297.16 107.689 297.438C105.394 297.71 102.769 297.233 101.434 295.348C100.466 293.976 100.393 292.179 100.356 290.5C100.275 286.532 100.195 282.556 100.107 278.588C100.077 277.158 100.048 275.706 100.378 274.312C100.708 272.918 101.434 271.562 102.629 270.777C103.942 269.911 105.599 269.838 107.088 269.361C108.95 268.76 110.534 267.52 112.279 266.625C114.025 265.73 116.166 265.202 117.919 266.075C119.173 266.706 120.016 267.96 121.24 268.657C122.978 269.647 125.354 269.42 126.198 271.98C126.491 272.867 126.469 273.835 126.168 274.715C124.988 278.199 120.676 279.608 117.567 278.097C117.508 278.684 118.087 280.004 117.464 281.867C117.273 282.476 117.207 283.385 116.276 283.4Z" fill="#263238"/>
<path d="M101.413 272.317C102.175 270.579 102.952 268.796 103.143 266.904C103.334 265.012 102.857 262.951 101.449 261.674C100.496 260.809 99.1833 260.383 97.9 260.42C95.4361 260.494 93.1628 262.342 92.4882 264.711C91.8135 267.08 92.7448 269.794 94.6661 271.334C96.5873 272.875 99.3739 273.205 101.64 272.244" fill="#263238"/>
<path d="M102.467 270.351C102.569 270.351 102.481 271.312 101.675 272.09C100.875 272.882 99.9148 272.948 99.9148 272.845C99.8855 272.735 100.707 272.522 101.403 271.818C102.129 271.129 102.364 270.322 102.467 270.351Z" fill="#E8505B"/>
<path d="M100.699 271.664C100.721 271.694 100.223 272.178 99.2401 272.735C98.7488 272.999 98.0888 273.27 97.3115 273.278C96.5562 273.292 95.6176 273.043 95.0603 272.273C94.5103 271.51 94.4883 270.571 94.6643 269.838C94.8476 269.082 95.229 268.503 95.5736 268.055C96.2849 267.175 96.8202 266.743 96.8496 266.772C96.9009 266.816 96.4242 267.322 95.7936 268.217C95.4929 268.664 95.1556 269.236 95.0163 269.919C94.877 270.593 94.921 271.422 95.3756 272.053C95.8303 272.691 96.6296 272.933 97.3115 272.933C98.0082 272.94 98.6242 272.72 99.1155 272.5C100.098 272.024 100.663 271.613 100.699 271.664Z" fill="#263238"/>
<path d="M91.548 277.752C91.5773 277.745 91.658 277.958 91.812 278.346C91.966 278.728 92.1713 279.307 92.6039 279.879C93.0219 280.429 93.7992 281.024 94.7159 280.848C95.6178 280.679 96.4171 279.843 96.7471 278.801C97.0991 277.752 97.1211 276.659 97.2971 275.669C97.4584 274.686 97.7884 273.784 98.3237 273.205C98.8444 272.618 99.4677 272.361 99.893 272.31C100.326 272.251 100.56 272.354 100.553 272.369C100.553 272.405 100.318 272.361 99.9223 272.457C99.5337 272.552 98.9837 272.823 98.5291 273.381C98.0671 273.931 97.7811 274.767 97.6418 275.728C97.4878 276.689 97.4804 277.796 97.1064 278.926C96.7545 280.048 95.8525 281.009 94.7745 281.192C94.2392 281.288 93.7112 281.148 93.3153 280.906C92.9119 280.664 92.6113 280.349 92.384 280.033C91.944 279.388 91.7826 278.787 91.6653 278.383C91.5627 277.987 91.5187 277.76 91.548 277.752Z" fill="#263238"/>
<path d="M88.9025 323C88.9025 323 86.1599 343.112 88.9025 345.664C91.6451 348.217 94.2923 347.366 94.2923 347.366L99.5208 342.994L100.547 323H88.9025Z" fill="#FFBE9D"/>
<path d="M145.695 266.545L149.186 262.797L155.001 267.447L168.31 254.523L171.5 258.279L154.744 274.811L145.695 266.545Z" fill="#33A096"/>
<path d="M162.094 267.564L157.034 270.814C156.807 268.811 155.282 266.831 155.355 267.836C155.436 268.841 155.362 274.056 155.362 274.056L146.335 293.045C145.111 296.053 142.625 297.945 140.769 298.392L132.344 300.901L135.636 312.042L147.34 308.162C150.376 307.157 152.759 304.766 153.756 301.722L161.823 277.136C161.823 277.136 162.783 274.342 163.128 272.288C163.487 270.227 162.094 267.564 162.094 267.564Z" fill="#FFBE9D"/>
<path d="M120.638 475.262L120.514 469.629L109.969 469.798L110.064 478.034L110.717 478.064C113.628 478.181 125.537 478.445 127.473 477.822C129.629 477.14 120.638 475.262 120.638 475.262Z" fill="#E8505B"/>
<g opacity="0.5">
<path d="M113.885 477.895C113.723 477.015 113.217 476.208 112.506 475.665C111.795 475.123 110.915 474.851 110.027 474.939L110.071 477.888L113.885 477.895Z" fill="white"/>
</g>
<g opacity="0.4">
<path d="M125.033 476.333C125.033 476.333 128.186 477.191 127.805 477.712C127.423 478.233 115.375 478.423 110.059 478.035L110.073 477.8L124.123 477.705C124.123 477.712 124.424 476.37 125.033 476.333Z" fill="white"/>
</g>
<path d="M109.91 477.8C109.91 477.807 109.976 477.807 110.093 477.814C110.247 477.822 110.423 477.829 110.614 477.837C111.135 477.851 111.773 477.866 112.535 477.888C114.156 477.925 116.393 477.939 118.864 477.903C121.335 477.866 123.572 477.785 125.192 477.704C125.948 477.66 126.586 477.624 127.106 477.594C127.297 477.58 127.473 477.565 127.627 477.558C127.744 477.55 127.81 477.543 127.81 477.536C127.81 477.528 127.744 477.528 127.627 477.536C127.473 477.543 127.297 477.543 127.106 477.55C126.586 477.572 125.948 477.594 125.192 477.616C123.572 477.675 121.335 477.741 118.864 477.778C116.393 477.814 114.156 477.814 112.535 477.8C111.78 477.792 111.135 477.792 110.614 477.785C110.423 477.785 110.247 477.785 110.093 477.785C109.969 477.792 109.91 477.8 109.91 477.8Z" fill="#263238"/>
<path d="M124.121 477.873C124.157 477.88 124.179 477.418 124.465 476.949C124.737 476.479 125.133 476.237 125.111 476.208C125.103 476.178 124.656 476.384 124.355 476.89C124.055 477.389 124.091 477.88 124.121 477.873Z" fill="#263238"/>
<path d="M120.982 476.34C121.011 476.362 121.158 476.172 121.305 475.93C121.451 475.688 121.554 475.475 121.524 475.453C121.495 475.431 121.349 475.614 121.202 475.864C121.048 476.113 120.953 476.326 120.982 476.34Z" fill="#263238"/>
<path d="M120.124 475.9C120.146 475.929 120.314 475.812 120.49 475.643C120.666 475.474 120.798 475.32 120.769 475.298C120.747 475.269 120.578 475.386 120.402 475.555C120.226 475.724 120.102 475.878 120.124 475.9Z" fill="#263238"/>
<path d="M119.566 474.917C119.566 474.953 119.816 474.983 120.116 474.975C120.424 474.975 120.666 474.946 120.666 474.909C120.666 474.873 120.417 474.843 120.116 474.851C119.816 474.851 119.566 474.88 119.566 474.917Z" fill="#263238"/>
<path d="M119.372 474.213C119.357 474.242 119.628 474.36 119.988 474.382C120.347 474.404 120.626 474.323 120.618 474.286C120.611 474.25 120.332 474.272 119.995 474.25C119.658 474.235 119.386 474.184 119.372 474.213Z" fill="#263238"/>
<path d="M121.328 475.416C121.328 475.431 121.585 475.46 122.003 475.402C122.208 475.372 122.457 475.321 122.721 475.233C122.853 475.181 122.993 475.145 123.132 475.057C123.198 475.013 123.271 474.947 123.293 474.844C123.323 474.741 123.264 474.631 123.183 474.573C122.531 474.25 121.885 474.624 121.651 474.961C121.519 475.137 121.46 475.299 121.438 475.416C121.416 475.534 121.416 475.6 121.423 475.6C121.445 475.607 121.467 475.335 121.724 475.02C121.849 474.866 122.047 474.712 122.296 474.631C122.531 474.558 122.875 474.529 123.103 474.675C123.213 474.756 123.169 474.881 123.051 474.954C122.941 475.027 122.795 475.071 122.67 475.123C122.413 475.218 122.179 475.277 121.973 475.313C121.585 475.387 121.328 475.394 121.328 475.416Z" fill="#263238"/>
<path d="M121.504 475.445C121.511 475.453 121.614 475.277 121.577 474.976C121.555 474.829 121.504 474.653 121.387 474.485C121.262 474.338 121.108 474.133 120.815 474.147C120.661 474.169 120.587 474.353 120.609 474.463C120.624 474.58 120.675 474.683 120.727 474.763C120.829 474.932 120.947 475.064 121.057 475.167C121.269 475.372 121.438 475.445 121.445 475.438C121.46 475.423 121.306 475.321 121.115 475.108C121.02 475.005 120.917 474.866 120.822 474.705C120.727 474.565 120.661 474.309 120.829 474.272C120.998 474.25 121.174 474.419 121.277 474.551C121.387 474.697 121.445 474.851 121.475 474.991C121.541 475.262 121.482 475.438 121.504 475.445Z" fill="#263238"/>
<path d="M110.078 474.91C110.078 474.932 110.379 474.873 110.855 474.924C111.325 474.968 111.985 475.152 112.564 475.599C113.143 476.047 113.488 476.641 113.649 477.088C113.818 477.536 113.84 477.844 113.862 477.836C113.869 477.836 113.869 477.763 113.862 477.624C113.847 477.484 113.811 477.294 113.737 477.059C113.591 476.589 113.246 475.966 112.645 475.504C112.043 475.042 111.354 474.866 110.863 474.844C110.621 474.829 110.415 474.844 110.283 474.866C110.151 474.88 110.078 474.902 110.078 474.91Z" fill="#263238"/>
<path d="M111.106 470.502C111.069 470.502 111.047 471.47 111.047 472.673C111.047 473.869 111.084 474.844 111.12 474.844C111.157 474.844 111.179 473.876 111.179 472.673C111.172 471.477 111.142 470.502 111.106 470.502Z" fill="#263238"/>
<path d="M115.195 476.846C115.188 476.883 115.877 476.978 116.735 476.978C117.593 476.971 118.283 476.861 118.275 476.831C118.268 476.795 117.586 476.846 116.735 476.853C115.885 476.853 115.195 476.809 115.195 476.846Z" fill="#263238"/>
<path d="M113.129 476.875C113.107 476.905 113.187 477.022 113.261 477.176C113.334 477.33 113.371 477.469 113.407 477.469C113.444 477.469 113.459 477.301 113.371 477.125C113.29 476.941 113.151 476.853 113.129 476.875Z" fill="#263238"/>
<path d="M112.328 475.922C112.306 475.944 112.372 476.054 112.482 476.164C112.592 476.274 112.702 476.34 112.724 476.318C112.746 476.296 112.68 476.186 112.57 476.076C112.468 475.959 112.358 475.893 112.328 475.922Z" fill="#263238"/>
<path d="M111.207 475.489C111.215 475.526 111.354 475.519 111.508 475.577C111.662 475.629 111.779 475.709 111.801 475.687C111.831 475.665 111.735 475.519 111.545 475.46C111.361 475.394 111.2 475.46 111.207 475.489Z" fill="#263238"/>
<path d="M110.416 475.299C110.401 475.336 110.467 475.387 110.555 475.416C110.643 475.446 110.724 475.446 110.739 475.416C110.753 475.38 110.687 475.328 110.599 475.299C110.511 475.262 110.423 475.262 110.416 475.299Z" fill="#263238"/>
<path d="M83.4161 473.465L86.9947 469.116L78.8916 462.36L73.5898 468.668L74.0665 469.116C76.2004 471.103 85.0514 479.069 86.9287 479.861C89.0113 480.748 83.4161 473.465 83.4161 473.465Z" fill="#E8505B"/>
<g opacity="0.5">
<path d="M76.5806 471.052C77.0279 470.282 77.1746 469.336 76.9839 468.463C76.7933 467.59 76.3093 466.813 75.5833 466.292L73.6914 468.558L76.5806 471.052Z" fill="white"/>
</g>
<g opacity="0.4">
<path d="M86.0487 477.14C86.0487 477.14 87.882 479.846 87.2513 479.993C86.6207 480.14 77.3664 472.424 73.5898 468.661L73.7512 468.492L84.4648 477.587C84.4648 477.587 85.5647 476.773 86.0487 477.14Z" fill="white"/>
</g>
<path d="M73.625 468.39C73.625 468.39 73.669 468.441 73.7497 468.522C73.867 468.632 73.9917 468.749 74.131 468.881C74.5196 469.233 74.9889 469.666 75.5536 470.172C76.7635 471.257 78.4428 472.724 80.3421 474.316C82.2413 475.9 83.9866 477.301 85.2699 478.291C85.8712 478.754 86.3772 479.142 86.7952 479.458C86.9492 479.575 87.0885 479.678 87.2132 479.766C87.3085 479.839 87.3598 479.868 87.3671 479.868C87.3671 479.868 87.3231 479.824 87.2278 479.744C87.1032 479.648 86.9712 479.538 86.8245 479.414C86.4139 479.091 85.9152 478.688 85.3286 478.218C84.0673 477.206 82.322 475.798 80.4301 474.213C78.5308 472.629 76.8369 471.169 75.6196 470.106C75.0476 469.607 74.5636 469.189 74.175 468.844C74.0283 468.72 73.8963 468.61 73.779 468.507C73.6763 468.419 73.6323 468.382 73.625 468.39Z" fill="#263238"/>
<path d="M84.3536 477.712C84.3829 477.741 84.6982 477.411 85.2115 477.235C85.7248 477.059 86.1795 477.132 86.1868 477.088C86.2015 477.059 85.7249 476.92 85.1749 477.11C84.6176 477.301 84.3242 477.697 84.3536 477.712Z" fill="#263238"/>
<path d="M82.9767 474.507C82.9841 474.544 83.2187 474.5 83.4901 474.412C83.7614 474.324 83.974 474.228 83.9667 474.192C83.9594 474.155 83.7247 474.199 83.4534 474.287C83.1821 474.375 82.9694 474.47 82.9767 474.507Z" fill="#263238"/>
<path d="M82.6094 473.612C82.6094 473.649 82.8074 473.671 83.0567 473.656C83.2987 473.649 83.4967 473.612 83.4967 473.575C83.4967 473.539 83.2987 473.517 83.0494 473.524C82.8074 473.539 82.6094 473.575 82.6094 473.612Z" fill="#263238"/>
<path d="M82.8379 472.504C82.8159 472.533 82.9845 472.709 83.2192 472.907C83.4538 473.105 83.6592 473.245 83.6812 473.215C83.7032 473.186 83.5345 473.01 83.2998 472.812C83.0652 472.614 82.8599 472.475 82.8379 472.504Z" fill="#263238"/>
<path d="M83.1368 471.844C83.1075 471.859 83.2395 472.123 83.4962 472.372C83.7528 472.622 84.0241 472.746 84.0388 472.717C84.0608 472.688 83.8335 472.519 83.5842 472.284C83.3422 472.05 83.1735 471.822 83.1368 471.844Z" fill="#263238"/>
<path d="M83.8412 474.03C83.8338 474.037 84.0098 474.228 84.3618 474.462C84.5378 474.58 84.7578 474.697 85.0145 474.8C85.1465 474.851 85.2711 474.91 85.4398 474.932C85.5204 474.939 85.6158 474.939 85.7038 474.881C85.7918 474.822 85.8211 474.697 85.7991 474.609C85.5131 473.934 84.7871 473.802 84.3838 473.905C84.1712 473.949 84.0172 474.037 83.9218 474.11C83.8265 474.184 83.7825 474.235 83.7898 474.242C83.8045 474.264 83.9952 474.066 84.3985 473.993C84.5965 473.956 84.8385 473.971 85.0805 474.074C85.3078 474.169 85.5864 474.374 85.6671 474.631C85.6964 474.763 85.5864 474.829 85.4471 474.807C85.3151 474.793 85.1758 474.734 85.0511 474.69C84.7945 474.595 84.5745 474.484 84.3985 474.382C84.0538 474.176 83.8558 474.015 83.8412 474.03Z" fill="#263238"/>
<path d="M83.9527 474.169C83.9527 474.184 84.1434 474.111 84.312 473.861C84.3927 473.737 84.466 473.568 84.488 473.363C84.4953 473.172 84.51 472.915 84.2753 472.739C84.1433 472.651 83.9674 472.739 83.916 472.849C83.85 472.952 83.828 473.062 83.8134 473.157C83.784 473.355 83.784 473.531 83.7987 473.678C83.828 473.971 83.9087 474.14 83.9234 474.14C83.9454 474.133 83.894 473.957 83.894 473.678C83.894 473.539 83.9014 473.37 83.938 473.186C83.96 473.018 84.0774 472.776 84.224 472.864C84.3633 472.959 84.3927 473.201 84.3853 473.37C84.3707 473.553 84.3193 473.707 84.2533 473.832C84.1067 474.052 83.9454 474.147 83.9527 474.169Z" fill="#263238"/>
<path d="M75.6412 466.307C75.6265 466.329 75.8905 466.475 76.2205 466.828C76.5505 467.172 76.9318 467.737 77.0785 468.456C77.2251 469.175 77.1005 469.842 76.9318 470.29C76.7632 470.737 76.5798 470.986 76.6018 470.994C76.6092 471.001 76.6605 470.942 76.7412 470.832C76.8218 470.722 76.9245 470.546 77.0198 470.319C77.2105 469.871 77.3571 469.175 77.2031 468.426C77.0492 467.678 76.6385 467.099 76.2865 466.762C76.1105 466.593 75.9492 466.475 75.8319 466.402C75.7145 466.329 75.6412 466.299 75.6412 466.307Z" fill="#263238"/>
<path d="M79.2965 463.636C79.2671 463.614 78.6145 464.333 77.8372 465.243C77.0599 466.152 76.4512 466.908 76.4732 466.93C76.5026 466.952 77.1552 466.233 77.9325 465.323C78.7098 464.414 79.3185 463.658 79.2965 463.636Z" fill="#263238"/>
<path d="M78.2547 471.111C78.2327 471.133 78.6873 471.661 79.34 472.219C79.9926 472.776 80.5866 473.143 80.6013 473.113C80.6233 473.084 80.0659 472.673 79.4206 472.123C78.7753 471.573 78.284 471.089 78.2547 471.111Z" fill="#263238"/>
<path d="M76.6715 469.783C76.6349 469.783 76.6202 469.93 76.5762 470.099C76.5322 470.267 76.4662 470.399 76.4956 470.421C76.5249 470.443 76.6422 470.326 76.6935 470.135C76.7522 469.945 76.7082 469.783 76.6715 469.783Z" fill="#263238"/>
<path d="M76.6907 468.543C76.6541 468.543 76.6394 468.675 76.6541 468.829C76.6687 468.983 76.7054 469.108 76.7421 469.108C76.7787 469.108 76.7934 468.976 76.7787 468.822C76.7641 468.661 76.7274 468.536 76.6907 468.543Z" fill="#263238"/>
<path d="M76.1186 467.487C76.1039 467.517 76.2066 467.612 76.2946 467.751C76.3826 467.891 76.4119 468.03 76.4486 468.03C76.4852 468.03 76.5072 467.861 76.4046 467.685C76.3019 467.509 76.1333 467.458 76.1186 467.487Z" fill="#263238"/>
<path d="M75.6422 466.82C75.6128 466.835 75.6202 466.915 75.6715 466.996C75.7228 467.077 75.7815 467.128 75.8108 467.113C75.8401 467.099 75.8328 467.018 75.7815 466.937C75.7302 466.857 75.6788 466.805 75.6422 466.82Z" fill="#263238"/>
<path d="M105.363 355.603C105.363 355.603 101.851 370.463 102.848 373.404C103.838 376.346 110.277 378.047 110.277 378.047L110.057 418.748L74.4766 462.741L87.6174 473.494C87.6174 473.494 126.138 429.42 129.533 421.439C132.928 413.459 127.37 354.95 127.37 354.95L105.363 355.603Z" fill="#263238"/>
<path d="M123.543 349.545L125.281 473.157L107.176 473.252L98.0973 372.576C96.176 370.742 93.4775 367.603 93.8515 360.598L94.2915 352.464L123.543 349.545Z" fill="#263238"/>
<path d="M104.454 425.628C104.447 425.62 104.483 425.562 104.557 425.444C104.652 425.305 104.762 425.136 104.901 424.938C105.231 424.469 105.686 423.831 106.243 423.031C107.446 421.366 109.125 419.034 111.156 416.232L111.127 416.327C110.731 412.037 110.254 406.836 109.741 401.225C109.081 393.876 108.553 387.209 108.238 382.382C108.077 379.969 107.974 378.018 107.915 376.661C107.893 376.016 107.879 375.495 107.864 375.106C107.857 374.747 107.857 374.563 107.871 374.563C107.886 374.563 107.908 374.747 107.937 375.106C107.967 375.495 108.011 376.016 108.062 376.661C108.172 378.055 108.319 379.991 108.509 382.368C108.891 387.187 109.463 393.839 110.122 401.196C110.614 406.829 111.12 412.022 111.442 416.335V416.386L111.406 416.43C109.338 419.203 107.615 421.506 106.39 423.149C105.796 423.926 105.327 424.542 104.975 425.004C104.821 425.195 104.696 425.356 104.593 425.481C104.505 425.576 104.461 425.635 104.454 425.628Z" fill="#455A64"/>
<path d="M110.014 374.564C109.999 374.666 107.843 374.402 105.218 373.852C102.6 373.302 100.517 372.679 100.539 372.576C100.569 372.473 102.68 372.928 105.291 373.478C107.909 374.028 110.028 374.454 110.014 374.564Z" fill="#455A64"/>
<path d="M122.406 416.767C122.355 416.885 120.324 415.696 117.515 415.491C114.707 415.249 112.514 416.1 112.485 415.975C112.47 415.938 112.991 415.667 113.893 415.425C114.795 415.176 116.1 415 117.537 415.11C118.974 415.227 120.236 415.608 121.086 415.997C121.959 416.379 122.428 416.731 122.406 416.767Z" fill="#455A64"/>
<path d="M128.791 422.496C128.872 422.562 123.782 429.398 117.417 437.759C111.052 446.128 105.824 452.861 105.743 452.795C105.662 452.729 110.752 445.893 117.117 437.524C123.482 429.163 128.71 422.43 128.791 422.496Z" fill="#455A64"/>
<path d="M126.342 358.728C126.379 358.736 126.129 359.374 125.323 360.071C124.545 360.76 123.115 361.464 121.465 361.303C119.815 361.12 118.562 360.137 117.946 359.293C117.308 358.442 117.198 357.768 117.227 357.768C117.293 357.738 117.491 358.362 118.151 359.125C118.789 359.88 119.984 360.753 121.502 360.922C123.02 361.076 124.369 360.467 125.154 359.865C125.953 359.257 126.283 358.692 126.342 358.728Z" fill="#455A64"/>
<path d="M101.609 295.128C98.6612 292.326 96.8646 288.351 96.7033 284.295C96.542 280.231 98.0306 276.131 100.751 273.109" fill="#263238"/>
<path d="M91.4398 306.659C91.4398 306.659 87.5093 311.104 86.6953 328.099C86.6953 328.099 97.8929 330.226 98.0982 329.61C98.3035 329.001 91.4398 306.659 91.4398 306.659Z" fill="#E8505B"/>
<g opacity="0.3">
<path d="M91.4398 306.659C91.4398 306.659 87.5093 311.104 86.6953 328.099C86.6953 328.099 97.8929 330.226 98.0982 329.61C98.3035 329.001 91.4398 306.659 91.4398 306.659Z" fill="black"/>
</g>
<path d="M93.2581 356.161H127.643L127.086 350.792C127.086 350.792 123.155 330.35 123.184 330.086L123.8 328.788C125.421 325.377 125.48 321.431 123.954 317.969L140.791 312.211L136.67 298.319C129.029 299.61 117.479 301.048 117.479 301.048L115.763 301.195C115.763 301.195 103.84 301.818 103.59 301.847C98.6039 302.449 92.8035 302.83 90.6842 308.17C89.5476 311.023 90.6256 315.307 92.4808 319.729L96.888 333.299C98.6479 340.758 95.8394 340.399 94.2994 347.909C94.0574 349.024 93.2361 355.119 93.2581 356.161Z" fill="#E8505B"/>
<g opacity="0.3">
<path d="M93.2581 356.161H127.643L127.086 350.792C127.086 350.792 123.155 330.35 123.184 330.086L123.8 328.788C125.421 325.377 125.48 321.431 123.954 317.969L140.791 312.211L136.67 298.319C129.029 299.61 117.479 301.048 117.479 301.048L115.763 301.195C115.763 301.195 103.84 301.818 103.59 301.847C98.6039 302.449 92.8035 302.83 90.6842 308.17C89.5476 311.023 90.6256 315.307 92.4808 319.729L96.888 333.299C98.6479 340.758 95.8394 340.399 94.2994 347.909C94.0574 349.024 93.2361 355.119 93.2581 356.161Z" fill="black"/>
</g>
<path d="M140.631 312.424C140.638 312.446 140.374 312.564 139.883 312.74C139.392 312.916 138.68 313.165 137.8 313.458C136.04 314.052 133.598 314.845 130.9 315.703C128.201 316.568 125.789 317.426 124.073 318.131C123.215 318.475 122.533 318.783 122.049 318.989C121.572 319.201 121.308 319.311 121.294 319.282C121.279 319.26 121.528 319.106 121.983 318.849C122.445 318.6 123.112 318.255 123.963 317.874C125.657 317.096 128.077 316.194 130.775 315.329C133.481 314.463 135.93 313.715 137.712 313.187C138.607 312.923 139.326 312.718 139.832 312.578C140.345 312.468 140.624 312.402 140.631 312.424Z" fill="#263238"/>
<path d="M138.637 305.031C138.637 305.133 128.473 305.221 115.934 305.221C103.394 305.221 93.2305 305.133 93.2305 305.031C93.2305 304.928 103.394 304.84 115.934 304.84C128.473 304.84 138.637 304.921 138.637 305.031Z" fill="#FAFAFA"/>
<path d="M139.684 311.785C139.684 311.888 128.37 311.976 114.422 311.976C100.467 311.976 89.1523 311.888 89.1523 311.785C89.1523 311.683 100.46 311.595 114.422 311.595C128.37 311.595 139.684 311.675 139.684 311.785Z" fill="#FAFAFA"/>
<path d="M91.967 319.473C91.967 319.576 91.021 319.664 89.8624 319.664C88.6964 319.664 87.7578 319.576 87.7578 319.473C87.7578 319.37 88.7038 319.282 89.8624 319.282C91.021 319.282 91.967 319.363 91.967 319.473Z" fill="#FAFAFA"/>
<path d="M125.012 319.7C125.012 319.803 117.612 319.891 108.49 319.891C99.3605 319.891 91.9688 319.803 91.9688 319.7C91.9688 319.598 99.3678 319.51 108.49 319.51C117.612 319.51 125.012 319.598 125.012 319.7Z" fill="#FAFAFA"/>
<path d="M124.284 327.621C124.284 327.724 117.64 327.812 109.456 327.812C101.265 327.812 94.6289 327.724 94.6289 327.621C94.6289 327.519 101.265 327.431 109.456 327.431C117.64 327.431 124.284 327.519 124.284 327.621Z" fill="#FAFAFA"/>
<path d="M124.07 334.956C124.07 335.059 118.05 335.147 110.629 335.147C103.201 335.147 97.1875 335.059 97.1875 334.956C97.1875 334.854 103.208 334.766 110.629 334.766C118.05 334.766 124.07 334.854 124.07 334.956Z" fill="#FAFAFA"/>
<path d="M125.245 340.898C125.245 341 118.806 341.088 110.865 341.088C102.923 341.088 96.4844 341 96.4844 340.898C96.4844 340.795 102.923 340.707 110.865 340.707C118.806 340.707 125.245 340.795 125.245 340.898Z" fill="#FAFAFA"/>
<path d="M127.107 348.467C127.107 348.57 119.781 348.658 110.747 348.658C101.712 348.658 94.3867 348.57 94.3867 348.467C94.3867 348.364 101.712 348.276 110.747 348.276C119.781 348.276 127.107 348.364 127.107 348.467Z" fill="#FAFAFA"/>
<path d="M96.6749 332.646C96.6529 332.653 96.5429 332.411 96.3743 331.971C96.1763 331.45 95.9343 330.819 95.6483 330.093C95.0397 328.509 94.189 326.323 93.309 323.881C92.4217 321.446 91.6884 319.209 91.2265 317.566C90.9991 316.744 90.8231 316.077 90.7278 315.614C90.6252 315.152 90.5812 314.888 90.6105 314.881C90.6691 314.866 90.9625 315.871 91.4905 317.485C92.0184 319.098 92.7884 321.314 93.6757 323.749C94.563 326.184 95.3696 328.384 95.9123 329.998C96.1836 330.805 96.3889 331.457 96.5209 331.92C96.6383 332.382 96.6969 332.638 96.6749 332.646Z" fill="#263238"/>
<defs>
<linearGradient id="paint0_linear_5_2" x1="217.723" y1="-31.8426" x2="411.196" y2="146.855" gradientUnits="userSpaceOnUse">
<stop stop-color="white" stop-opacity="0.9"/>
<stop offset="1" stop-color="white" stop-opacity="0.1"/>
</linearGradient>
<linearGradient id="paint1_linear_5_2" x1="217.723" y1="-31.8426" x2="411.196" y2="146.855" gradientUnits="userSpaceOnUse">
<stop stop-color="white" stop-opacity="0.9"/>
<stop offset="1" stop-color="white" stop-opacity="0.5"/>
</linearGradient>
<linearGradient id="paint2_linear_5_2" x1="283.554" y1="46.1534" x2="477.027" y2="224.851" gradientUnits="userSpaceOnUse">
<stop stop-color="white" stop-opacity="0.1"/>
<stop offset="1" stop-color="white" stop-opacity="0.9"/>
</linearGradient>
<linearGradient id="paint3_linear_5_2" x1="200.522" y1="218.576" x2="200.522" y2="196.682" gradientUnits="userSpaceOnUse">
<stop stop-color="#0D534D"/>
<stop offset="1" stop-color="#199A8E"/>
</linearGradient>
<clipPath id="clip0_5_2">
<rect width="375" height="621" fill="white"/>
</clipPath>
</defs>
</svg>
