<svg width="16" height="16" viewBox="0 0 16 16" fill="none" xmlns="http://www.w3.org/2000/svg">
<path fill-rule="evenodd" clip-rule="evenodd" d="M8.25096 10.1958H6.70443C6.70026 9.97361 6.69818 9.83889 6.69818 9.78958C6.69818 9.29028 6.78082 8.87986 6.94748 8.55694C7.11207 8.23542 7.44193 7.87222 7.93915 7.46806C8.43637 7.06597 8.73359 6.80208 8.82943 6.67639C8.98082 6.47847 9.05443 6.25972 9.05443 6.02292C9.05443 5.69514 8.92248 5.4125 8.65651 5.17986C8.39262 4.94444 8.03568 4.82708 7.58637 4.82708C7.15304 4.82708 6.79193 4.95069 6.49957 5.19653C6.20929 5.44375 6.00859 5.81875 5.89957 6.32431L4.34123 6.12569C4.38637 5.40208 4.69401 4.78958 5.26484 4.28403C5.83637 3.77847 6.58707 3.52708 7.51484 3.52708C8.49262 3.52708 9.2697 3.78333 9.84748 4.29236C10.4246 4.80139 10.7135 5.39306 10.7135 6.07222C10.7135 6.44514 10.6086 6.80208 10.3954 7.13611C10.1829 7.47014 9.73221 7.92639 9.03707 8.50347C8.67804 8.8007 8.45512 9.04097 8.36832 9.22292C8.28221 9.40417 8.24262 9.72778 8.25096 10.1958ZM7.52734 0.5C5.45651 0.5 3.58082 1.33958 2.22387 2.69722C0.866927 4.05347 0.0273438 5.92917 0.0273438 8C0.0273438 10.0708 0.866927 11.9465 2.22457 13.3035C3.58082 14.6604 5.45651 15.5 7.52734 15.5C9.59818 15.5 11.4739 14.6604 12.8308 13.3035C14.1878 11.9465 15.0273 10.0708 15.0273 8C15.0273 5.92917 14.1878 4.05347 12.8308 2.69653C11.4739 1.33958 9.59818 0.5 7.52734 0.5ZM12.2871 3.24028C11.069 2.02292 9.38637 1.26944 7.52734 1.26944C5.66901 1.26944 3.98568 2.02292 2.76762 3.24097C1.55026 4.45833 0.796788 6.14097 0.796788 8C0.796788 9.85833 1.55026 11.5417 2.76832 12.7597C3.98568 13.9771 5.66901 14.7306 7.52734 14.7306C9.38637 14.7306 11.069 13.9771 12.2871 12.759C13.5051 11.541 14.2586 9.85764 14.2586 7.99931C14.2579 6.14097 13.5044 4.45833 12.2871 3.24028ZM6.70443 12.4722V10.7778H8.25096V12.4722H6.70443Z" fill="#9CA3AF"/>
</svg>
