<svg width="27" height="26" viewBox="0 0 27 26" fill="none" xmlns="http://www.w3.org/2000/svg">
<ellipse cx="13.0195" cy="13" rx="13" ry="13" fill="white"/>
<path fill-rule="evenodd" clip-rule="evenodd" d="M22.9063 12.8649C22.9063 12.5955 22.7992 12.3372 22.6088 12.1468L18.8848 8.4228C18.4882 8.02617 17.8451 8.02617 17.4485 8.4228C17.0519 8.81942 17.0519 9.46248 17.4485 9.85911L20.4543 12.8649L17.4485 15.8707C17.0519 16.2673 17.0519 16.9104 17.4485 17.307C17.8451 17.7036 18.4882 17.7036 18.8848 17.307L22.6088 13.5831C22.7992 13.3926 22.9063 13.1343 22.9063 12.8649Z" fill="black"/>
<path fill-rule="evenodd" clip-rule="evenodd" d="M3.26953 12.8649C3.26953 12.5955 3.37653 12.3372 3.567 12.1468L7.29096 8.4228C7.68758 8.02617 8.33064 8.02617 8.72727 8.4228C9.12389 8.81942 9.12389 9.46248 8.72727 9.85911L5.72147 12.8649L8.72727 15.8707C9.12389 16.2673 9.12389 16.9104 8.72727 17.307C8.33064 17.7036 7.68758 17.7036 7.29096 17.307L3.567 13.5831C3.37653 13.3926 3.26953 13.1343 3.26953 12.8649Z" fill="black"/>
</svg>
